# Made in Blockbench 4.7.2
mtllib NatureHedgeEnd.mtl

o cube
v 0.1875 0.875 0.1875
v 0.1875 0.875 -0.5
v 0.1875 0 0.1875
v 0.1875 0 -0.5
v -0.1875 0.875 0.1875
v -0.1875 0.875 -0.5
v -0.1875 0 0.1875
v -0.1875 0 -0.5
vt 0.09375 1
vt 0 1
vt 0 0.78125
vt 0.09375 0.78125
vt 0.203125 0.78125
vt 0.203125 1
vt 0.109375 1
vt 0.109375 0.78125
vt 0.640625 0.671875
vt 0.734375 0.671875
vt 0.734375 0.765625
vt 0.640625 0.765625
vt 0.734375 0.5625
vt 0.734375 0.65625
vt 0.640625 0.65625
vt 0.640625 0.5625
vt 0.3125 0.78125
vt 0.3125 1
vt 0.21875 1
vt 0.21875 0.78125
vt 0.09375 0.765625
vt 0 0.765625
vt 0 0.546875
vt 0.09375 0.546875
vn 1 0 0
vn -1 0 0
vn 0 1 0
vn 0 -1 0
vn 0 0 1
vn 0 0 -1
usemtl m_dd5e1617-681b-26d2-eca1-b40e4ff3d6ea
f 2/1/1 1/2/1 3/3/1 4/4/1
f 7/5/2 5/6/2 6/7/2 8/8/2
f 5/9/3 1/10/3 2/11/3 6/12/3
f 4/13/4 3/14/4 7/15/4 8/16/4
f 3/17/5 1/18/5 5/19/5 7/20/5
f 6/21/6 2/22/6 4/23/6 8/24/6