# Made in Blockbench 4.7.2
mtllib NatureHedgeFourWay.mtl

o cube
v 0.1875 0.875 0.1875
v 0.1875 0.875 -0.1875
v 0.1875 0 0.1875
v 0.1875 0 -0.1875
v -0.1875 0.875 0.1875
v -0.1875 0.875 -0.1875
v -0.1875 0 0.1875
v -0.1875 0 -0.1875
v 0.5 0.875 0.1875
v 0.5 0 0.1875
v 0.5 0.875 -0.1875
v 0.5 0 -0.1875
v 0.1875 0.875 -0.5
v 0.1875 0 -0.5
v -0.1875 0.875 -0.5
v -0.1875 0 -0.5
v -0.5 0.875 0.1875
v -0.5 0.875 -0.1875
v -0.5 0 0.1875
v -0.5 0 -0.1875
v 0.1875 0.875 0.5
v -0.1875 0.875 0.5
v 0.1875 0 0.5
v -0.1875 0 0.5
vt 0.09375 1
vt 0 1
vt 0 0.78125
vt 0.09375 0.78125
vt 0.203125 0.78125
vt 0.203125 1
vt 0.109375 1
vt 0.109375 0.78125
vt 0.640625 0.671875
vt 0.734375 0.671875
vt 0.734375 0.765625
vt 0.640625 0.765625
vt 0.734375 0.5625
vt 0.734375 0.65625
vt 0.640625 0.65625
vt 0.640625 0.5625
vt 0.3125 0.78125
vt 0.3125 1
vt 0.21875 1
vt 0.21875 0.78125
vt 0.09375 0.765625
vt 0 0.765625
vt 0 0.546875
vt 0.09375 0.546875
vt 0.0625 0.625
vt 0.0625 1
vt 0 1
vt 0 0.625
vt 0.0625 0.125
vt 0.0625 1
vt 0 1
vt 0 0.125
vt 0.0625 0.625
vt 0.0625 1
vt 0 1
vt 0 0.625
vt 0 1
vt 0 0.125
vt 0.0625 0.125
vt 0.0625 1
vt 0.375 0.9375
vt 0 0.9375
vt 0 0.875
vt 0.375 0.875
vt 0.0625 0.125
vt 0.0625 1
vt 0 1
vt 0 0.125
vt 0 0.75
vt 0.375 0.75
vt 0.375 0.8125
vt 0 0.8125
vt 0 1
vt 0 0.125
vt 0.0625 0.125
vt 0.0625 1
vt 0.0625 1
vt 0.0625 0.125
vt 0.125 0.125
vt 0.125 1
vt 0.0625 1
vt 0.0625 0.625
vt 0.125 0.625
vt 0.125 1
vt 0.0625 0.125
vt 0.0625 1
vt 0 1
vt 0 0.125
vt 0.0625 1
vt 0.0625 0.625
vt 0.125 0.625
vt 0.125 1
vt 0.125 1
vt 0.125 0.125
vt 0.1875 0.125
vt 0.1875 1
vt 0 0.9375
vt 0.375 0.9375
vt 0.375 1
vt 0 1
vt 0.125 0.125
vt 0.125 1
vt 0.0625 1
vt 0.0625 0.125
vt 0.375 0.9375
vt 0 0.9375
vt 0 0.875
vt 0.375 0.875
vn 1 0 0
vn -1 0 0
vn 0 1 0
vn 0 -1 0
vn 0 0 1
vn 0 0 -1
vn 0 1 0
vn 0 0 1
vn 0 -1 0
vn 0 0 -1
vn 0 1 0
vn 1 0 0
vn 0 -1 0
vn -1 0 0
vn 0 0 1
vn 0 1 0
vn 0 0 -1
vn 0 -1 0
vn 1 0 0
vn 0 1 0
vn -1 0 0
vn 0 -1 0
usemtl m_dd5e1617-681b-26d2-eca1-b40e4ff3d6ea
f 11/1/1 9/2/1 10/3/1 12/4/1
f 19/5/2 17/6/2 18/7/2 20/8/2
f 5/9/3 1/10/3 2/11/3 6/12/3
f 4/13/4 3/14/4 7/15/4 8/16/4
f 23/17/5 21/18/5 22/19/5 24/20/5
f 15/21/6 13/22/6 14/23/6 16/24/6
f 9/25/7 11/26/7 2/27/7 1/28/7
f 10/29/8 9/30/8 1/31/8 3/32/8
f 12/33/9 10/34/9 3/35/9 4/36/9
f 11/37/10 12/38/10 4/39/10 2/40/10
f 13/41/11 15/42/11 6/43/11 2/44/11
f 14/45/12 13/46/12 2/47/12 4/48/12
f 16/49/13 14/50/13 4/51/13 8/52/13
f 15/53/14 16/54/14 8/55/14 6/56/14
f 17/57/15 19/58/15 7/59/15 5/60/15
f 18/61/16 17/62/16 5/63/16 6/64/16
f 20/65/17 18/66/17 6/67/17 8/68/17
f 19/69/18 20/70/18 8/71/18 7/72/18
f 21/73/19 23/74/19 3/75/19 1/76/19
f 22/77/20 21/78/20 1/79/20 5/80/20
f 24/81/21 22/82/21 5/83/21 7/84/21
f 23/85/22 24/86/22 7/87/22 3/88/22