# Made in Blockbench 4.4.2
mtllib BlockyTree2.mtl

o cube
v 0.15625 1.125 0.15625
v 0.15625 1.125 -0.15625
v 0.15625 0 0.15625
v 0.15625 0 -0.15625
v -0.15625 1.125 0.15625
v -0.15625 1.125 -0.15625
v -0.15625 0 0.15625
v -0.15625 0 -0.15625
vt 0.2734375 0.59375
vt 0.234375 0.59375
vt 0.234375 0.453125
vt 0.2734375 0.453125
vt 0.3125 0.453125
vt 0.3125 0.59375
vt 0.2734375 0.59375
vt 0.2734375 0.453125
vt 0.09375 0.5234375
vt 0.1328125 0.5234375
vt 0.1328125 0.5625
vt 0.09375 0.5625
vt 0.5078125 0.7265625
vt 0.5078125 0.765625
vt 0.46875 0.765625
vt 0.46875 0.7265625
vt 0.3515625 0.453125
vt 0.3515625 0.59375
vt 0.3125 0.59375
vt 0.3125 0.453125
vt 0.390625 0.59375
vt 0.3515625 0.59375
vt 0.3515625 0.453125
vt 0.390625 0.453125
vn 1 0 0
vn -1 0 0
vn 0 1 0
vn 0 -1 0
vn 0 0 1
vn 0 0 -1
usemtl m_0
f 2/1/1 1/2/1 3/3/1 4/4/1
f 7/5/2 5/6/2 6/7/2 8/8/2
f 5/9/3 1/10/3 2/11/3 6/12/3
f 4/13/4 3/14/4 7/15/4 8/16/4
f 3/17/5 1/18/5 5/19/5 7/20/5
f 6/21/6 2/22/6 4/23/6 8/24/6
o cube
v 0.75 1.625 0.75
v 0.75 1.625 -0.75
v 0.75 1.125 0.75
v 0.75 1.125 -0.75
v -0.75 1.625 0.75
v -0.75 1.625 -0.75
v -0.75 1.125 0.75
v -0.75 1.125 -0.75
vt 0.375 0.71875
vt 0.1875 0.71875
vt 0.1875 0.65625
vt 0.375 0.65625
vt 0.515625 0.9375
vt 0.515625 1
vt 0.328125 1
vt 0.328125 0.9375
vt 0 0.8125
vt 0.1875 0.8125
vt 0.1875 1
vt 0 1
vt 0.1875 0.625
vt 0.1875 0.8125
vt 0 0.8125
vt 0 0.625
vt 0.515625 0.875
vt 0.515625 0.9375
vt 0.328125 0.9375
vt 0.328125 0.875
vt 0.515625 0.875
vt 0.328125 0.875
vt 0.328125 0.8125
vt 0.515625 0.8125
vn 1 0 0
vn -1 0 0
vn 0 1 0
vn 0 -1 0
vn 0 0 1
vn 0 0 -1
usemtl m_0
f 10/25/7 9/26/7 11/27/7 12/28/7
f 15/29/8 13/30/8 14/31/8 16/32/8
f 13/33/9 9/34/9 10/35/9 14/36/9
f 12/37/10 11/38/10 15/39/10 16/40/10
f 11/41/11 9/42/11 13/43/11 15/44/11
f 14/45/12 10/46/12 12/47/12 16/48/12
o cube
v 0.5625 2.125 0.5625
v 0.5625 2.125 -0.5625
v 0.5625 1.625 0.5625
v 0.5625 1.625 -0.5625
v -0.5625 2.125 0.5625
v -0.5625 2.125 -0.5625
v -0.5625 1.625 0.5625
v -0.5625 1.625 -0.5625
vt 0.46875 0.8125
vt 0.328125 0.8125
vt 0.328125 0.75
vt 0.46875 0.75
vt 0.328125 0.59375
vt 0.328125 0.65625
vt 0.1875 0.65625
vt 0.1875 0.59375
vt 0.1875 0.859375
vt 0.328125 0.859375
vt 0.328125 1
vt 0.1875 1
vt 0.328125 0.71875
vt 0.328125 0.859375
vt 0.1875 0.859375
vt 0.1875 0.71875
vt 0.46875 0.59375
vt 0.46875 0.65625
vt 0.328125 0.65625
vt 0.328125 0.59375
vt 0.140625 0.625
vt 0 0.625
vt 0 0.5625
vt 0.140625 0.5625
vn 1 0 0
vn -1 0 0
vn 0 1 0
vn 0 -1 0
vn 0 0 1
vn 0 0 -1
usemtl m_0
f 18/49/13 17/50/13 19/51/13 20/52/13
f 23/53/14 21/54/14 22/55/14 24/56/14
f 21/57/15 17/58/15 18/59/15 22/60/15
f 20/61/16 19/62/16 23/63/16 24/64/16
f 19/65/17 17/66/17 21/67/17 23/68/17
f 22/69/18 18/70/18 20/71/18 24/72/18
o cube
v 0.375 2.5 0.375
v 0.375 2.5 -0.375
v 0.375 2.125 0.375
v 0.375 2.125 -0.375
v -0.375 2.5 0.375
v -0.375 2.5 -0.375
v -0.375 2.125 0.375
v -0.375 2.125 -0.375
vt 0.484375 0.59375
vt 0.390625 0.59375
vt 0.390625 0.546875
vt 0.484375 0.546875
vt 0.09375 0.515625
vt 0.09375 0.5625
vt 0 0.5625
vt 0 0.515625
vt 0.375 0.65625
vt 0.46875 0.65625
vt 0.46875 0.75
vt 0.375 0.75
vt 0.234375 0.5
vt 0.234375 0.59375
vt 0.140625 0.59375
vt 0.140625 0.5
vt 0.484375 0.5
vt 0.484375 0.546875
vt 0.390625 0.546875
vt 0.390625 0.5
vt 0.5625 0.8125
vt 0.46875 0.8125
vt 0.46875 0.765625
vt 0.5625 0.765625
vn 1 0 0
vn -1 0 0
vn 0 1 0
vn 0 -1 0
vn 0 0 1
vn 0 0 -1
usemtl m_0
f 26/73/19 25/74/19 27/75/19 28/76/19
f 31/77/20 29/78/20 30/79/20 32/80/20
f 29/81/21 25/82/21 26/83/21 30/84/21
f 28/85/22 27/86/22 31/87/22 32/88/22
f 27/89/23 25/90/23 29/91/23 31/92/23
f 30/93/24 26/94/24 28/95/24 32/96/24