# Made in Blockbench 4.4.3
mtllib BlockyHaybale.mtl

o cube
v 0.53125 0.84375 -0.4375
v 0.53125 0.84375 -0.5625
v 0.53125 -0.03125 -0.4375
v 0.53125 -0.03125 -0.5625
v -0.53125 0.84375 -0.4375
v -0.53125 0.84375 -0.5625
v -0.53125 -0.03125 -0.4375
v -0.53125 -0.03125 -0.5625
vt 0.46875 0.5625
vt 0.453125 0.5625
vt 0.453125 0.453125
vt 0.46875 0.453125
vt 0.484375 0.453125
vt 0.484375 0.5625
vt 0.46875 0.5625
vt 0.46875 0.453125
vt 0.453125 0.984375
vt 0.5859375 0.984375
vt 0.5859375 1
vt 0.453125 1
vt 0.5859375 0.96875
vt 0.5859375 0.984375
vt 0.453125 0.984375
vt 0.453125 0.96875
vt 0.2578125 0.59375
vt 0.2578125 0.703125
vt 0.125 0.703125
vt 0.125 0.59375
vt 0.390625 0.703125
vt 0.2578125 0.703125
vt 0.2578125 0.59375
vt 0.390625 0.59375
vn 1 0 0
vn -1 0 0
vn 0 1 0
vn 0 -1 0
vn 0 0 1
vn 0 0 -1
usemtl m_900460c3-872f-6646-53c5-a7c387278d0d
f 2/1/1 1/2/1 3/3/1 4/4/1
f 7/5/2 5/6/2 6/7/2 8/8/2
f 5/9/3 1/10/3 2/11/3 6/12/3
f 4/13/4 3/14/4 7/15/4 8/16/4
f 3/17/5 1/18/5 5/19/5 7/20/5
f 6/21/6 2/22/6 4/23/6 8/24/6
o cube
v 0.53125 0.84375 0.5625
v 0.53125 0.84375 0.4375
v 0.53125 -0.03125 0.5625
v 0.53125 -0.03125 0.4375
v -0.53125 0.84375 0.5625
v -0.53125 0.84375 0.4375
v -0.53125 -0.03125 0.5625
v -0.53125 -0.03125 0.4375
vt 0.1484375 0.5234375
vt 0.1328125 0.5234375
vt 0.1328125 0.4140625
vt 0.1484375 0.4140625
vt 0.1640625 0.4140625
vt 0.1640625 0.5234375
vt 0.1484375 0.5234375
vt 0.1484375 0.4140625
vt 0.453125 0.953125
vt 0.5859375 0.953125
vt 0.5859375 0.96875
vt 0.453125 0.96875
vt 0.5859375 0.9375
vt 0.5859375 0.953125
vt 0.453125 0.953125
vt 0.453125 0.9375
vt 0.4453125 0.78125
vt 0.4453125 0.890625
vt 0.3125 0.890625
vt 0.3125 0.78125
vt 0.5234375 0.78125
vt 0.390625 0.78125
vt 0.390625 0.671875
vt 0.5234375 0.671875
vn 1 0 0
vn -1 0 0
vn 0 1 0
vn 0 -1 0
vn 0 0 1
vn 0 0 -1
usemtl m_900460c3-872f-6646-53c5-a7c387278d0d
f 10/25/7 9/26/7 11/27/7 12/28/7
f 15/29/8 13/30/8 14/31/8 16/32/8
f 13/33/9 9/34/9 10/35/9 14/36/9
f 12/37/10 11/38/10 15/39/10 16/40/10
f 11/41/11 9/42/11 13/43/11 15/44/11
f 14/45/12 10/46/12 12/47/12 16/48/12
o cube
v 0.515625 0.828125 0.875
v 0.515625 0.84375 -0.9375
v 0.515625 -0.015625000000000056 0.875
v 0.515625 -0.03125 -0.9375
v -0.515625 0.828125 0.875
v -0.515625 0.84375 -0.9375
v -0.515625 -0.015625000000000056 0.875
v -0.515625 -0.03125 -0.9375
v 0.5 0.8125 -0.4375
v -0.5 0.8125 -0.4375
v -0.5 0 -0.4375
v 0.5 0 -0.4375
v 0.5 0.8125 -0.5625
v -0.5 0.8125 -0.5625
v -0.5 0 -0.5625
v 0.5 0 -0.5625
v 0.5 0.8125 0.5625
v -0.5 0.8125 0.5625
v -0.5 0 0.5625
v 0.5 0 0.5625
vt 0.453125 0.5625
vt 0.390625 0.55859375
vt 0.390625 0.45703125
vt 0.453125 0.453125
vt 0.4453125 0.78125
vt 0.5078125 0.78515625
vt 0.5078125 0.88671875
vt 0.4453125 0.890625
vt 0.1328125 0.59375
vt 0.1328125 0.5310976742188986
vt 0.2577517465069699 0.5272009214334874
vt 0.26165609796031275 0.5897314736900445
vt 0.390625 0.5234375
vt 0.390625 0.5860898257811014
vt 0.2695293514533428 0.5899865785665126
vt 0.265625 0.5274560263099554
vt 0.5234375 0.5625
vt 0.5234375 0.671875
vt 0.390625 0.671875
vt 0.390625 0.5625
vt 0.1328125 0.59375
vt 0 0.59375
vt 0 0.484375
vt 0.1328125 0.484375
vt 0 0.6484375
vt 0 0.6328125
vt 0.125 0.6328125
vt 0.125 0.6484375
vt 0.1640625 0.421875
vt 0.1796875 0.421875
vt 0.1796875 0.5234375
vt 0.1640625 0.5234375
vt 0.125 0.6171875
vt 0.125 0.6328125
vt 0 0.6328125
vt 0 0.6171875
vt 0.1953125 0.5234375
vt 0.1796875 0.5234375
vt 0.1796875 0.421875
vt 0.1953125 0.421875
vt 0.001953125 1
vt 0.001953125 0.859375
vt 0.126953125 0.859375
vt 0.126953125 1
vt 0.125 0.708984375
vt 0.265625 0.708984375
vt 0.265625 0.810546875
vt 0.125 0.810546875
vt 0.259765625 0.8125
vt 0.259765625 0.953125
vt 0.134765625 0.953125
vt 0.134765625 0.8125
vt 0.453125 0.998046875
vt 0.3125 0.998046875
vt 0.3125 0.896484375
vt 0.453125 0.896484375
vt 0.12890625 0.8202640625
vt 0.126953125 0.859375
vt 0.001953125 0.859375
vt 0 0.8202640625000001
vt 0.3047359375 0.8125
vt 0.265625 0.810546875
vt 0.265625 0.708984375
vt 0.3047359375 0.70703125
vt 0.1328125 0.9922359374999999
vt 0.134765625 0.953125
vt 0.259765625 0.953125
vt 0.26171875 0.9922359375
vt 0.2733890625 0.89453125
vt 0.3125 0.896484375
vt 0.3125 0.998046875
vt 0.2733890625 1
vn 0.9995120760870788 0 0.031234752377721213
vn -0.9995120760870788 0 0.031234752377721213
vn 0 0.9980525784828888 0.06237828615518055
vn 0 -0.9980525784828888 0.06237828615518055
vn 0 0 1
vn 0 0 -1
vn 0 -1 0
vn 1 0 0
vn 0 1 0
vn -1 0 0
vn 0 1 0
vn -1 0 0
vn 0 -1 0
vn 1 0 0
vn 0 0.9987523388778448 -0.049937616943892246
vn -0.9987523388778449 0 -0.049937616943892246
vn 0 -0.9987523388778448 -0.04993761694389242
vn 0.9987523388778449 0 -0.049937616943892246
usemtl m_900460c3-872f-6646-53c5-a7c387278d0d
f 18/49/13 25/50/13 28/51/13 20/52/13
f 24/53/14 27/54/14 26/55/14 22/56/14
f 22/57/15 26/58/15 25/59/15 18/60/15
f 20/61/16 28/62/16 27/63/16 24/64/16
f 19/65/17 17/66/17 21/67/17 23/68/17
f 22/69/18 18/70/18 20/71/18 24/72/18
f 26/73/19 30/74/19 29/75/19 25/76/19
f 27/77/20 31/78/20 30/79/20 26/80/20
f 28/81/21 32/82/21 31/83/21 27/84/21
f 25/85/22 29/86/22 32/87/22 28/88/22
f 30/89/23 34/90/23 33/91/23 29/92/23
f 31/93/24 35/94/24 34/95/24 30/96/24
f 32/97/25 36/98/25 35/99/25 31/100/25
f 29/101/26 33/102/26 36/103/26 32/104/26
f 17/105/27 33/106/27 34/107/27 21/108/27
f 21/109/28 34/110/28 35/111/28 23/112/28
f 23/113/29 35/114/29 36/115/29 19/116/29
f 19/117/30 36/118/30 33/119/30 17/120/30