# Made in Blockbench 4.6.5
mtllib ShrineFencePost.mtl

o pyramid
v 0 0.921875 0
v 0.125 0.875 0.125
v 0.125 0.875 -0.125
v -0.125 0.875 0.125
v -0.125 0.875 -0.125
v 0.125 0.84375 0.125
v -0.125 0.84375 0.125
v 0.125 0.84375 -0.125
v -0.125 0.84375 -0.125
vt 1 0.59375
vt 1 0.71875
vt 0.875 0.71875
vt 0.875 0.59375
vt 0.9457116242740434 0.8588822423280718
vt 0.9539232485480869 0.9836122276033934
vt 0.8832116242740434 0.9256322423280717
vt 0.8207116242740434 0.8588822423280718
vt 0.9457116242740434 0.8588822423280718
vt 0.8832116242740434 0.9256322423280717
vt 0.936421107628511 1
vt 0.8125 0.9836122276033934
vt 0.8832116242740435 0.9256322423280717
vt 0.8125 0.9836122276033934
vt 0.8207116242740434 0.8588822423280718
vt 0.8832116242740434 0.9256322423280717
vt 0.84375 0.71875
vt 0.96875 0.71875
vt 0.96875 0.75
vt 0.84375 0.75
vt 0.84375 0.78125
vt 0.96875 0.78125
vt 0.96875 0.8125
vt 0.84375 0.8125
vt 0.84375 0.75
vt 0.96875 0.75
vt 0.96875 0.78125
vt 0.84375 0.78125
vt 0.875 0.5625
vt 1 0.5625
vt 1 0.59375
vt 0.875 0.59375
vn 0 -1 0
vn 0.3511234415883917 0.9363291775690445 0
vn 0 0.9363291775690445 0.3511234415883917
vn 0 0.9363291775690445 -0.3511234415883917
vn -0.3511234415883917 0.9363291775690445 0
vn 1 0 0
vn 0 0 1
vn -1 0 0
vn 0 0 -1
usemtl m_fe224fea-857d-5bf8-7273-68b230fee8e9
f 8/1/1 6/2/1 7/3/1 9/4/1
f 2/5/2 3/6/2 1/7/2
f 4/8/3 2/9/3 1/10/3
f 3/11/4 5/12/4 1/13/4
f 5/14/5 4/15/5 1/16/5
f 6/17/6 8/18/6 3/19/6 2/20/6
f 7/21/7 6/22/7 2/23/7 4/24/7
f 9/25/8 7/26/8 4/27/8 5/28/8
f 8/29/9 9/30/9 5/31/9 3/32/9
o cube
v 0.09375 0.84375 0.09375
v 0.09375 0.84375 -0.09375
v 0.09375 0.8125 0.09375
v 0.09375 0.8125 -0.09375
v -0.09375 0.84375 0.09375
v -0.09375 0.84375 -0.09375
v -0.09375 0.8125 0.09375
v -0.09375 0.8125 -0.09375
vt 0.9375 0.96875
vt 0.84375 0.96875
vt 0.84375 0.9375
vt 0.9375 0.9375
vt 0.9375 0.90625
vt 0.9375 0.9375
vt 0.84375 0.9375
vt 0.84375 0.90625
vt 0.8125 0.71875
vt 0.90625 0.71875
vt 0.90625 0.8125
vt 0.8125 0.8125
vt 1 0.71875
vt 1 0.8125
vt 0.90625 0.8125
vt 0.90625 0.71875
vt 0.9375 0.875
vt 0.9375 0.90625
vt 0.84375 0.90625
vt 0.84375 0.875
vt 0.9375 0.875
vt 0.84375 0.875
vt 0.84375 0.84375
vt 0.9375 0.84375
vn 1 0 0
vn -1 0 0
vn 0 1 0
vn 0 -1 0
vn 0 0 1
vn 0 0 -1
usemtl m_fe224fea-857d-5bf8-7273-68b230fee8e9
f 11/33/10 10/34/10 12/35/10 13/36/10
f 16/37/11 14/38/11 15/39/11 17/40/11
f 14/41/12 10/42/12 11/43/12 15/44/12
f 13/45/13 12/46/13 16/47/13 17/48/13
f 12/49/14 10/50/14 14/51/14 16/52/14
f 15/53/15 11/54/15 13/55/15 17/56/15
o cube
v 0.09375 0.0625 0.09375
v 0.09375 0.0625 -0.09375
v 0.09375 0 0.09375
v 0.09375 0 -0.09375
v -0.09375 0.0625 0.09375
v -0.09375 0.0625 -0.09375
v -0.09375 0 0.09375
v -0.09375 0 -0.09375
vt 0.875 0.875
vt 0.78125 0.875
vt 0.78125 0.84375
vt 0.875 0.84375
vt 1 0.90625
vt 1 0.9375
vt 0.90625 0.9375
vt 0.90625 0.90625
vt 0.8125 0.6875
vt 0.90625 0.6875
vt 0.90625 0.78125
vt 0.8125 0.78125
vt 1 0.6875
vt 1 0.78125
vt 0.90625 0.78125
vt 0.90625 0.6875
vt 1 0.875
vt 1 0.90625
vt 0.90625 0.90625
vt 0.90625 0.875
vt 1 0.875
vt 0.90625 0.875
vt 0.90625 0.84375
vt 1 0.84375
vn 1 0 0
vn -1 0 0
vn 0 1 0
vn 0 -1 0
vn 0 0 1
vn 0 0 -1
usemtl m_fe224fea-857d-5bf8-7273-68b230fee8e9
f 19/57/16 18/58/16 20/59/16 21/60/16
f 24/61/17 22/62/17 23/63/17 25/64/17
f 22/65/18 18/66/18 19/67/18 23/68/18
f 21/69/19 20/70/19 24/71/19 25/72/19
f 20/73/20 18/74/20 22/75/20 24/76/20
f 23/77/21 19/78/21 21/79/21 25/80/21
o cube
v 0.0625 0.8125 0.0625
v 0.0625 0.8125 -0.0625
v 0.0625 0.0625 0.0625
v 0.0625 0.0625 -0.0625
v -0.0625 0.8125 0.0625
v -0.0625 0.8125 -0.0625
v -0.0625 0.0625 0.0625
v -0.0625 0.0625 -0.0625
vt 0.0625 1
vt 0 1
vt 0 0.625
vt 0.0625 0.625
vt 0.125 0.625
vt 0.125 1
vt 0.0625 1
vt 0.0625 0.625
vt 0.59375 0.71875
vt 0.65625 0.71875
vt 0.65625 0.78125
vt 0.59375 0.78125
vt 0.0625 0.28125
vt 0.0625 0.34375
vt 0 0.34375
vt 0 0.28125
vt 0.1875 0.625
vt 0.1875 1
vt 0.125 1
vt 0.125 0.625
vt 0.25 1
vt 0.1875 1
vt 0.1875 0.625
vt 0.25 0.625
vn 1 0 0
vn -1 0 0
vn 0 1 0
vn 0 -1 0
vn 0 0 1
vn 0 0 -1
usemtl m_fe224fea-857d-5bf8-7273-68b230fee8e9
f 27/81/22 26/82/22 28/83/22 29/84/22
f 32/85/23 30/86/23 31/87/23 33/88/23
f 30/89/24 26/90/24 27/91/24 31/92/24
f 29/93/25 28/94/25 32/95/25 33/96/25
f 28/97/26 26/98/26 30/99/26 32/100/26
f 31/101/27 27/102/27 29/103/27 33/104/27