# Made in Blockbench 4.6.4
mtllib ShrineFenceEnd.mtl

o cube
v 0.0625 0.8125 0.0625
v 0.0625 0.8125 -0.0625
v 0.0625 0.0625 0.0625
v 0.0625 0.0625 -0.0625
v -0.0625 0.8125 0.0625
v -0.0625 0.8125 -0.0625
v -0.0625 0.0625 0.0625
v -0.0625 0.0625 -0.0625
vt 0.0625 1
vt 0 1
vt 0 0.625
vt 0.0625 0.625
vt 0.125 0.625
vt 0.125 1
vt 0.0625 1
vt 0.0625 0.625
vt 0.59375 0.71875
vt 0.65625 0.71875
vt 0.65625 0.78125
vt 0.59375 0.78125
vt 0.0625 0.28125
vt 0.0625 0.34375
vt 0 0.34375
vt 0 0.28125
vt 0.1875 0.625
vt 0.1875 1
vt 0.125 1
vt 0.125 0.625
vt 0.25 1
vt 0.1875 1
vt 0.1875 0.625
vt 0.25 0.625
vn 1 0 0
vn -1 0 0
vn 0 1 0
vn 0 -1 0
vn 0 0 1
vn 0 0 -1
usemtl m_372eb0f2-163c-7411-8514-9cf6a0104f10
f 2/1/1 1/2/1 3/3/1 4/4/1
f 7/5/2 5/6/2 6/7/2 8/8/2
f 5/9/3 1/10/3 2/11/3 6/12/3
f 4/13/4 3/14/4 7/15/4 8/16/4
f 3/17/5 1/18/5 5/19/5 7/20/5
f 6/21/6 2/22/6 4/23/6 8/24/6
o cube
v 0.09375 0.0625 0.09375
v 0.09375 0.0625 -0.09375
v 0.09375 0 0.09375
v 0.09375 0 -0.09375
v -0.09375 0.0625 0.09375
v -0.09375 0.0625 -0.09375
v -0.09375 0 0.09375
v -0.09375 0 -0.09375
vt 0.625 0.875
vt 0.53125 0.875
vt 0.53125 0.84375
vt 0.625 0.84375
vt 0.75 0.90625
vt 0.75 0.9375
vt 0.65625 0.9375
vt 0.65625 0.90625
vt 0.4375 0.375
vt 0.53125 0.375
vt 0.53125 0.46875
vt 0.4375 0.46875
vt 0.625 0.375
vt 0.625 0.46875
vt 0.53125 0.46875
vt 0.53125 0.375
vt 0.75 0.875
vt 0.75 0.90625
vt 0.65625 0.90625
vt 0.65625 0.875
vt 0.75 0.875
vt 0.65625 0.875
vt 0.65625 0.84375
vt 0.75 0.84375
vn 1 0 0
vn -1 0 0
vn 0 1 0
vn 0 -1 0
vn 0 0 1
vn 0 0 -1
usemtl m_372eb0f2-163c-7411-8514-9cf6a0104f10
f 10/25/7 9/26/7 11/27/7 12/28/7
f 15/29/8 13/30/8 14/31/8 16/32/8
f 13/33/9 9/34/9 10/35/9 14/36/9
f 12/37/10 11/38/10 15/39/10 16/40/10
f 11/41/11 9/42/11 13/43/11 15/44/11
f 14/45/12 10/46/12 12/47/12 16/48/12
o cube
v 0.09375 0.84375 0.09375
v 0.09375 0.84375 -0.09375
v 0.09375 0.8125 0.09375
v 0.09375 0.8125 -0.09375
v -0.09375 0.84375 0.09375
v -0.09375 0.84375 -0.09375
v -0.09375 0.8125 0.09375
v -0.09375 0.8125 -0.09375
vt 0.75 0.84375
vt 0.65625 0.84375
vt 0.65625 0.8125
vt 0.75 0.8125
vt 0.75 0.78125
vt 0.75 0.8125
vt 0.65625 0.8125
vt 0.65625 0.78125
vt 0 0.34375
vt 0.09375 0.34375
vt 0.09375 0.4375
vt 0 0.4375
vt 0.1875 0.34375
vt 0.1875 0.4375
vt 0.09375 0.4375
vt 0.09375 0.34375
vt 0.75 0.75
vt 0.75 0.78125
vt 0.65625 0.78125
vt 0.65625 0.75
vt 0.75 0.75
vt 0.65625 0.75
vt 0.65625 0.71875
vt 0.75 0.71875
vn 1 0 0
vn -1 0 0
vn 0 1 0
vn 0 -1 0
vn 0 0 1
vn 0 0 -1
usemtl m_372eb0f2-163c-7411-8514-9cf6a0104f10
f 18/49/13 17/50/13 19/51/13 20/52/13
f 23/53/14 21/54/14 22/55/14 24/56/14
f 21/57/15 17/58/15 18/59/15 22/60/15
f 20/61/16 19/62/16 23/63/16 24/64/16
f 19/65/17 17/66/17 21/67/17 23/68/17
f 22/69/18 18/70/18 20/71/18 24/72/18
o pyramid
v 0 0.921875 0
v 0.125 0.875 0.125
v 0.125 0.875 -0.125
v -0.125 0.875 0.125
v -0.125 0.875 -0.125
v 0.125 0.84375 0.125
v -0.125 0.84375 0.125
v 0.125 0.84375 -0.125
v -0.125 0.84375 -0.125
vt 0.375 0.71875
vt 0.375 0.84375
vt 0.25 0.84375
vt 0.25 0.71875
vt 0.3832116242740434 0.8588822423280718
vt 0.3914232485480869 0.9836122276033934
vt 0.3207116242740434 0.9256322423280717
vt 0.2582116242740434 0.8588822423280718
vt 0.3832116242740434 0.8588822423280718
vt 0.3207116242740434 0.9256322423280717
vt 0.37392110762851105 1
vt 0.25 0.9836122276033934
vt 0.3207116242740435 0.9256322423280717
vt 0.25 0.9836122276033934
vt 0.2582116242740434 0.8588822423280718
vt 0.3207116242740434 0.9256322423280717
vt 0.40625 0.84375
vt 0.53125 0.84375
vt 0.53125 0.875
vt 0.40625 0.875
vt 0.65625 0.96875
vt 0.78125 0.96875
vt 0.78125 1
vt 0.65625 1
vt 0.65625 0.9375
vt 0.78125 0.9375
vt 0.78125 0.96875
vt 0.65625 0.96875
vt 0.0625 0.3125
vt 0.1875 0.3125
vt 0.1875 0.34375
vt 0.0625 0.34375
vn 0 -1 0
vn 0.3511234415883917 0.9363291775690445 0
vn 0 0.9363291775690445 0.3511234415883917
vn 0 0.9363291775690445 -0.3511234415883917
vn -0.3511234415883917 0.9363291775690445 0
vn 1 0 0
vn 0 0 1
vn -1 0 0
vn 0 0 -1
usemtl m_372eb0f2-163c-7411-8514-9cf6a0104f10
f 32/73/19 30/74/19 31/75/19 33/76/19
f 26/77/20 27/78/20 25/79/20
f 28/80/21 26/81/21 25/82/21
f 27/83/22 29/84/22 25/85/22
f 29/86/23 28/87/23 25/88/23
f 30/89/24 32/90/24 27/91/24 26/92/24
f 31/93/25 30/94/25 26/95/25 28/96/25
f 33/97/26 31/98/26 28/99/26 29/100/26
f 32/101/27 33/102/27 29/103/27 27/104/27
o cube
v 0.03125 0.65625 -0.0625
v 0.03125 0.65625 -0.5
v 0.03125 0.53125 -0.0625
v 0.03125 0.53125 -0.5
v -0.03125 0.65625 -0.0625
v -0.03125 0.65625 -0.5
v -0.03125 0.53125 -0.0625
v -0.03125 0.53125 -0.5
vt 0.46875 0.71875
vt 0.25 0.71875
vt 0.25 0.65625
vt 0.46875 0.65625
vt 0.46875 0.59375
vt 0.46875 0.65625
vt 0.25 0.65625
vt 0.25 0.59375
vt 0.1875 0.21875
vt 0.21875 0.21875
vt 0.21875 0.4375
vt 0.1875 0.4375
vt 0.25 0.1875
vt 0.25 0.40625
vt 0.21875 0.40625
vt 0.21875 0.1875
vt 0.625 0.78125
vt 0.625 0.84375
vt 0.59375 0.84375
vt 0.59375 0.78125
vt 0.6875 0.59375
vt 0.65625 0.59375
vt 0.65625 0.53125
vt 0.6875 0.53125
vn 1 0 0
vn -1 0 0
vn 0 1 0
vn 0 -1 0
vn 0 0 1
vn 0 0 -1
usemtl m_372eb0f2-163c-7411-8514-9cf6a0104f10
f 35/105/28 34/106/28 36/107/28 37/108/28
f 40/109/29 38/110/29 39/111/29 41/112/29
f 38/113/30 34/114/30 35/115/30 39/116/30
f 37/117/31 36/118/31 40/119/31 41/120/31
f 36/121/32 34/122/32 38/123/32 40/124/32
f 39/125/33 35/126/33 37/127/33 41/128/33
o cube
v 0.03125 0.34375 -0.0625
v 0.03125 0.34375 -0.5
v 0.03125 0.21875 -0.0625
v 0.03125 0.21875 -0.5
v -0.03125 0.34375 -0.0625
v -0.03125 0.34375 -0.5
v -0.03125 0.21875 -0.0625
v -0.03125 0.21875 -0.5
vt 0.21875 0.625
vt 0 0.625
vt 0 0.5625
vt 0.21875 0.5625
vt 0.59375 0.78125
vt 0.59375 0.84375
vt 0.375 0.84375
vt 0.375 0.78125
vt 0.25 0.1875
vt 0.28125 0.1875
vt 0.28125 0.40625
vt 0.25 0.40625
vt 0.3125 0.1875
vt 0.3125 0.40625
vt 0.28125 0.40625
vt 0.28125 0.1875
vt 0.6875 0.46875
vt 0.6875 0.53125
vt 0.65625 0.53125
vt 0.65625 0.46875
vt 0.6875 0.46875
vt 0.65625 0.46875
vt 0.65625 0.40625
vt 0.6875 0.40625
vn 1 0 0
vn -1 0 0
vn 0 1 0
vn 0 -1 0
vn 0 0 1
vn 0 0 -1
usemtl m_372eb0f2-163c-7411-8514-9cf6a0104f10
f 43/129/34 42/130/34 44/131/34 45/132/34
f 48/133/35 46/134/35 47/135/35 49/136/35
f 46/137/36 42/138/36 43/139/36 47/140/36
f 45/141/37 44/142/37 48/143/37 49/144/37
f 44/145/38 42/146/38 46/147/38 48/148/38
f 47/149/39 43/150/39 45/151/39 49/152/39
o cube
v 0.015625 0.40625 -0.0625
v 0.015625 0.40625 -0.125
v 0.015625 0.34375 -0.0625
v 0.015625 0.34375 -0.125
v -0.015625 0.40625 -0.0625
v -0.015625 0.40625 -0.125
v -0.015625 0.34375 -0.0625
v -0.015625 0.34375 -0.125
vt 0.75 0.6875
vt 0.71875 0.6875
vt 0.71875 0.65625
vt 0.75 0.65625
vt 0.75 0.625
vt 0.75 0.65625
vt 0.71875 0.65625
vt 0.71875 0.625
vt 0.71875 0.59375
vt 0.75 0.59375
vt 0.75 0.625
vt 0.71875 0.625
vt 0.75 0.5625
vt 0.75 0.59375
vt 0.71875 0.59375
vt 0.71875 0.5625
vt 0.75 0.53125
vt 0.75 0.5625
vt 0.71875 0.5625
vt 0.71875 0.53125
vt 0.75 0.53125
vt 0.71875 0.53125
vt 0.71875 0.5
vt 0.75 0.5
vn 1 0 0
vn -1 0 0
vn 0 1 0
vn 0 -1 0
vn 0 0 1
vn 0 0 -1
usemtl m_372eb0f2-163c-7411-8514-9cf6a0104f10
f 51/153/40 50/154/40 52/155/40 53/156/40
f 56/157/41 54/158/41 55/159/41 57/160/41
f 54/161/42 50/162/42 51/163/42 55/164/42
f 53/165/43 52/166/43 56/167/43 57/168/43
f 52/169/44 50/170/44 54/171/44 56/172/44
f 55/173/45 51/174/45 53/175/45 57/176/45
o cube
v 0.015625 0.71875 -0.0625
v 0.015625 0.71875 -0.125
v 0.015625 0.65625 -0.0625
v 0.015625 0.65625 -0.125
v -0.015625 0.71875 -0.0625
v -0.015625 0.71875 -0.125
v -0.015625 0.65625 -0.0625
v -0.015625 0.65625 -0.125
vt 0.25 0.625
vt 0.21875 0.625
vt 0.21875 0.59375
vt 0.25 0.59375
vt 0.71875 0.3125
vt 0.71875 0.34375
vt 0.6875 0.34375
vt 0.6875 0.3125
vt 0.6875 0.28125
vt 0.71875 0.28125
vt 0.71875 0.3125
vt 0.6875 0.3125
vt 0.03125 0.25
vt 0.03125 0.28125
vt 0 0.28125
vt 0 0.25
vt 0.0625 0.25
vt 0.0625 0.28125
vt 0.03125 0.28125
vt 0.03125 0.25
vt 0.75 0.71875
vt 0.71875 0.71875
vt 0.71875 0.6875
vt 0.75 0.6875
vn 1 0 0
vn -1 0 0
vn 0 1 0
vn 0 -1 0
vn 0 0 1
vn 0 0 -1
usemtl m_372eb0f2-163c-7411-8514-9cf6a0104f10
f 59/177/46 58/178/46 60/179/46 61/180/46
f 64/181/47 62/182/47 63/183/47 65/184/47
f 62/185/48 58/186/48 59/187/48 63/188/48
f 61/189/49 60/190/49 64/191/49 65/192/49
f 60/193/50 58/194/50 62/195/50 64/196/50
f 63/197/51 59/198/51 61/199/51 65/200/51