# Made in Blockbench 4.6.5
mtllib ShrineLantern.mtl

o cube
v -0.17677669529663692 1 0.2209708691207961
v 0.2209708691207961 1 -0.17677669529663687
v -0.17677669529663692 0.9375 0.2209708691207961
v 0.2209708691207961 0.9375 -0.17677669529663687
v -0.2209708691207961 1 0.17677669529663687
v 0.17677669529663692 1 -0.2209708691207961
v -0.2209708691207961 0.9375 0.17677669529663687
v 0.17677669529663692 0.9375 -0.2209708691207961
vt 0.328125 0.578125
vt 0.1875 0.578125
vt 0.1875 0.5625
vt 0.328125 0.5625
vt 0.46875 0.5625
vt 0.46875 0.578125
vt 0.328125 0.578125
vt 0.328125 0.5625
vt 0 0.421875
vt 0.015625 0.421875
vt 0.015625 0.5625
vt 0 0.5625
vt 0.453125 0.859375
vt 0.453125 1
vt 0.4375 1
vt 0.4375 0.859375
vt 0.265625 0.796875
vt 0.265625 0.8125
vt 0.25 0.8125
vt 0.25 0.796875
vt 0.265625 0.796875
vt 0.25 0.796875
vt 0.25 0.78125
vt 0.265625 0.78125
vn 0.7071067811865475 0 0.7071067811865476
vn -0.7071067811865475 0 -0.7071067811865476
vn 0 1 0
vn 0 -1 0
vn -0.7071067811865476 0 0.7071067811865475
vn 0.7071067811865476 0 -0.7071067811865475
usemtl m_991d26a9-f65c-4887-601f-6b5cfd65f4d1
f 2/1/1 1/2/1 3/3/1 4/4/1
f 7/5/2 5/6/2 6/7/2 8/8/2
f 5/9/3 1/10/3 2/11/3 6/12/3
f 4/13/4 3/14/4 7/15/4 8/16/4
f 3/17/5 1/18/5 5/19/5 7/20/5
f 6/21/6 2/22/6 4/23/6 8/24/6
o cube
v 0.2209708691207961 1 0.17677669529663687
v -0.17677669529663692 1 -0.2209708691207961
v 0.2209708691207961 0.9375 0.17677669529663687
v -0.17677669529663692 0.9375 -0.2209708691207961
v 0.17677669529663692 1 0.2209708691207961
v -0.2209708691207961 1 -0.17677669529663687
v 0.17677669529663692 0.9375 0.2209708691207961
v -0.2209708691207961 0.9375 -0.17677669529663687
vt 0.5625 0.671875
vt 0.421875 0.671875
vt 0.421875 0.65625
vt 0.5625 0.65625
vt 0.5625 0.640625
vt 0.5625 0.65625
vt 0.421875 0.65625
vt 0.421875 0.640625
vt 0.015625 0.421875
vt 0.03125 0.421875
vt 0.03125 0.5625
vt 0.015625 0.5625
vt 0.046875 0.421875
vt 0.046875 0.5625
vt 0.03125 0.5625
vt 0.03125 0.421875
vt 0.28125 0.796875
vt 0.28125 0.8125
vt 0.265625 0.8125
vt 0.265625 0.796875
vt 0.28125 0.796875
vt 0.265625 0.796875
vt 0.265625 0.78125
vt 0.28125 0.78125
vn 0.7071067811865475 0 -0.7071067811865476
vn -0.7071067811865475 0 0.7071067811865476
vn 0 1 0
vn 0 -1 0
vn 0.7071067811865476 0 0.7071067811865475
vn -0.7071067811865476 0 -0.7071067811865475
usemtl m_991d26a9-f65c-4887-601f-6b5cfd65f4d1
f 10/25/7 9/26/7 11/27/7 12/28/7
f 15/29/8 13/30/8 14/31/8 16/32/8
f 13/33/9 9/34/9 10/35/9 14/36/9
f 12/37/10 11/38/10 15/39/10 16/40/10
f 11/41/11 9/42/11 13/43/11 15/44/11
f 14/45/12 10/46/12 12/47/12 16/48/12
o cube
v 0.28125000000000006 1.0625 -0.21874999999999994
v -0.28124999999999994 1.0625 -0.21875000000000006
v 0.28125000000000006 1 -0.21874999999999994
v -0.28124999999999994 1 -0.21875000000000006
v 0.28125000000000006 1.0625 -0.15624999999999994
v -0.28124999999999994 1.0625 -0.15625000000000006
v 0.28125000000000006 1 -0.15624999999999994
v -0.28124999999999994 1 -0.15625000000000006
vt 0.5625 0.640625
vt 0.421875 0.640625
vt 0.421875 0.625
vt 0.5625 0.625
vt 0.5625 0.609375
vt 0.5625 0.625
vt 0.421875 0.625
vt 0.421875 0.609375
vt 0.046875 0.421875
vt 0.0625 0.421875
vt 0.0625 0.5625
vt 0.046875 0.5625
vt 0.078125 0.421875
vt 0.078125 0.5625
vt 0.0625 0.5625
vt 0.0625 0.421875
vt 0.28125 0.578125
vt 0.28125 0.59375
vt 0.265625 0.59375
vt 0.265625 0.578125
vt 0.46875 0.875
vt 0.453125 0.875
vt 0.453125 0.859375
vt 0.46875 0.859375
vn 2.220446049250313e-16 0 -1
vn -2.220446049250313e-16 0 1
vn 0 1 0
vn 0 -1 0
vn 1 0 2.220446049250313e-16
vn -1 0 -2.220446049250313e-16
usemtl m_991d26a9-f65c-4887-601f-6b5cfd65f4d1
f 18/49/13 17/50/13 19/51/13 20/52/13
f 23/53/14 21/54/14 22/55/14 24/56/14
f 21/57/15 17/58/15 18/59/15 22/60/15
f 20/61/16 19/62/16 23/63/16 24/64/16
f 19/65/17 17/66/17 21/67/17 23/68/17
f 22/69/18 18/70/18 20/71/18 24/72/18
o cube
v 0.21875 1.0625 0.28125
v 0.21875 1.0625 -0.28125
v 0.21875 1 0.28125
v 0.21875 1 -0.28125
v 0.15625 1.0625 0.28125
v 0.15625 1.0625 -0.28125
v 0.15625 1 0.28125
v 0.15625 1 -0.28125
vt 0.5625 0.609375
vt 0.421875 0.609375
vt 0.421875 0.59375
vt 0.5625 0.59375
vt 0.5625 0.578125
vt 0.5625 0.59375
vt 0.421875 0.59375
vt 0.421875 0.578125
vt 0.078125 0.421875
vt 0.09375 0.421875
vt 0.09375 0.5625
vt 0.078125 0.5625
vt 0.109375 0.421875
vt 0.109375 0.5625
vt 0.09375 0.5625
vt 0.09375 0.421875
vt 0.171875 0.53125
vt 0.171875 0.546875
vt 0.15625 0.546875
vt 0.15625 0.53125
vt 0.1875 0.546875
vt 0.171875 0.546875
vt 0.171875 0.53125
vt 0.1875 0.53125
vn 1 0 0
vn -1 0 0
vn 0 1 0
vn 0 -1 0
vn 0 0 1
vn 0 0 -1
usemtl m_991d26a9-f65c-4887-601f-6b5cfd65f4d1
f 26/73/19 25/74/19 27/75/19 28/76/19
f 31/77/20 29/78/20 30/79/20 32/80/20
f 29/81/21 25/82/21 26/83/21 30/84/21
f 28/85/22 27/86/22 31/87/22 32/88/22
f 27/89/23 25/90/23 29/91/23 31/92/23
f 30/93/24 26/94/24 28/95/24 32/96/24
o cube
v -0.15625 1.0625 0.28125
v -0.15625 1.0625 -0.28125
v -0.15625 1 0.28125
v -0.15625 1 -0.28125
v -0.21875 1.0625 0.28125
v -0.21875 1.0625 -0.28125
v -0.21875 1 0.28125
v -0.21875 1 -0.28125
vt 0.25 0.5625
vt 0.109375 0.5625
vt 0.109375 0.546875
vt 0.25 0.546875
vt 0.578125 0.84375
vt 0.578125 0.859375
vt 0.4375 0.859375
vt 0.4375 0.84375
vt 0.25 0.421875
vt 0.265625 0.421875
vt 0.265625 0.5625
vt 0.25 0.5625
vt 0.28125 0.421875
vt 0.28125 0.5625
vt 0.265625 0.5625
vt 0.265625 0.421875
vt 0.203125 0.53125
vt 0.203125 0.546875
vt 0.1875 0.546875
vt 0.1875 0.53125
vt 0.21875 0.546875
vt 0.203125 0.546875
vt 0.203125 0.53125
vt 0.21875 0.53125
vn 1 0 0
vn -1 0 0
vn 0 1 0
vn 0 -1 0
vn 0 0 1
vn 0 0 -1
usemtl m_991d26a9-f65c-4887-601f-6b5cfd65f4d1
f 34/97/25 33/98/25 35/99/25 36/100/25
f 39/101/26 37/102/26 38/103/26 40/104/26
f 37/105/27 33/106/27 34/107/27 38/108/27
f 36/109/28 35/110/28 39/111/28 40/112/28
f 35/113/29 33/114/29 37/115/29 39/116/29
f 38/117/30 34/118/30 36/119/30 40/120/30
o cube
v 0.28124999999999994 1.0625 0.15625000000000006
v -0.28125000000000006 1.0625 0.15624999999999994
v 0.28124999999999994 1 0.15625000000000006
v -0.28125000000000006 1 0.15624999999999994
v 0.28124999999999994 1.0625 0.21875000000000006
v -0.28125000000000006 1.0625 0.21874999999999994
v 0.28124999999999994 1 0.21875000000000006
v -0.28125000000000006 1 0.21874999999999994
vt 0.578125 0.84375
vt 0.4375 0.84375
vt 0.4375 0.828125
vt 0.578125 0.828125
vt 0.578125 0.8125
vt 0.578125 0.828125
vt 0.4375 0.828125
vt 0.4375 0.8125
vt 0.28125 0.421875
vt 0.296875 0.421875
vt 0.296875 0.5625
vt 0.28125 0.5625
vt 0.3125 0.421875
vt 0.3125 0.5625
vt 0.296875 0.5625
vt 0.296875 0.421875
vt 0.234375 0.53125
vt 0.234375 0.546875
vt 0.21875 0.546875
vt 0.21875 0.53125
vt 0.25 0.546875
vt 0.234375 0.546875
vt 0.234375 0.53125
vt 0.25 0.53125
vn 2.220446049250313e-16 0 -1
vn -2.220446049250313e-16 0 1
vn 0 1 0
vn 0 -1 0
vn 1 0 2.220446049250313e-16
vn -1 0 -2.220446049250313e-16
usemtl m_991d26a9-f65c-4887-601f-6b5cfd65f4d1
f 42/121/31 41/122/31 43/123/31 44/124/31
f 47/125/32 45/126/32 46/127/32 48/128/32
f 45/129/33 41/130/33 42/131/33 46/132/33
f 44/133/34 43/134/34 47/135/34 48/136/34
f 43/137/35 41/138/35 45/139/35 47/140/35
f 46/141/36 42/142/36 44/143/36 48/144/36
o cube
v 0.1875 1.4375 0.1875
v 0.1875 1.4375 -0.1875
v 0.1875 1.0625 0.1875
v 0.1875 1.0625 -0.1875
v -0.1875 1.4375 0.1875
v -0.1875 1.4375 -0.1875
v -0.1875 1.0625 0.1875
v -0.1875 1.0625 -0.1875
vt 1 0.3125
vt 0.6875 0.3125
vt 0.6875 0
vt 1 0
vt 1 0
vt 1 0.3125
vt 0.6875 0.3125
vt 0.6875 0
vt 0 0.0625
vt 0.3125 0.0625
vt 0.3125 0.375
vt 0 0.375
vt 0.3125 0.0625
vt 0.3125 0.375
vt 0 0.375
vt 0 0.0625
vt 1 0
vt 1 0.3125
vt 0.6875 0.3125
vt 0.6875 0
vt 1 0.3125
vt 0.6875 0.3125
vt 0.6875 0
vt 1 0
vn 1 0 0
vn -1 0 0
vn 0 1 0
vn 0 -1 0
vn 0 0 1
vn 0 0 -1
usemtl m_991d26a9-f65c-4887-601f-6b5cfd65f4d1
f 50/145/37 49/146/37 51/147/37 52/148/37
f 55/149/38 53/150/38 54/151/38 56/152/38
f 53/153/39 49/154/39 50/155/39 54/156/39
f 52/157/40 51/158/40 55/159/40 56/160/40
f 51/161/41 49/162/41 53/163/41 55/164/41
f 54/165/42 50/166/42 52/167/42 56/168/42
o cube
v 0.25 1.4114583333333335 0.375
v 0.25 1.4114583333333335 -0.375
v 0.25 1.328125 0.375
v 0.25 1.328125 -0.375
v -0.25 1.4114583333333335 0.375
v -0.25 1.4114583333333335 -0.375
v -0.25 1.328125 0.375
v -0.25 1.328125 -0.375
v 0.25 1.578125 0
v -0.25 1.578125 0
v -0.25 1.4947916666666665 0
v 0.25 1.4947916666666665 0
v -0.25 1.453125 -0.1875
v 0.25 1.453125 -0.1875
v 0.25 1.3697916666666667 -0.1875
v -0.25 1.3697916666666667 -0.1875
v 0.25 1.453125 0.1875
v -0.25 1.453125 0.1875
v -0.25 1.3697916666666667 0.1875
v 0.25 1.3697916666666667 0.1875
vt 0.765625 0.7384440348183265
vt 0.765625 0.6821072961392017
vt 0.78125 0.6936632613208752
vt 0.78125 0.75
vt 1 0.71875
vt 0.9436632613208752 0.71875
vt 0.9321072961392017 0.703125
vt 0.9884440348183265 0.703125
vt 0.875 1
vt 0.875 0.9436625000000001
vt 1 0.9436625000000001
vt 1 1
vt 0.75 0.99498125
vt 0.75 0.93864375
vt 0.875 0.93864375
vt 0.875 0.99498125
vt 0.875 0.546875
vt 0.875 0.5625
vt 0.75 0.5625
vt 0.75 0.546875
vt 1 0.5625
vt 0.875 0.5625
vt 0.875 0.546875
vt 1 0.546875
vt 0.875 0.890625
vt 0.875 0.8342875000000001
vt 1 0.8342875000000001
vt 1 0.890625
vt 0.8539822961392017 0.6603190348183265
vt 0.8539822961392017 0.6039822961392017
vt 0.8696072961392017 0.6155382613208752
vt 0.8696072961392017 0.671875
vt 0.75 0.88560625
vt 0.75 0.82926875
vt 0.875 0.82926875
vt 0.875 0.88560625
vt 0.84375 0.671875
vt 0.7874132613208751 0.671875
vt 0.7758572961392017 0.65625
vt 0.8321940348183265 0.65625
vt 1 0.8956437500000001
vt 1 0.9436625000000001
vt 0.875 0.9436625000000001
vt 0.875 0.8956437500000001
vt 0.8852322961392017 0.6238564262976277
vt 0.8852322961392017 0.671875
vt 0.8696072961392017 0.6673555131174873
vt 0.8696072961392017 0.619336939415115
vt 0.875 0.890625
vt 0.875 0.93864375
vt 0.75 0.93864375
vt 0.75 0.890625
vt 0.765625 0.640625
vt 0.8136435737023723 0.640625
vt 0.818163060584885 0.65625
vt 0.7701444868825127 0.65625
vt 1 0.7862687500000001
vt 1 0.8342875000000001
vt 0.875 0.8342875000000001
vt 0.875 0.7862687500000001
vt 0.9008572961392017 0.6238564262976277
vt 0.9008572961392017 0.671875
vt 0.8852322961392017 0.6673555131174873
vt 0.8852322961392017 0.619336939415115
vt 0.875 0.78125
vt 0.875 0.82926875
vt 0.75 0.82926875
vt 0.75 0.78125
vt 0.7755869394151149 0.625
vt 0.8236055131174872 0.625
vt 0.828125 0.640625
vt 0.7801064262976277 0.640625
vn 1 0 0
vn -1 0 0
vn 0 0.8320502943378437 -0.5547001962252291
vn 0 -0.8320502943378442 0.5547001962252285
vn 0 0 1
vn 0 0 -1
vn 0 0.8320502943378437 0.5547001962252291
vn -1 0 0
vn 0 -0.8320502943378442 -0.5547001962252285
vn 1 0 0
vn 0 0.9761870601839531 -0.21693045781865547
vn 1 0 0
vn 0 -0.9761870601839528 0.21693045781865658
vn -1 0 0
vn 0 0.9761870601839531 0.21693045781865547
vn -1 0 0
vn 0 -0.9761870601839528 -0.21693045781865658
vn 1 0 0
usemtl m_991d26a9-f65c-4887-601f-6b5cfd65f4d1
f 68/169/43 71/170/43 70/171/43 65/172/43
f 66/173/44 69/174/44 72/175/44 67/176/44
f 65/177/45 70/178/45 69/179/45 66/180/45
f 67/181/46 72/182/46 71/183/46 68/184/46
f 59/185/47 57/186/47 61/187/47 63/188/47
f 62/189/48 58/190/48 60/191/48 64/192/48
f 66/193/49 74/194/49 73/195/49 65/196/49
f 67/197/50 75/198/50 74/199/50 66/200/50
f 68/201/51 76/202/51 75/203/51 67/204/51
f 65/205/52 73/206/52 76/207/52 68/208/52
f 62/209/53 69/210/53 70/211/53 58/212/53
f 58/213/54 70/214/54 71/215/54 60/216/54
f 60/217/55 71/218/55 72/219/55 64/220/55
f 64/221/56 72/222/56 69/223/56 62/224/56
f 57/225/57 73/226/57 74/227/57 61/228/57
f 61/229/58 74/230/58 75/231/58 63/232/58
f 63/233/59 75/234/59 76/235/59 59/236/59
f 59/237/60 76/238/60 73/239/60 57/240/60
o cube
v 0.09375 1.0625 0.09375
v 0.09375 1.0625 -0.09375
v 0.09375 0.1875 0.09375
v 0.09375 0.1875 -0.09375
v -0.09375 1.0625 0.09375
v -0.09375 1.0625 -0.09375
v -0.09375 0.1875 0.09375
v -0.09375 0.1875 -0.09375
vt 0.046875 0.78125
vt 0 0.78125
vt 0 0.5625
vt 0.046875 0.5625
vt 0.09375 0.5625
vt 0.09375 0.78125
vt 0.046875 0.78125
vt 0.046875 0.5625
vt 0.375 0.625
vt 0.421875 0.625
vt 0.421875 0.671875
vt 0.375 0.671875
vt 0.421875 0.578125
vt 0.421875 0.625
vt 0.375 0.625
vt 0.375 0.578125
vt 0.140625 0.5625
vt 0.140625 0.78125
vt 0.09375 0.78125
vt 0.09375 0.5625
vt 0.1875 0.78125
vt 0.140625 0.78125
vt 0.140625 0.5625
vt 0.1875 0.5625
vn 1 0 0
vn -1 0 0
vn 0 1 0
vn 0 -1 0
vn 0 0 1
vn 0 0 -1
usemtl m_991d26a9-f65c-4887-601f-6b5cfd65f4d1
f 78/241/61 77/242/61 79/243/61 80/244/61
f 83/245/62 81/246/62 82/247/62 84/248/62
f 81/249/63 77/250/63 78/251/63 82/252/63
f 80/253/64 79/254/64 83/255/64 84/256/64
f 79/257/65 77/258/65 81/259/65 83/260/65
f 82/261/66 78/262/66 80/263/66 84/264/66
o cube
v 0.1875 0.1875 0.1875
v 0.1875 0.1875 -0.1875
v 0.1875 0 0.1875
v 0.1875 0 -0.1875
v -0.1875 0.1875 0.1875
v -0.1875 0.1875 -0.1875
v -0.1875 0 0.1875
v -0.1875 0 -0.1875
vt 1 0.8125
vt 0.90625 0.8125
vt 0.90625 0.765625
vt 1 0.765625
vt 1 0.71875
vt 1 0.765625
vt 0.90625 0.765625
vt 0.90625 0.71875
vt 0.78125 0.8125
vt 0.875 0.8125
vt 0.875 0.90625
vt 0.78125 0.90625
vt 0.875 0.90625
vt 0.875 1
vt 0.78125 1
vt 0.78125 0.90625
vt 1 0.828125
vt 1 0.875
vt 0.90625 0.875
vt 0.90625 0.828125
vt 1 0.71875
vt 0.90625 0.71875
vt 0.90625 0.671875
vt 1 0.671875
vn 1 0 0
vn -1 0 0
vn 0 1 0
vn 0 -1 0
vn 0 0 1
vn 0 0 -1
usemtl m_991d26a9-f65c-4887-601f-6b5cfd65f4d1
f 86/265/67 85/266/67 87/267/67 88/268/67
f 91/269/68 89/270/68 90/271/68 92/272/68
f 89/273/69 85/274/69 86/275/69 90/276/69
f 88/277/70 87/278/70 91/279/70 92/280/70
f 87/281/71 85/282/71 89/283/71 91/284/71
f 90/285/72 86/286/72 88/287/72 92/288/72