# Made in Blockbench 4.7.2
mtllib ShrineFlagsThreeWay.mtl

o cube
v 0.1875 0.1875 0.1875
v 0.1875 0.1875 -0.1875
v 0.1875 0 0.1875
v 0.1875 0 -0.1875
v -0.1875 0.1875 0.1875
v -0.1875 0.1875 -0.1875
v -0.1875 0 0.1875
v -0.1875 0 -0.1875
vt 0.9375 1
vt 0.84375 1
vt 0.84375 0.953125
vt 0.9375 0.953125
vt 0.9375 0.890625
vt 0.9375 0.9375
vt 0.84375 0.9375
vt 0.84375 0.890625
vt 0.796875 0.6875
vt 0.890625 0.6875
vt 0.890625 0.78125
vt 0.796875 0.78125
vt 1 0.6875
vt 1 0.78125
vt 0.90625 0.78125
vt 0.90625 0.6875
vt 0.9375 0.828125
vt 0.9375 0.875
vt 0.84375 0.875
vt 0.84375 0.828125
vt 0.9375 0.8125
vt 0.84375 0.8125
vt 0.84375 0.765625
vt 0.9375 0.765625
vn 1 0 0
vn -1 0 0
vn 0 1 0
vn 0 -1 0
vn 0 0 1
vn 0 0 -1
usemtl m_5bd72383-dfff-bb0d-1f47-794e6fa8dabe
f 2/1/1 1/2/1 3/3/1 4/4/1
f 7/5/2 5/6/2 6/7/2 8/8/2
f 5/9/3 1/10/3 2/11/3 6/12/3
f 4/13/4 3/14/4 7/15/4 8/16/4
f 3/17/5 1/18/5 5/19/5 7/20/5
f 6/21/6 2/22/6 4/23/6 8/24/6
o cube
v 0.078125 2.4375 0.078125
v 0.078125 2.4375 -0.078125
v 0.078125 0.1875 0.078125
v 0.078125 0.1875 -0.078125
v -0.078125 2.4375 0.078125
v -0.078125 2.4375 -0.078125
v -0.078125 0.1875 0.078125
v -0.078125 0.1875 -0.078125
vt 0.046875 1
vt 0 1
vt 0 0.4375
vt 0.046875 0.4375
vt 0.109375 0.4375
vt 0.109375 1
vt 0.0625 1
vt 0.0625 0.4375
vt 0.140625 0.375
vt 0.1875 0.375
vt 0.1875 0.421875
vt 0.140625 0.421875
vt 0.25 0.359375
vt 0.25 0.40625
vt 0.203125 0.40625
vt 0.203125 0.359375
vt 0.171875 0.4375
vt 0.171875 1
vt 0.125 1
vt 0.125 0.4375
vt 0.234375 1
vt 0.1875 1
vt 0.1875 0.4375
vt 0.234375 0.4375
vn 1 0 0
vn -1 0 0
vn 0 1 0
vn 0 -1 0
vn 0 0 1
vn 0 0 -1
usemtl m_5bd72383-dfff-bb0d-1f47-794e6fa8dabe
f 10/25/7 9/26/7 11/27/7 12/28/7
f 15/29/8 13/30/8 14/31/8 16/32/8
f 13/33/9 9/34/9 10/35/9 14/36/9
f 12/37/10 11/38/10 15/39/10 16/40/10
f 11/41/11 9/42/11 13/43/11 15/44/11
f 14/45/12 10/46/12 12/47/12 16/48/12
o cube
v 0.125 2.5625 0.125
v 0.125 2.5625 -0.125
v 0.125 2.3125 0.125
v 0.125 2.3125 -0.125
v -0.125 2.5625 0.125
v -0.125 2.5625 -0.125
v -0.125 2.3125 0.125
v -0.125 2.3125 -0.125
vt 0.96875 0.9375
vt 0.90625 0.9375
vt 0.90625 0.875
vt 0.96875 0.875
vt 0.96875 0.796875
vt 0.96875 0.859375
vt 0.90625 0.859375
vt 0.90625 0.796875
vt 0.90625 0.71875
vt 0.96875 0.71875
vt 0.96875 0.78125
vt 0.90625 0.78125
vt 0.96875 0.640625
vt 0.96875 0.703125
vt 0.90625 0.703125
vt 0.90625 0.640625
vt 0.921875 0.546875
vt 0.921875 0.609375
vt 0.859375 0.609375
vt 0.859375 0.546875
vt 1 0.609375
vt 0.9375 0.609375
vt 0.9375 0.546875
vt 1 0.546875
vn 1 0 0
vn -1 0 0
vn 0 1 0
vn 0 -1 0
vn 0 0 1
vn 0 0 -1
usemtl m_5bd72383-dfff-bb0d-1f47-794e6fa8dabe
f 18/49/13 17/50/13 19/51/13 20/52/13
f 23/53/14 21/54/14 22/55/14 24/56/14
f 21/57/15 17/58/15 18/59/15 22/60/15
f 20/61/16 19/62/16 23/63/16 24/64/16
f 19/65/17 17/66/17 21/67/17 23/68/17
f 22/69/18 18/70/18 20/71/18 24/72/18
o cube
v 0.03125 2.46875 -0.125
v 0.03125 2.40625 -0.5
v 0.03125 2.40625 -0.125
v 0.03125 2.34375 -0.5
v -0.03125 2.46875 -0.125
v -0.03125 2.40625 -0.5
v -0.03125 2.40625 -0.125
v -0.03125 2.34375 -0.5
v 0.03125 2.421875 -0.3125
v -0.03125 2.421875 -0.3125
v -0.03125 2.359375 -0.3125
v 0.03125 2.359375 -0.3125
vt 0.875 0.34375
vt 0.828125 0.34765625
vt 0.828125 0.33203125
vt 0.875 0.328125
vt 0.78125 0.328125
vt 0.828125 0.33203125
vt 0.828125 0.34765625
vt 0.78125 0.34375
vt 0.984375 0.328125
vt 0.9765625 0.35793125000000003
vt 0.9609375 0.35793125000000003
vt 0.96875 0.328125
vt 0.96875 0.328125
vt 0.9609375 0.35953749999999995
vt 0.9453125 0.35953749999999995
vt 0.953125 0.328125
vt 0.921875 0.34375
vt 0.921875 0.359375
vt 0.90625 0.359375
vt 0.90625 0.34375
vt 0.921875 0.34375
vt 0.90625 0.34375
vt 0.90625 0.328125
vt 0.921875 0.328125
vt 0.9453125 0.359375
vt 0.953125 0.328125
vt 0.96875 0.328125
vt 0.9609375 0.359375
vt 0.875 0.359375
vt 0.828125 0.34765625
vt 0.828125 0.33203125
vt 0.875 0.34375
vt 0.9609375 0.3609796875
vt 0.96875 0.328125
vt 0.984375 0.328125
vt 0.9765625 0.3609796875
vt 0.78125 0.34375
vt 0.828125 0.33203125
vt 0.828125 0.34765625
vt 0.78125 0.359375
vn 1 0 0
vn -1 0 0
vn 0 0.9965457582448798 -0.08304547985373999
vn 0 -0.9965457582448798 0.08304547985373999
vn 0 0 1
vn 0 0 -1
vn 0 0.970142500145332 -0.242535625036333
vn -1 0 0
vn 0 -0.970142500145332 0.242535625036333
vn 1 0 0
usemtl m_5bd72383-dfff-bb0d-1f47-794e6fa8dabe
f 26/73/19 33/74/19 36/75/19 28/76/19
f 32/77/20 35/78/20 34/79/20 30/80/20
f 30/81/21 34/82/21 33/83/21 26/84/21
f 28/85/22 36/86/22 35/87/22 32/88/22
f 27/89/23 25/90/23 29/91/23 31/92/23
f 30/93/24 26/94/24 28/95/24 32/96/24
f 25/97/25 33/98/25 34/99/25 29/100/25
f 29/101/26 34/102/26 35/103/26 31/104/26
f 31/105/27 35/106/27 36/107/27 27/108/27
f 27/109/28 36/110/28 33/111/28 25/112/28
o cube
v 0.125 2.46875 0.031249999999999972
v 0.5 2.40625 0.03124999999999989
v 0.125 2.40625 0.031249999999999972
v 0.5 2.34375 0.03124999999999989
v 0.125 2.46875 -0.03125000000000003
v 0.5 2.40625 -0.03125000000000011
v 0.125 2.40625 -0.03125000000000003
v 0.5 2.34375 -0.03125000000000011
v 0.3125 2.421875 0.03124999999999993
v 0.3125 2.421875 -0.03125000000000007
v 0.3125 2.359375 -0.03125000000000007
v 0.3125 2.359375 0.03124999999999993
vt 0.875 0.34375
vt 0.828125 0.34765625
vt 0.828125 0.33203125
vt 0.875 0.328125
vt 0.78125 0.328125
vt 0.828125 0.33203125
vt 0.828125 0.34765625
vt 0.78125 0.34375
vt 0.984375 0.328125
vt 0.9765625 0.35793125000000003
vt 0.9609375 0.35793125000000003
vt 0.96875 0.328125
vt 0.96875 0.328125
vt 0.9609375 0.35953749999999995
vt 0.9453125 0.35953749999999995
vt 0.953125 0.328125
vt 0.921875 0.34375
vt 0.921875 0.359375
vt 0.90625 0.359375
vt 0.90625 0.34375
vt 0.921875 0.34375
vt 0.90625 0.34375
vt 0.90625 0.328125
vt 0.921875 0.328125
vt 0.9453125 0.359375
vt 0.953125 0.328125
vt 0.96875 0.328125
vt 0.9609375 0.359375
vt 0.875 0.359375
vt 0.828125 0.34765625
vt 0.828125 0.33203125
vt 0.875 0.34375
vt 0.9609375 0.3609796875
vt 0.96875 0.328125
vt 0.984375 0.328125
vt 0.9765625 0.3609796875
vt 0.78125 0.34375
vt 0.828125 0.33203125
vt 0.828125 0.34765625
vt 0.78125 0.359375
vn 2.220446049250313e-16 0 1
vn -2.220446049250313e-16 0 -1
vn 0.08304547985373999 0.9965457582448798 -1.8439800764933342e-17
vn -0.08304547985373999 -0.9965457582448798 1.8439800764933342e-17
vn -1 0 2.220446049250313e-16
vn 1 0 -2.220446049250313e-16
vn 0.242535625036333 0.970142500145332 -5.385372704143809e-17
vn -2.220446049250313e-16 0 -1
vn -0.242535625036333 -0.970142500145332 5.385372704143809e-17
vn 2.220446049250313e-16 0 1
usemtl m_5bd72383-dfff-bb0d-1f47-794e6fa8dabe
f 38/113/29 45/114/29 48/115/29 40/116/29
f 44/117/30 47/118/30 46/119/30 42/120/30
f 42/121/31 46/122/31 45/123/31 38/124/31
f 40/125/32 48/126/32 47/127/32 44/128/32
f 39/129/33 37/130/33 41/131/33 43/132/33
f 42/133/34 38/134/34 40/135/34 44/136/34
f 37/137/35 45/138/35 46/139/35 41/140/35
f 41/141/36 46/142/36 47/143/36 43/144/36
f 43/145/37 47/146/37 48/147/37 39/148/37
f 39/149/38 48/150/38 45/151/38 37/152/38
o cube
v -0.125 2.46875 -0.03125000000000003
v -0.5 2.40625 -0.03125000000000011
v -0.125 2.40625 -0.03125000000000003
v -0.5 2.34375 -0.03125000000000011
v -0.125 2.46875 0.031249999999999972
v -0.5 2.40625 0.03124999999999989
v -0.125 2.40625 0.031249999999999972
v -0.5 2.34375 0.03124999999999989
v -0.3125 2.421875 -0.03125000000000007
v -0.3125 2.421875 0.03124999999999993
v -0.3125 2.359375 0.03124999999999993
v -0.3125 2.359375 -0.03125000000000007
vt 0.875 0.34375
vt 0.828125 0.34765625
vt 0.828125 0.33203125
vt 0.875 0.328125
vt 0.78125 0.328125
vt 0.828125 0.33203125
vt 0.828125 0.34765625
vt 0.78125 0.34375
vt 0.984375 0.328125
vt 0.9765625 0.35793125000000003
vt 0.9609375 0.35793125000000003
vt 0.96875 0.328125
vt 0.96875 0.328125
vt 0.9609375 0.35953749999999995
vt 0.9453125 0.35953749999999995
vt 0.953125 0.328125
vt 0.921875 0.34375
vt 0.921875 0.359375
vt 0.90625 0.359375
vt 0.90625 0.34375
vt 0.921875 0.34375
vt 0.90625 0.34375
vt 0.90625 0.328125
vt 0.921875 0.328125
vt 0.9453125 0.359375
vt 0.953125 0.328125
vt 0.96875 0.328125
vt 0.9609375 0.359375
vt 0.875 0.359375
vt 0.828125 0.34765625
vt 0.828125 0.33203125
vt 0.875 0.34375
vt 0.9609375 0.3609796875
vt 0.96875 0.328125
vt 0.984375 0.328125
vt 0.9765625 0.3609796875
vt 0.78125 0.34375
vt 0.828125 0.33203125
vt 0.828125 0.34765625
vt 0.78125 0.359375
vn 2.220446049250313e-16 0 -1
vn -2.220446049250313e-16 0 1
vn -0.08304547985373999 0.9965457582448798 -1.8439800764933342e-17
vn 0.08304547985373999 -0.9965457582448798 1.8439800764933342e-17
vn 1 0 2.220446049250313e-16
vn -1 0 -2.220446049250313e-16
vn -0.242535625036333 0.970142500145332 -5.385372704143809e-17
vn -2.220446049250313e-16 0 1
vn 0.242535625036333 -0.970142500145332 5.385372704143809e-17
vn 2.220446049250313e-16 0 -1
usemtl m_5bd72383-dfff-bb0d-1f47-794e6fa8dabe
f 50/153/39 57/154/39 60/155/39 52/156/39
f 56/157/40 59/158/40 58/159/40 54/160/40
f 54/161/41 58/162/41 57/163/41 50/164/41
f 52/165/42 60/166/42 59/167/42 56/168/42
f 51/169/43 49/170/43 53/171/43 55/172/43
f 54/173/44 50/174/44 52/175/44 56/176/44
f 49/177/45 57/178/45 58/179/45 53/180/45
f 53/181/46 58/182/46 59/183/46 55/184/46
f 55/185/47 59/186/47 60/187/47 51/188/47
f 51/189/48 60/190/48 57/191/48 49/192/48