# Made in Blockbench 4.7.2
mtllib GardenFountain.mtl

o cube
v 0.24305555555555558 0.875 0.4375
v 0.24305555555555558 0.875 -0.4375
v 0.24305555555555558 0.625 -0.4375
v 0.24305555555555558 0.625 0.4375
v -0.24305555555555558 0.875 0.4375
v -0.24305555555555558 0.875 -0.4375
v -0.24305555555555558 0.625 -0.4375
v -0.24305555555555558 0.625 0.4375
v -0.24305555555555558 0.875 0.24305555555555558
v 0.24305555555555558 0.875 0.24305555555555558
v 0.4375 0.875 0.24305555555555558
v 0.4375 0.625 0.24305555555555558
v 0.24305555555555558 0.625 0.24305555555555558
v -0.24305555555555558 0.625 0.24305555555555558
v -0.4375 0.625 0.24305555555555558
v -0.4375 0.875 0.24305555555555558
v -0.24305555555555558 0.875 -0.24305555555555558
v 0.24305555555555558 0.875 -0.24305555555555558
v 0.4375 0.875 -0.24305555555555558
v 0.4375 0.625 -0.24305555555555558
v 0.24305555555555558 0.625 -0.24305555555555558
v -0.24305555555555558 0.625 -0.24305555555555558
v -0.4375 0.625 -0.24305555555555558
v -0.4375 0.875 -0.24305555555555558
vt 0.13194453125 0.84375
vt 0.13194453125 0.86805546875
vt 0.07118046875 0.86805546875
vt 0.07118046875 0.84375
vt 0.1640625 0.6796875
vt 0.2265625 0.6796875
vt 0.2265625 0.7109375
vt 0.1640625 0.7109375
vt 0.30555546875 0.71875
vt 0.30555546875 0.69444453125
vt 0.36631953125 0.69444453125
vt 0.36631953125 0.71875
vt 0.2265625 0.671875
vt 0.1640625 0.671875
vt 0.1640625 0.640625
vt 0.2265625 0.640625
vt 0.13194453125 0.86805546875
vt 0.13194453125 0.92881953125
vt 0.07118046875 0.92881953125
vt 0.07118046875 0.86805546875
vt 0.15625 0.86805546875
vt 0.15625 0.92881953125
vt 0.13194453125 0.92881953125
vt 0.13194453125 0.86805546875
vt 0.6328125 0.4296875
vt 0.6953125 0.4296875
vt 0.6953125 0.4609375
vt 0.6328125 0.4609375
vt 0.36631953125 0.69444453125
vt 0.36631953125 0.63368046875
vt 0.390625 0.63368046875
vt 0.390625 0.69444453125
vt 0.30555546875 0.69444453125
vt 0.30555546875 0.63368046875
vt 0.36631953125 0.63368046875
vt 0.36631953125 0.69444453125
vt 0.28125 0.69444453125
vt 0.28125 0.63368046875
vt 0.30555546875 0.63368046875
vt 0.30555546875 0.69444453125
vt 0.6015625 0.3515625
vt 0.5390625 0.3515625
vt 0.5390625 0.3203125
vt 0.6015625 0.3203125
vt 0.07118046875 0.86805546875
vt 0.07118046875 0.92881953125
vt 0.046875 0.92881953125
vt 0.046875 0.86805546875
vt 0.07118046875 0.953125
vt 0.07118046875 0.92881953125
vt 0.13194453125 0.92881953125
vt 0.13194453125 0.953125
vt 0.36631953125 0.609375
vt 0.36631953125 0.63368046875
vt 0.30555546875 0.63368046875
vt 0.30555546875 0.609375
vt 0.36631953125 0.63368046875
vt 0.36631953125 0.609375
vt 0.390625 0.63368046875
vt 0.1640625 0.75
vt 0.1953125 0.75
vt 0.1953125 0.78125
vt 0.1640625 0.78125
vt 0.13194453125 0.92881953125
vt 0.15625 0.92881953125
vt 0.13194453125 0.953125
vt 0.30555546875 0.609375
vt 0.30555546875 0.63368046875
vt 0.28125 0.63368046875
vt 0.3984375 0.515625
vt 0.4296875 0.515625
vt 0.4296875 0.546875
vt 0.3984375 0.546875
vt 0.07118046875 0.92881953125
vt 0.07118046875 0.953125
vt 0.046875 0.92881953125
vt 0.28125 0.69444453125
vt 0.30555546875 0.69444453125
vt 0.30555546875 0.71875
vt 0.4765625 0.4765625
vt 0.4453125 0.4765625
vt 0.4453125 0.4453125
vt 0.4765625 0.4453125
vt 0.07118046875 0.84375
vt 0.07118046875 0.86805546875
vt 0.046875 0.86805546875
vt 0.36631953125 0.71875
vt 0.36631953125 0.69444453125
vt 0.390625 0.69444453125
vt 0.46875 0.34375
vt 0.4375 0.34375
vt 0.4375 0.3125
vt 0.46875 0.3125
vt 0.15625 0.86805546875
vt 0.13194453125 0.86805546875
vt 0.13194453125 0.84375
vn 0 1 0
vn 0 0 -1
vn 0 -1 0
vn 0 0 1
vn 0 1 0
vn 0 1 0
vn 1 0 0
vn 0 -1 0
vn 0 -1 0
vn 0 -1 0
vn -1 0 0
vn 0 1 0
vn 0 1 0
vn 0 -1 0
vn 0 -1 0
vn 0.7071067811865476 0 -0.7071067811865476
vn 0 1 0
vn 0 -1 0
vn -0.7071067811865476 0 -0.7071067811865476
vn 0 1 0
vn 0 -1 0
vn -0.7071067811865476 0 0.7071067811865476
vn 0 1 0
vn 0 -1 0
vn 0.7071067811865476 0 0.7071067811865476
vn 0 1 0
usemtl m_51d1becb-3725-b960-d944-3f96bf77a3d1
f 1/1/1 10/2/1 9/3/1 5/4/1
f 3/5/2 7/6/2 6/7/2 2/8/2
f 8/9/3 14/10/3 13/11/3 4/12/3
f 1/13/4 5/14/4 8/15/4 4/16/4
f 10/17/5 18/18/5 17/19/5 9/20/5
f 11/21/6 19/22/6 18/23/6 10/24/6
f 12/25/7 20/26/7 19/27/7 11/28/7
f 13/29/8 21/30/8 20/31/8 12/32/8
f 14/33/9 22/34/9 21/35/9 13/36/9
f 15/37/10 23/38/10 22/39/10 14/40/10
f 16/41/11 24/42/11 23/43/11 15/44/11
f 9/45/12 17/46/12 24/47/12 16/48/12
f 6/49/13 17/50/13 18/51/13 2/52/13
f 3/53/14 21/54/14 22/55/14 7/56/14
f 21/57/15 3/58/15 20/59/15
f 20/60/16 3/61/16 2/62/16 19/63/16
f 18/64/17 19/65/17 2/66/17
f 7/67/18 22/68/18 23/69/18
f 7/70/19 23/71/19 24/72/19 6/73/19
f 17/74/20 6/75/20 24/76/20
f 15/77/21 14/78/21 8/79/21
f 5/80/22 16/81/22 15/82/22 8/83/22
f 5/84/23 9/85/23 16/86/23
f 4/87/24 13/88/24 12/89/24
f 11/90/25 1/91/25 4/92/25 12/93/25
f 11/94/26 10/95/26 1/96/26
o cube
v 0.17361111111111113 1.5 0.3125
v 0.17361111111111113 1.5 -0.3125
v 0.17361111111111113 1.25 -0.3125
v 0.17361111111111113 1.25 0.3125
v -0.17361111111111113 1.5 0.3125
v -0.17361111111111113 1.5 -0.3125
v -0.17361111111111113 1.25 -0.3125
v -0.17361111111111113 1.25 0.3125
v -0.17361111111111113 1.5 0.17361111111111113
v 0.17361111111111113 1.5 0.17361111111111113
v 0.3125 1.5 0.17361111111111113
v 0.3125 1.25 0.17361111111111113
v 0.17361111111111113 1.25 0.17361111111111113
v -0.17361111111111113 1.25 0.17361111111111113
v -0.3125 1.25 0.17361111111111113
v -0.3125 1.5 0.17361111111111113
v -0.17361111111111113 1.5 -0.17361111111111113
v 0.17361111111111113 1.5 -0.17361111111111113
v 0.3125 1.5 -0.17361111111111113
v 0.3125 1.25 -0.17361111111111113
v 0.17361111111111113 1.25 -0.17361111111111113
v -0.17361111111111113 1.25 -0.17361111111111113
v -0.3125 1.25 -0.17361111111111113
v -0.3125 1.5 -0.17361111111111113
vt 0.2248265625 0.859375
vt 0.2248265625 0.8767359375
vt 0.1814234375 0.8767359375
vt 0.1814234375 0.859375
vt 0.4375 0.390625
vt 0.484375 0.390625
vt 0.484375 0.421875
vt 0.4375 0.421875
vt 0.4157984375 0.703125
vt 0.4157984375 0.6857640625
vt 0.4592015625 0.6857640625
vt 0.4592015625 0.703125
vt 0.484375 0.3828125
vt 0.4375 0.3828125
vt 0.4375 0.3515625
vt 0.484375 0.3515625
vt 0.2248265625 0.8767359375
vt 0.2248265625 0.9201390625
vt 0.1814234375 0.9201390625
vt 0.1814234375 0.8767359375
vt 0.2421875 0.8767359375
vt 0.2421875 0.9201390625
vt 0.2248265625 0.9201390625
vt 0.2248265625 0.8767359375
vt 0.609375 0.3203125
vt 0.65625 0.3203125
vt 0.65625 0.3515625
vt 0.609375 0.3515625
vt 0.4592015625 0.6857640625
vt 0.4592015625 0.6423609375
vt 0.4765625 0.6423609375
vt 0.4765625 0.6857640625
vt 0.4157984375 0.6857640625
vt 0.4157984375 0.6423609375
vt 0.4592015625 0.6423609375
vt 0.4592015625 0.6857640625
vt 0.3984375 0.6857640625
vt 0.3984375 0.6423609375
vt 0.4157984375 0.6423609375
vt 0.4157984375 0.6857640625
vt 0.703125 0.6328125
vt 0.65625 0.6328125
vt 0.65625 0.6015625
vt 0.703125 0.6015625
vt 0.1814234375 0.8767359375
vt 0.1814234375 0.9201390625
vt 0.1640625 0.9201390625
vt 0.1640625 0.8767359375
vt 0.1814234375 0.9375
vt 0.1814234375 0.9201390625
vt 0.2248265625 0.9201390625
vt 0.2248265625 0.9375
vt 0.4592015625 0.625
vt 0.4592015625 0.6423609375
vt 0.4157984375 0.6423609375
vt 0.4157984375 0.625
vt 0.4592015625 0.6423609375
vt 0.4592015625 0.625
vt 0.4765625 0.6423609375
vt 0.203125 0.7734375
vt 0.2265625 0.7734375
vt 0.2265625 0.8046875
vt 0.203125 0.8046875
vt 0.2248265625 0.9201390625
vt 0.2421875 0.9201390625
vt 0.2248265625 0.9375
vt 0.4157984375 0.625
vt 0.4157984375 0.6423609375
vt 0.3984375 0.6423609375
vt 0.4375 0.5390625
vt 0.4609375 0.5390625
vt 0.4609375 0.5703125
vt 0.4375 0.5703125
vt 0.1814234375 0.9201390625
vt 0.1814234375 0.9375
vt 0.1640625 0.9201390625
vt 0.3984375 0.6857640625
vt 0.4157984375 0.6857640625
vt 0.4157984375 0.703125
vt 0.6875 0.765625
vt 0.6640625 0.765625
vt 0.6640625 0.734375
vt 0.6875 0.734375
vt 0.1814234375 0.859375
vt 0.1814234375 0.8767359375
vt 0.1640625 0.8767359375
vt 0.4592015625 0.703125
vt 0.4592015625 0.6857640625
vt 0.4765625 0.6857640625
vt 0.6875 0.7265625
vt 0.6640625 0.7265625
vt 0.6640625 0.6953125
vt 0.6875 0.6953125
vt 0.2421875 0.8767359375
vt 0.2248265625 0.8767359375
vt 0.2248265625 0.859375
vn 0 1 0
vn 0 0 -1
vn 0 -1 0
vn 0 0 1
vn 0 1 0
vn 0 1 0
vn 1 0 0
vn 0 -1 0
vn 0 -1 0
vn 0 -1 0
vn -1 0 0
vn 0 1 0
vn 0 1 0
vn 0 -1 0
vn 0 -1 0
vn 0.7071067811865476 0 -0.7071067811865476
vn 0 1 0
vn 0 -1 0
vn -0.7071067811865476 0 -0.7071067811865476
vn 0 1 0
vn 0 -1 0
vn -0.7071067811865476 0 0.7071067811865476
vn 0 1 0
vn 0 -1 0
vn 0.7071067811865476 0 0.7071067811865476
vn 0 1 0
usemtl m_51d1becb-3725-b960-d944-3f96bf77a3d1
f 25/97/27 34/98/27 33/99/27 29/100/27
f 27/101/28 31/102/28 30/103/28 26/104/28
f 32/105/29 38/106/29 37/107/29 28/108/29
f 25/109/30 29/110/30 32/111/30 28/112/30
f 34/113/31 42/114/31 41/115/31 33/116/31
f 35/117/32 43/118/32 42/119/32 34/120/32
f 36/121/33 44/122/33 43/123/33 35/124/33
f 37/125/34 45/126/34 44/127/34 36/128/34
f 38/129/35 46/130/35 45/131/35 37/132/35
f 39/133/36 47/134/36 46/135/36 38/136/36
f 40/137/37 48/138/37 47/139/37 39/140/37
f 33/141/38 41/142/38 48/143/38 40/144/38
f 30/145/39 41/146/39 42/147/39 26/148/39
f 27/149/40 45/150/40 46/151/40 31/152/40
f 45/153/41 27/154/41 44/155/41
f 44/156/42 27/157/42 26/158/42 43/159/42
f 42/160/43 43/161/43 26/162/43
f 31/163/44 46/164/44 47/165/44
f 31/166/45 47/167/45 48/168/45 30/169/45
f 41/170/46 30/171/46 48/172/46
f 39/173/47 38/174/47 32/175/47
f 29/176/48 40/177/48 39/178/48 32/179/48
f 29/180/49 33/181/49 40/182/49
f 28/183/50 37/184/50 36/185/50
f 35/186/51 25/187/51 28/188/51 36/189/51
f 35/190/52 34/191/52 25/192/52
o cube
v 0.140625 1.4375 0.140625
v 0.140625 1.4375 -0.140625
v 0.140625 0.1875 0.140625
v 0.140625 0.1875 -0.140625
v -0.140625 1.4375 0.140625
v -0.140625 1.4375 -0.140625
v -0.140625 0.1875 0.140625
v -0.140625 0.1875 -0.140625
vt 0.53125 0.5
vt 0.4921875 0.5
vt 0.4921875 0.34375
vt 0.53125 0.34375
vt 0.296875 0.3203125
vt 0.296875 0.4765625
vt 0.2578125 0.4765625
vt 0.2578125 0.3203125
vt 0.203125 0.8125
vt 0.2421875 0.8125
vt 0.2421875 0.8515625
vt 0.203125 0.8515625
vt 0.4765625 0.578125
vt 0.4765625 0.6171875
vt 0.4375 0.6171875
vt 0.4375 0.578125
vt 0.5625 0.5859375
vt 0.5625 0.7421875
vt 0.5234375 0.7421875
vt 0.5234375 0.5859375
vt 0.34375 0.4765625
vt 0.3046875 0.4765625
vt 0.3046875 0.3203125
vt 0.34375 0.3203125
vn 1 0 0
vn -1 0 0
vn 0 1 0
vn 0 -1 0
vn 0 0 1
vn 0 0 -1
usemtl m_51d1becb-3725-b960-d944-3f96bf77a3d1
f 50/193/53 49/194/53 51/195/53 52/196/53
f 55/197/54 53/198/54 54/199/54 56/200/54
f 53/201/55 49/202/55 50/203/55 54/204/55
f 52/205/56 51/206/56 55/207/56 56/208/56
f 51/209/57 49/210/57 53/211/57 55/212/57
f 54/213/58 50/214/58 52/215/58 56/216/58
o cube
v 0.5555555555555556 0.25 1
v 0.5555555555555556 0.25 -1
v 0.5555555555555556 0 -1
v 0.5555555555555556 0 1
v -0.5555555555555556 0.25 1
v -0.5555555555555556 0.25 -1
v -0.5555555555555556 0 -1
v -0.5555555555555556 0 1
v -0.5555555555555556 0.25 0.5555555555555556
v 0.5555555555555556 0.25 0.5555555555555556
v 1 0.25 0.5555555555555556
v 1 0 0.5555555555555556
v 0.5555555555555556 0 0.5555555555555556
v -0.5555555555555556 0 0.5555555555555556
v -1 0 0.5555555555555556
v -1 0.25 0.5555555555555556
v -0.5555555555555556 0.25 -0.5555555555555556
v 0.5555555555555556 0.25 -0.5555555555555556
v 1 0.25 -0.5555555555555556
v 1 0 -0.5555555555555556
v 0.5555555555555556 0 -0.5555555555555556
v -0.5555555555555556 0 -0.5555555555555556
v -1 0 -0.5555555555555556
v -1 0.25 -0.5555555555555556
vt 0.94444453125 0.75
vt 0.94444453125 0.80555546875
vt 0.80555546875 0.80555546875
vt 0.80555546875 0.75
vt 0.7734375 0.8828125
vt 0.9140625 0.8828125
vt 0.9140625 0.9140625
vt 0.7734375 0.9140625
vt 0.80555546875 1
vt 0.80555546875 0.94444453125
vt 0.94444453125 0.94444453125
vt 0.94444453125 1
vt 0.9140625 0.953125
vt 0.7734375 0.953125
vt 0.7734375 0.921875
vt 0.9140625 0.921875
vt 0.94444453125 0.80555546875
vt 0.94444453125 0.94444453125
vt 0.80555546875 0.94444453125
vt 0.80555546875 0.80555546875
vt 1 0.80555546875
vt 1 0.94444453125
vt 0.94444453125 0.94444453125
vt 0.94444453125 0.80555546875
vt 0.7734375 0.8828125
vt 0.9140625 0.8828125
vt 0.9140625 0.9140625
vt 0.7734375 0.9140625
vt 0.94444453125 0.94444453125
vt 0.94444453125 0.80555546875
vt 1 0.80555546875
vt 1 0.94444453125
vt 0.80555546875 0.94444453125
vt 0.80555546875 0.80555546875
vt 0.94444453125 0.80555546875
vt 0.94444453125 0.94444453125
vt 0.75 0.94444453125
vt 0.75 0.80555546875
vt 0.80555546875 0.80555546875
vt 0.80555546875 0.94444453125
vt 0.9296875 0.875
vt 0.7890625 0.875
vt 0.7890625 0.84375
vt 0.9296875 0.84375
vt 0.80555546875 0.80555546875
vt 0.80555546875 0.94444453125
vt 0.75 0.94444453125
vt 0.75 0.80555546875
vt 0.80555546875 1
vt 0.80555546875 0.94444453125
vt 0.94444453125 0.94444453125
vt 0.94444453125 1
vt 0.94444453125 0.75
vt 0.94444453125 0.80555546875
vt 0.80555546875 0.80555546875
vt 0.80555546875 0.75
vt 0.94444453125 0.80555546875
vt 0.94444453125 0.75
vt 1 0.80555546875
vt 0.828125 0.8125
vt 0.90625 0.8125
vt 0.90625 0.84375
vt 0.828125 0.84375
vt 0.94444453125 0.94444453125
vt 1 0.94444453125
vt 0.94444453125 1
vt 0.80555546875 0.75
vt 0.80555546875 0.80555546875
vt 0.75 0.80555546875
vt 0.921875 0.8828125
vt 1 0.8828125
vt 1 0.9140625
vt 0.921875 0.9140625
vt 0.80555546875 0.94444453125
vt 0.80555546875 1
vt 0.75 0.94444453125
vt 0.75 0.94444453125
vt 0.80555546875 0.94444453125
vt 0.80555546875 1
vt 0.953125 0.859375
vt 0.875 0.859375
vt 0.875 0.828125
vt 0.953125 0.828125
vt 0.80555546875 0.75
vt 0.80555546875 0.80555546875
vt 0.75 0.80555546875
vt 0.94444453125 1
vt 0.94444453125 0.94444453125
vt 1 0.94444453125
vt 0.9296875 0.8671875
vt 0.8515625 0.8671875
vt 0.8515625 0.8359375
vt 0.9296875 0.8359375
vt 1 0.80555546875
vt 0.94444453125 0.80555546875
vt 0.94444453125 0.75
vn 0 1 0
vn 0 0 -1
vn 0 -1 0
vn 0 0 1
vn 0 1 0
vn 0 1 0
vn 1 0 0
vn 0 -1 0
vn 0 -1 0
vn 0 -1 0
vn -1 0 0
vn 0 1 0
vn 0 1 0
vn 0 -1 0
vn 0 -1 0
vn 0.7071067811865476 0 -0.7071067811865476
vn 0 1 0
vn 0 -1 0
vn -0.7071067811865476 0 -0.7071067811865476
vn 0 1 0
vn 0 -1 0
vn -0.7071067811865476 0 0.7071067811865476
vn 0 1 0
vn 0 -1 0
vn 0.7071067811865476 0 0.7071067811865476
vn 0 1 0
usemtl m_51d1becb-3725-b960-d944-3f96bf77a3d1
f 57/217/59 66/218/59 65/219/59 61/220/59
f 59/221/60 63/222/60 62/223/60 58/224/60
f 64/225/61 70/226/61 69/227/61 60/228/61
f 57/229/62 61/230/62 64/231/62 60/232/62
f 66/233/63 74/234/63 73/235/63 65/236/63
f 67/237/64 75/238/64 74/239/64 66/240/64
f 68/241/65 76/242/65 75/243/65 67/244/65
f 69/245/66 77/246/66 76/247/66 68/248/66
f 70/249/67 78/250/67 77/251/67 69/252/67
f 71/253/68 79/254/68 78/255/68 70/256/68
f 72/257/69 80/258/69 79/259/69 71/260/69
f 65/261/70 73/262/70 80/263/70 72/264/70
f 62/265/71 73/266/71 74/267/71 58/268/71
f 59/269/72 77/270/72 78/271/72 63/272/72
f 77/273/73 59/274/73 76/275/73
f 76/276/74 59/277/74 58/278/74 75/279/74
f 74/280/75 75/281/75 58/282/75
f 63/283/76 78/284/76 79/285/76
f 63/286/77 79/287/77 80/288/77 62/289/77
f 73/290/78 62/291/78 80/292/78
f 71/293/79 70/294/79 64/295/79
f 61/296/80 72/297/80 71/298/80 64/299/80
f 61/300/81 65/301/81 72/302/81
f 60/303/82 69/304/82 68/305/82
f 67/306/83 57/307/83 60/308/83 68/309/83
f 67/310/84 66/311/84 57/312/84
o cube
v 0.625 0.375 1.125
v 0.625 0.375 -1.125
v 0.625 0 -1.125
v 0.625 0 1.125
v -0.625 0.375 1.125
v -0.625 0.375 -1.125
v -0.625 0 -1.125
v -0.625 0 1.125
v 1.125 0.375 0.625
v 1.125 0 0.625
v -1.125 0 0.625
v -1.125 0.375 0.625
v 1.125 0.375 -0.625
v 1.125 0 -0.625
v -1.125 0 -0.625
v -1.125 0.375 -0.625
v 0.5555555555555556 0.375 1
v 0.5555555555555556 0.375 -1
v 0.5555555555555556 0 -1
v 0.5555555555555556 0 1
v -0.5555555555555556 0.375 1
v -0.5555555555555556 0.375 -1
v -0.5555555555555556 0 -1
v -0.5555555555555556 0 1
v 1 0.375 0.5555555555555556
v 1 0 0.5555555555555556
v -1 0 0.5555555555555556
v -1 0.375 0.5555555555555556
v 1 0.375 -0.5555555555555556
v 1 0 -0.5555555555555556
v -1 0 -0.5555555555555556
v -1 0.375 -0.5555555555555556
vt 0.0390625 0.7890625
vt 0.1953125 0.7890625
vt 0.1953125 0.8359375
vt 0.0390625 0.8359375
vt 0.15625 0.7109375
vt 0 0.7109375
vt 0 0.6640625
vt 0.15625 0.6640625
vt 0 0.609375
vt 0.15625 0.609375
vt 0.15625 0.65625
vt 0 0.65625
vt 0.4296875 0.6015625
vt 0.2734375 0.6015625
vt 0.2734375 0.5546875
vt 0.4296875 0.5546875
vt 0.3515625 0.4296875
vt 0.4375 0.4296875
vt 0.4375 0.4765625
vt 0.3515625 0.4765625
vt 0.5390625 0.4140625
vt 0.625 0.4140625
vt 0.625 0.4609375
vt 0.5390625 0.4609375
vt 0.65625 0.7421875
vt 0.5703125 0.7421875
vt 0.5703125 0.6953125
vt 0.65625 0.6953125
vt 0.65625 0.6875
vt 0.5703125 0.6875
vt 0.5703125 0.640625
vt 0.65625 0.640625
vt 0.421875 1
vt 0.421875 0.953125
vt 0.28125 0.953125
vt 0.28125 1
vt 0.2890625 0.8984375
vt 0.2890625 0.9453125
vt 0.4296875 0.9453125
vt 0.4296875 0.8984375
vt 0.4296875 0.890625
vt 0.4296875 0.84375
vt 0.2890625 0.84375
vt 0.2890625 0.890625
vt 0.2890625 0.7890625
vt 0.2890625 0.8359375
vt 0.4296875 0.8359375
vt 0.4296875 0.7890625
vt 0.6484375 0.6328125
vt 0.6484375 0.5859375
vt 0.5703125 0.5859375
vt 0.5703125 0.6328125
vt 0.4296875 0.421875
vt 0.4296875 0.375
vt 0.3515625 0.375
vt 0.3515625 0.421875
vt 0.5390625 0.359375
vt 0.5390625 0.40625
vt 0.6171875 0.40625
vt 0.6171875 0.359375
vt 0.625 0.359375
vt 0.625 0.40625
vt 0.703125 0.40625
vt 0.703125 0.359375
vt 0.21875 0.71875
vt 0.21006953125 0.734375
vt 0.07118046875 0.734375
vt 0.0625 0.71875
vt 0.28125 0.9375
vt 0.265625 0.92881953125
vt 0.265625 0.78993046875
vt 0.28125 0.78125
vt 0.0625 1
vt 0.07118046875 0.984375
vt 0.21006953125 0.984375
vt 0.21875 1
vt 0 0.78125
vt 0.015625 0.78993046875
vt 0.015625 0.92881953125
vt 0 0.9375
vt 0.265625 0.78993046875
vt 0.21006953125 0.734375
vt 0.21875 0.71875
vt 0.28125 0.78125
vt 0.21006953125 0.984375
vt 0.265625 0.92881953125
vt 0.28125 0.9375
vt 0.21875 1
vt 0 0.9375
vt 0.015625 0.92881953125
vt 0.07118046875 0.984375
vt 0.0625 1
vt 0.07118046875 0.734375
vt 0.015625 0.78993046875
vt 0 0.78125
vt 0.0625 0.71875
vt 0.234375 0.546875
vt 0.25 0.55555546875
vt 0.25 0.69444453125
vt 0.234375 0.703125
vt 0.296875 0.765625
vt 0.30555546875 0.75
vt 0.44444453125 0.75
vt 0.453125 0.765625
vt 0.515625 0.703125
vt 0.5 0.69444453125
vt 0.5 0.55555546875
vt 0.515625 0.546875
vt 0.453125 0.484375
vt 0.44444453125 0.5
vt 0.30555546875 0.5
vt 0.296875 0.484375
vt 0.234375 0.703125
vt 0.25 0.69444453125
vt 0.30555546875 0.75
vt 0.296875 0.765625
vt 0.453125 0.765625
vt 0.44444453125 0.75
vt 0.5 0.69444453125
vt 0.515625 0.703125
vt 0.30555546875 0.5
vt 0.25 0.55555546875
vt 0.234375 0.546875
vt 0.296875 0.484375
vt 0.5 0.55555546875
vt 0.44444453125 0.5
vt 0.453125 0.484375
vt 0.515625 0.546875
vn 0 0 -1
vn 0 0 1
vn 1 0 0
vn -1 0 0
vn 0.7071067811865476 0 -0.7071067811865476
vn -0.7071067811865476 0 -0.7071067811865476
vn -0.7071067811865476 0 0.7071067811865476
vn 0.7071067811865476 0 0.7071067811865476
vn 0 0 1
vn 0 0 -1
vn -1 0 0
vn 1 0 0
vn -0.7071067811865476 0 0.7071067811865476
vn 0.7071067811865476 0 0.7071067811865476
vn 0.7071067811865476 0 -0.7071067811865476
vn -0.7071067811865476 0 -0.7071067811865476
vn 0 1 0
vn 0 1 0
vn 0 1 0
vn 0 1 0
vn 0 1 0
vn 0 1 0
vn 0 1 0
vn 0 1 0
vn 0 -1 0
vn 0 -1 0
vn 0 -1 0
vn 0 -1 0
vn 0 -1 0
vn 0 -1 0
vn 0 -1 0
vn 0 -1 0
usemtl m_51d1becb-3725-b960-d944-3f96bf77a3d1
f 83/313/85 87/314/85 86/315/85 82/316/85
f 81/317/86 85/318/86 88/319/86 84/320/86
f 90/321/87 94/322/87 93/323/87 89/324/87
f 92/325/88 96/326/88 95/327/88 91/328/88
f 94/329/89 83/330/89 82/331/89 93/332/89
f 87/333/90 95/334/90 96/335/90 86/336/90
f 85/337/91 92/338/91 91/339/91 88/340/91
f 89/341/92 81/342/92 84/343/92 90/344/92
f 102/345/93 103/346/93 99/347/93 98/348/93
f 104/349/94 101/350/94 97/351/94 100/352/94
f 109/353/95 110/354/95 106/355/95 105/356/95
f 111/357/96 112/358/96 108/359/96 107/360/96
f 98/361/97 99/362/97 110/363/97 109/364/97
f 112/365/98 111/366/98 103/367/98 102/368/98
f 107/369/99 108/370/99 101/371/99 104/372/99
f 100/373/100 97/374/100 105/375/100 106/376/100
f 81/377/101 97/378/101 101/379/101 85/380/101
f 93/381/102 109/382/102 105/383/102 89/384/102
f 86/385/103 102/386/103 98/387/103 82/388/103
f 92/389/104 108/390/104 112/391/104 96/392/104
f 105/393/105 97/394/105 81/395/105 89/396/105
f 98/397/106 109/398/106 93/399/106 82/400/106
f 96/401/107 112/402/107 102/403/107 86/404/107
f 101/405/108 108/406/108 92/407/108 85/408/108
f 95/409/109 111/410/109 107/411/109 91/412/109
f 88/413/110 104/414/110 100/415/110 84/416/110
f 90/417/111 106/418/111 110/419/111 94/420/111
f 83/421/112 99/422/112 103/423/112 87/424/112
f 91/425/113 107/426/113 104/427/113 88/428/113
f 84/429/114 100/430/114 106/431/114 90/432/114
f 103/433/115 111/434/115 95/435/115 87/436/115
f 110/437/116 99/438/116 83/439/116 94/440/116