# Made in Blockbench 4.7.0
mtllib GardenBarrelPlanter.mtl

o cube
v 0.40625 0.3125 0.40625
v 0.40625 0.3125 -0.40625
v 0.40625 0.1875 0.40625
v 0.40625 0.1875 -0.40625
v -0.40625 0.3125 0.40625
v -0.40625 0.3125 -0.40625
v -0.40625 0.1875 0.40625
v -0.40625 0.1875 -0.40625
vt 1 0.703125
vt 0.796875 0.703125
vt 0.796875 0.671875
vt 1 0.671875
vt 1 0.625
vt 1 0.65625
vt 0.796875 0.65625
vt 0.796875 0.625
vt 0.78125 0.515625
vt 0.984375 0.515625
vt 0.984375 0.71875
vt 0.78125 0.71875
vt 0.984375 0.515625
vt 0.984375 0.71875
vt 0.78125 0.71875
vt 0.78125 0.515625
vt 1 0.578125
vt 1 0.609375
vt 0.796875 0.609375
vt 0.796875 0.578125
vt 1 0.5625
vt 0.796875 0.5625
vt 0.796875 0.53125
vt 1 0.53125
vn 1 0 0
vn -1 0 0
vn 0 1 0
vn 0 -1 0
vn 0 0 1
vn 0 0 -1
usemtl m_ccea0ee3-cb50-5414-cd00-be2782f86951
f 2/1/1 1/2/1 3/3/1 4/4/1
f 7/5/2 5/6/2 6/7/2 8/8/2
f 5/9/3 1/10/3 2/11/3 6/12/3
f 4/13/4 3/14/4 7/15/4 8/16/4
f 3/17/5 1/18/5 5/19/5 7/20/5
f 6/21/6 2/22/6 4/23/6 8/24/6
o cube
v 0.40625 0.75 0.40625
v 0.40625 0.75 -0.40625
v 0.40625 0.625 0.40625
v 0.40625 0.625 -0.40625
v -0.40625 0.75 0.40625
v -0.40625 0.75 -0.40625
v -0.40625 0.625 0.40625
v -0.40625 0.625 -0.40625
vt 0.984375 0.703125
vt 0.78125 0.703125
vt 0.78125 0.671875
vt 0.984375 0.671875
vt 0.984375 0.625
vt 0.984375 0.65625
vt 0.78125 0.65625
vt 0.78125 0.625
vt 0.78125 0.515625
vt 0.984375 0.515625
vt 0.984375 0.71875
vt 0.78125 0.71875
vt 0.984375 0.515625
vt 0.984375 0.71875
vt 0.78125 0.71875
vt 0.78125 0.515625
vt 0.984375 0.578125
vt 0.984375 0.609375
vt 0.78125 0.609375
vt 0.78125 0.578125
vt 0.984375 0.5625
vt 0.78125 0.5625
vt 0.78125 0.53125
vt 0.984375 0.53125
vn 1 0 0
vn -1 0 0
vn 0 1 0
vn 0 -1 0
vn 0 0 1
vn 0 0 -1
usemtl m_ccea0ee3-cb50-5414-cd00-be2782f86951
f 10/25/7 9/26/7 11/27/7 12/28/7
f 15/29/8 13/30/8 14/31/8 16/32/8
f 13/33/9 9/34/9 10/35/9 14/36/9
f 12/37/10 11/38/10 15/39/10 16/40/10
f 11/41/11 9/42/11 13/43/11 15/44/11
f 14/45/12 10/46/12 12/47/12 16/48/12
o PlanterBarrel
v 0.375 1 0.375
v 0.375 1 -0.375
v 0.375 0 0.375
v 0.375 0 -0.375
v -0.375 1 0.375
v -0.375 1 -0.375
v -0.375 0 0.375
v -0.375 0 -0.375
v 0.3125 1 0.3125
v 0.3125 1 -0.3125
v -0.3125 1 0.3125
v -0.3125 1 -0.3125
v 0.3125 0.9375 0.3125
v 0.3125 0.9375 -0.3125
v -0.3125 0.9375 0.3125
v -0.3125 0.9375 -0.3125
vt 0.25 1
vt 0 1
vt 0 0.875
vt 0.25 0.875
vt 0.25 0.875
vt 0.25 1
vt 0 1
vt 0 0.875
vt 0.75 0.75
vt 1 0.75
vt 1 1
vt 0.75 1
vt 0.25 0.75
vt 0.25 1
vt 0 1
vt 0 0.75
vt 0.25 0.875
vt 0.25 1
vt 0 1
vt 0 0.875
vt 0.25 1
vt 0 1
vt 0 0.875
vt 0.25 0.875
vt 0.25 0.75
vt 0 0.75
vt 0 1
vt 0 1
vt 0.25 1
vt 0.25 0.75
vt 0 1
vt 0 1
vt 0 1
vt 0.25 1
vt 0 1
vt 0 1
vt 0 0.75
vt 0 1
vt 0 1
vt 0 1
vt 0.15625 0.875
vt 0 0.875
vt 0 0.859375
vt 0.15625 0.859375
vt 0.203125 0.9375
vt 0.046875 0.9375
vt 0.046875 0.921875
vt 0.203125 0.921875
vt 0.15625 1
vt 0 1
vt 0 0.984375
vt 0.15625 0.984375
vt 0.15625 0.9375
vt 0 0.9375
vt 0 0.921875
vt 0.15625 0.921875
vn 1 0 0
vn -1 0 0
vn 0 1 0
vn 0 -1 0
vn 0 0 1
vn 0 0 -1
vn 0 1 0
vn 0 1 0
vn 0 1 0
vn 0 1 0
vn 0 0 -1
vn -1 0 0
vn 0 0 1
vn 1 0 0
usemtl m_ccea0ee3-cb50-5414-cd00-be2782f86951
f 18/49/13 17/50/13 19/51/13 20/52/13
f 23/53/14 21/54/14 22/55/14 24/56/14
f 31/57/15 29/58/15 30/59/15 32/60/15
f 20/61/16 19/62/16 23/63/16 24/64/16
f 19/65/17 17/66/17 21/67/17 23/68/17
f 22/69/18 18/70/18 20/71/18 24/72/18
f 25/73/19 27/74/19 21/75/19 17/76/19
f 26/77/20 25/78/20 17/79/20 18/80/20
f 28/81/21 26/82/21 18/83/21 22/84/21
f 27/85/22 28/86/22 22/87/22 21/88/22
f 29/89/23 31/90/23 27/91/23 25/92/23
f 30/93/24 29/94/24 25/95/24 26/96/24
f 32/97/25 30/98/25 26/99/25 28/100/25
f 31/101/26 32/102/26 28/103/26 27/104/26