# Made in Blockbench 4.5.2
mtllib Planter.mtl

o cube
v 0.5 0.6875 0.5
v 0.5 0.6875 -0.5
v 0.5 0 0.5
v 0.5 0 -0.5
v -0.5 0.6875 0.5
v -0.5 0.6875 -0.5
v -0.5 0 0.5
v -0.5 0 -0.5
v -0.375 0.6875 0.5
v -0.375 0.6875 -0.5
v -0.375 0 -0.5
v -0.375 0 0.5
v 0.375 0.6875 -0.5
v 0.375 0.6875 0.5
v 0.375 0 0.5
v 0.375 0 -0.5
v 0.375 0.6875 0.375
v -0.375 0.6875 0.375
v -0.5 0.6875 0.375
v -0.5 0 0.375
v -0.375 0 0.375
v 0.375 0 0.375
v 0.5 0 0.375
v 0.5 0.6875 0.375
v -0.375 0.6875 -0.375
v 0.375 0.6875 -0.375
v 0.5 0.6875 -0.375
v 0.5 0 -0.375
v 0.375 0 -0.375
v -0.375 0 -0.375
v -0.5 0 -0.375
v -0.5 0.6875 -0.375
v 0.375 0.5625 0.375
v -0.375 0.5625 -0.375
v 0.375 0.5625 -0.375
v -0.375 0.5625 0.375
vt 0.265625 0.59375
vt 0.453125 0.59375
vt 0.453125 0.765625
vt 0.265625 0.765625
vt 0.46875 1
vt 0.28125 1
vt 0.28125 0.828125
vt 0.46875 0.828125
vt 0.671875 0.640625
vt 0.671875 0.828125
vt 0.484375 0.828125
vt 0.484375 0.640625
vt 0.03125 0.96875
vt 0.03125 0.78125
vt 0.21875 0.78125
vt 0.21875 0.96875
vt 0.03125 0.421875
vt 0.21875 0.421875
vt 0.21875 0.59375
vt 0.03125 0.59375
vt 0.46875 0.59375
vt 0.28125 0.59375
vt 0.28125 0.421875
vt 0.46875 0.421875
vt 0.53125 0.453125
vt 0.53125 0.640625
vt 0.5 0.640625
vt 0.5 0.453125
vt 0.5 0.59375
vt 0.46875 0.59375
vt 0.46875 0.421875
vt 0.5 0.421875
vt 0 0.96875
vt 0 0.78125
vt 0.03125 0.78125
vt 0.03125 0.96875
vt 0 0.421875
vt 0.03125 0.421875
vt 0.03125 0.59375
vt 0 0.59375
vt 0.5625 0.453125
vt 0.5625 0.640625
vt 0.53125 0.640625
vt 0.53125 0.453125
vt 0.25 0.59375
vt 0.21875 0.59375
vt 0.21875 0.421875
vt 0.25 0.421875
vt 0.21875 0.96875
vt 0.21875 0.78125
vt 0.25 0.78125
vt 0.25 0.96875
vt 0.25 0.421875
vt 0.28125 0.421875
vt 0.28125 0.59375
vt 0.25 0.59375
vt 0.1875 0.71875
vt 0.1875 0.75
vt 0 0.75
vt 0 0.71875
vt 0.03125 0.96875
vt 0.03125 1
vt 0 1
vt 0 0.96875
vt 0.5 1
vt 0.46875 1
vt 0.46875 0.828125
vt 0.5 0.828125
vt 0.1875 0.75
vt 0.1875 0.71875
vt 0.21875 0.71875
vt 0.21875 0.75
vt 0.03125 1
vt 0.03125 0.96875
vt 0.21875 0.96875
vt 0.21875 1
vt 0.1875 0.71875
vt 0.1875 0.6875
vt 0.21875 0.6875
vt 0.21875 0.71875
vt 0.234375 0.59375
vt 0.265625 0.59375
vt 0.265625 0.765625
vt 0.234375 0.765625
vt 0.21875 0.65625
vt 0.21875 0.6875
vt 0.1875 0.6875
vt 0.1875 0.65625
vt 0.25 0.828125
vt 0.25 0.796875
vt 0.4375 0.796875
vt 0.4375 0.828125
vt 0.1875 0.65625
vt 0.1875 0.625
vt 0.21875 0.625
vt 0.21875 0.65625
vt 0.484375 0.765625
vt 0.453125 0.765625
vt 0.453125 0.59375
vt 0.484375 0.59375
vt 0.03125 0.59375
vt 0.03125 0.625
vt 0 0.625
vt 0 0.59375
vt 0.21875 0.75
vt 0.21875 0.78125
vt 0.03125 0.78125
vt 0.03125 0.75
vt 0.0625 0.59375
vt 0.0625 0.625
vt 0.03125 0.625
vt 0.03125 0.59375
vt 0.25 0.828125
vt 0.28125 0.828125
vt 0.28125 1
vt 0.25 1
vt 0.0625 0.625
vt 0.0625 0.59375
vt 0.09375 0.59375
vt 0.09375 0.625
vt 0.25 0.765625
vt 0.4375 0.765625
vt 0.4375 0.796875
vt 0.25 0.796875
vt 0 0.6875
vt 0.1875 0.6875
vt 0.1875 0.71875
vt 0 0.71875
vt 0 0.65625
vt 0.1875 0.65625
vt 0.1875 0.6875
vt 0 0.6875
vt 0 0.625
vt 0.1875 0.625
vt 0.1875 0.65625
vt 0 0.65625
vn 1 0 0
vn -1 0 0
vn 0 1 0
vn 0 -1 0
vn 0 0 1
vn 0 0 -1
vn 0 1 0
vn 0 0 -1
vn 0 -1 0
vn 0 0 1
vn 0 1 0
vn 0 0 1
vn 0 -1 0
vn 0 0 -1
vn 0 1 0
vn 0 1 0
vn -1 0 0
vn 0 -1 0
vn 0 -1 0
vn 0 -1 0
vn 1 0 0
vn 0 1 0
vn 0 1 0
vn 0 1 0
vn 1 0 0
vn 0 -1 0
vn 0 -1 0
vn 0 -1 0
vn -1 0 0
vn 0 1 0
vn -1 0 0
vn 0 0 1
vn 1 0 0
vn 0 0 -1
usemtl m_d9f95b82-37c1-f052-8830-2523cf6d3b3b
f 23/1/1 28/2/1 27/3/1 24/4/1
f 19/5/2 32/6/2 31/7/2 20/8/2
f 33/9/3 35/10/3 34/11/3 36/12/3
f 21/13/4 30/14/4 29/15/4 22/16/4
f 12/17/5 15/18/5 14/19/5 9/20/5
f 10/21/6 13/22/6 16/23/6 11/24/6
f 18/25/7 25/26/7 32/27/7 19/28/7
f 6/29/8 10/30/8 11/31/8 8/32/8
f 20/33/9 31/34/9 30/35/9 21/36/9
f 7/37/10 12/38/10 9/39/10 5/40/10
f 24/41/11 27/42/11 26/43/11 17/44/11
f 1/45/12 14/46/12 15/47/12 3/48/12
f 22/49/13 29/50/13 28/51/13 23/52/13
f 4/53/14 16/54/14 13/55/14 2/56/14
f 14/57/15 17/58/15 18/59/15 9/60/15
f 9/61/16 18/62/16 19/63/16 5/64/16
f 5/65/17 19/66/17 20/67/17 7/68/17
f 7/69/18 20/70/18 21/71/18 12/72/18
f 12/73/19 21/74/19 22/75/19 15/76/19
f 15/77/20 22/78/20 23/79/20 3/80/20
f 3/81/21 23/82/21 24/83/21 1/84/21
f 1/85/22 24/86/22 17/87/22 14/88/22
f 10/89/23 25/90/23 26/91/23 13/92/23
f 13/93/24 26/94/24 27/95/24 2/96/24
f 2/97/25 27/98/25 28/99/25 4/100/25
f 4/101/26 28/102/26 29/103/26 16/104/26
f 16/105/27 29/106/27 30/107/27 11/108/27
f 11/109/28 30/110/28 31/111/28 8/112/28
f 8/113/29 31/114/29 32/115/29 6/116/29
f 6/117/30 32/118/30 25/119/30 10/120/30
f 35/121/31 33/122/31 17/123/31 26/124/31
f 34/125/32 35/126/32 26/127/32 25/128/32
f 36/129/33 34/130/33 25/131/33 18/132/33
f 33/133/34 36/134/34 18/135/34 17/136/34