# Made in Blockbench 4.7.2
mtllib GreaterSnackrootStage1.mtl

o cube
v 0.03125 0.06629126073623882 -0.09754126073623884
v 0.03125 0.044194173824159216 -0.11963834764831845
v 0.03125 0 -0.03125
v 0.03125 -0.02209708691207961 -0.05334708691207961
v -0.03125 0.06629126073623882 -0.09754126073623884
v -0.03125 0.044194173824159216 -0.11963834764831845
v -0.03125 0 -0.03125
v -0.03125 -0.02209708691207961 -0.05334708691207961
vt 0.0625 0.75
vt 0 0.75
vt 0 0.625
vt 0.0625 0.625
vt 0.125 0.875
vt 0.125 1
vt 0.0625 1
vt 0.0625 0.875
vt 0.0625 0.625
vt 0.125 0.625
vt 0.125 0.6875
vt 0.0625 0.6875
vt 0.125 0.6875
vt 0.125 0.75
vt 0.0625 0.75
vt 0.0625 0.6875
vt 0.0625 0.75
vt 0.0625 0.875
vt 0 0.875
vt 0 0.75
vt 0.125 0.875
vt 0.0625 0.875
vt 0.0625 0.75
vt 0.125 0.75
vn 1 0 0
vn -1 0 0
vn 0 0.7071067811865475 -0.7071067811865476
vn 0 -0.7071067811865475 0.7071067811865476
vn 0 0.7071067811865476 0.7071067811865475
vn 0 -0.7071067811865476 -0.7071067811865475
usemtl m_575fce93-f4a5-a211-a1ff-0955f4e8399e
f 2/1/1 1/2/1 3/3/1 4/4/1
f 7/5/2 5/6/2 6/7/2 8/8/2
f 5/9/3 1/10/3 2/11/3 6/12/3
f 4/13/4 3/14/4 7/15/4 8/16/4
f 3/17/5 1/18/5 5/19/5 7/20/5
f 6/21/6 2/22/6 4/23/6 8/24/6
o cube
v 0.03125 0.06629126073623882 0.09754126073623884
v 0.03125 0.044194173824159216 0.11963834764831845
v 0.03125 0 0.03125
v 0.03125 -0.02209708691207961 0.05334708691207961
v -0.03125 0.06629126073623882 0.09754126073623884
v -0.03125 0.044194173824159216 0.11963834764831845
v -0.03125 0 0.03125
v -0.03125 -0.02209708691207961 0.05334708691207961
vt 0.25 0.75
vt 0.25 0.875
vt 0.1875 0.875
vt 0.1875 0.75
vt 0.25 0.75
vt 0.1875 0.75
vt 0.1875 0.625
vt 0.25 0.625
vt 0.1875 0.8125
vt 0.1875 0.875
vt 0.125 0.875
vt 0.125 0.8125
vt 0.125 0.75
vt 0.1875 0.75
vt 0.1875 0.8125
vt 0.125 0.8125
vt 0.25 1
vt 0.1875 1
vt 0.1875 0.875
vt 0.25 0.875
vt 0.1875 0.875
vt 0.1875 1
vt 0.125 1
vt 0.125 0.875
vn 1 0 0
vn -1 0 0
vn 0 0.7071067811865475 0.7071067811865476
vn 0 -0.7071067811865475 -0.7071067811865476
vn 0 0.7071067811865476 -0.7071067811865475
vn 0 -0.7071067811865476 0.7071067811865475
usemtl m_575fce93-f4a5-a211-a1ff-0955f4e8399e
f 11/25/7 9/26/7 10/27/7 12/28/7
f 14/29/8 13/30/8 15/31/8 16/32/8
f 10/33/9 9/34/9 13/35/9 14/36/9
f 15/37/10 11/38/10 12/39/10 16/40/10
f 13/41/11 9/42/11 11/43/11 15/44/11
f 12/45/12 10/46/12 14/47/12 16/48/12
o cube
v -0.09754126073623884 0.06629126073623882 0.031250000000000014
v -0.11963834764831846 0.044194173824159216 0.03125000000000002
v -0.03125 0 0.03125
v -0.05334708691207961 -0.02209708691207961 0.03125000000000001
v -0.09754126073623884 0.06629126073623882 -0.031249999999999986
v -0.11963834764831846 0.044194173824159216 -0.031249999999999983
v -0.031250000000000014 0 -0.03125
v -0.05334708691207962 -0.02209708691207961 -0.031249999999999997
vt 0.25 0.75
vt 0.25 0.875
vt 0.1875 0.875
vt 0.1875 0.75
vt 0.25 0.75
vt 0.1875 0.75
vt 0.1875 0.625
vt 0.25 0.625
vt 0.1875 0.8125
vt 0.1875 0.875
vt 0.125 0.875
vt 0.125 0.8125
vt 0.125 0.75
vt 0.1875 0.75
vt 0.1875 0.8125
vt 0.125 0.8125
vt 0.25 1
vt 0.1875 1
vt 0.1875 0.875
vt 0.25 0.875
vt 0.1875 0.875
vt 0.1875 1
vt 0.125 1
vt 0.125 0.875
vn 2.220446049250313e-16 0 1
vn -2.220446049250313e-16 0 -1
vn -0.7071067811865476 0.7071067811865475 1.5700924586837752e-16
vn 0.7071067811865476 -0.7071067811865475 -1.5700924586837752e-16
vn 0.7071067811865475 0.7071067811865476 -1.570092458683775e-16
vn -0.7071067811865475 -0.7071067811865476 1.570092458683775e-16
usemtl m_575fce93-f4a5-a211-a1ff-0955f4e8399e
f 19/49/13 17/50/13 18/51/13 20/52/13
f 22/53/14 21/54/14 23/55/14 24/56/14
f 18/57/15 17/58/15 21/59/15 22/60/15
f 23/61/16 19/62/16 20/63/16 24/64/16
f 21/65/17 17/66/17 19/67/17 23/68/17
f 20/69/18 18/70/18 22/71/18 24/72/18
o cube
v 0.09754126073623884 0.06629126073623882 0.031249999999999972
v 0.11963834764831843 0.044194173824159216 0.03124999999999997
v 0.03125 0 0.031249999999999986
v 0.05334708691207961 -0.02209708691207961 0.031249999999999983
v 0.09754126073623884 0.06629126073623882 -0.03125000000000003
v 0.11963834764831843 0.044194173824159216 -0.031250000000000035
v 0.031249999999999986 0 -0.031250000000000014
v 0.053347086912079594 -0.02209708691207961 -0.03125000000000002
vt 0.0625 0.75
vt 0 0.75
vt 0 0.625
vt 0.0625 0.625
vt 0.125 0.875
vt 0.125 1
vt 0.0625 1
vt 0.0625 0.875
vt 0.0625 0.625
vt 0.125 0.625
vt 0.125 0.6875
vt 0.0625 0.6875
vt 0.125 0.6875
vt 0.125 0.75
vt 0.0625 0.75
vt 0.0625 0.6875
vt 0.0625 0.75
vt 0.0625 0.875
vt 0 0.875
vt 0 0.75
vt 0.125 0.875
vt 0.0625 0.875
vt 0.0625 0.75
vt 0.125 0.75
vn 2.220446049250313e-16 0 1
vn -2.220446049250313e-16 0 -1
vn 0.7071067811865476 0.7071067811865475 -1.5700924586837752e-16
vn -0.7071067811865476 -0.7071067811865475 1.5700924586837752e-16
vn -0.7071067811865475 0.7071067811865476 1.570092458683775e-16
vn 0.7071067811865475 -0.7071067811865476 -1.570092458683775e-16
usemtl m_575fce93-f4a5-a211-a1ff-0955f4e8399e
f 26/73/19 25/74/19 27/75/19 28/76/19
f 31/77/20 29/78/20 30/79/20 32/80/20
f 29/81/21 25/82/21 26/83/21 30/84/21
f 28/85/22 27/86/22 31/87/22 32/88/22
f 27/89/23 25/90/23 29/91/23 31/92/23
f 30/93/24 26/94/24 28/95/24 32/96/24