# Made in Blockbench 4.7.2
mtllib MegaMondoMellonStage2.mtl

o cube
v 0.07244368911043578 0.12257010416804631 0.28624578319441213
v 0.09454077602251537 0.10215505784185294 0.2777895941296278
v 0.006152428374196982 0.06132496518946623 0.2608772160000591
v 0.02824951528627659 0.040909918863272846 0.2524210269352748
v 0.07244368911043578 0.11061124690663726 0.3151170185853898
v 0.09454077602251537 0.09019620058044386 0.30666082952060547
v 0.006152428374196975 0.049366107928057165 0.28974845139103683
v 0.02824951528627658 0.02895106160186378 0.2812922623262525
vt 0.15625 0.65625
vt 0.15625 0.71875
vt 0.125 0.71875
vt 0.125 0.65625
vt 0.15625 0.65625
vt 0.125 0.65625
vt 0.125 0.59375
vt 0.15625 0.59375
vt 0.28125 0.875
vt 0.28125 0.90625
vt 0.25 0.90625
vt 0.25 0.875
vt 0.25 0.65625
vt 0.28125 0.65625
vt 0.28125 0.6875
vt 0.25 0.6875
vt 0.1875 1
vt 0.15625 1
vt 0.15625 0.9375
vt 0.1875 0.9375
vt 0.1875 0.78125
vt 0.1875 0.84375
vt 0.15625 0.84375
vt 0.15625 0.78125
vn 1.1102230246251568e-16 0.3826834323650901 -0.9238795325112866
vn -1.1102230246251568e-16 -0.3826834323650901 0.9238795325112866
vn 0.7071067811865478 0.6532814824381881 0.27059805007309884
vn -0.7071067811865478 -0.6532814824381881 -0.27059805007309884
vn -0.7071067811865476 0.6532814824381884 0.2705980500730986
vn 0.7071067811865476 -0.6532814824381884 -0.2705980500730986
usemtl m_e528b764-ca11-99b1-9d6f-bccf51e97334
f 3/1/1 1/2/1 2/3/1 4/4/1
f 6/5/2 5/6/2 7/7/2 8/8/2
f 2/9/3 1/10/3 5/11/3 6/12/3
f 7/13/4 3/14/4 4/15/4 8/16/4
f 5/17/5 1/18/5 3/19/5 7/20/5
f 4/21/6 2/22/6 6/23/6 8/24/6
o cube
v -0.07675627689002734 0.16915555821393674 0.2990700231574489
v -0.04969298302176363 0.18359117590942559 0.3050494517881534
v -0.022068776890027383 0.08164427670864213 0.262821663497306
v 0.00499451697823633 0.09607989440413098 0.26880109212801057
v -0.07675627689002734 0.1571967009525277 0.3279412585484266
v -0.049692983021763636 0.17163231864801654 0.33392068717913115
v -0.02206877689002739 0.06968541944723307 0.29169289888828376
v 0.004994516978236323 0.08412103714272191 0.29767232751898826
vt 0.15625 0.65625
vt 0.15625 0.71875
vt 0.125 0.71875
vt 0.125 0.65625
vt 0.15625 0.65625
vt 0.125 0.65625
vt 0.125 0.59375
vt 0.15625 0.59375
vt 0.28125 0.875
vt 0.28125 0.90625
vt 0.25 0.90625
vt 0.25 0.875
vt 0.25 0.65625
vt 0.28125 0.65625
vt 0.28125 0.6875
vt 0.25 0.6875
vt 0.1875 1
vt 0.15625 1
vt 0.15625 0.9375
vt 0.1875 0.9375
vt 0.1875 0.78125
vt 0.1875 0.84375
vt 0.15625 0.84375
vt 0.15625 0.78125
vn 1.1102230246251568e-16 0.3826834323650901 -0.9238795325112867
vn -1.1102230246251568e-16 -0.3826834323650901 0.9238795325112867
vn -0.49999999999999994 0.8001031451912656 0.33141357403559196
vn 0.49999999999999994 -0.8001031451912656 -0.33141357403559196
vn -0.8660254037844387 -0.4619397662556431 -0.19134171618254514
vn 0.8660254037844387 0.4619397662556431 0.19134171618254514
usemtl m_e528b764-ca11-99b1-9d6f-bccf51e97334
f 11/25/7 9/26/7 10/27/7 12/28/7
f 14/29/8 13/30/8 15/31/8 16/32/8
f 10/33/9 9/34/9 13/35/9 14/36/9
f 15/37/10 11/38/10 12/39/10 16/40/10
f 13/41/11 9/42/11 11/43/11 15/44/11
f 12/45/12 10/46/12 14/47/12 16/48/12
o cube
v 0.03125 0.12145614531909124 0.3274619770547318
v 0.03125 0.14283240427694552 0.2687311882556125
v 0.03125 -0.025370826678706965 0.27402132966009607
v 0.03125 -0.003994567720852674 0.2152905408609768
v -0.03125 0.12145614531909124 0.3274619770547318
v -0.03125 0.14283240427694552 0.2687311882556125
v -0.03125 -0.025370826678706965 0.27402132966009607
v -0.03125 -0.003994567720852674 0.2152905408609768
v 0.03125 0.15616560445811442 0.32346740933387913
v -0.03125 0.15616560445811442 0.32346740933387913
v -0.03125 0.25159944874262163 0.30468098409941713
v 0.03125 0.25159944874262163 0.30468098409941713
v -0.03125 0.23826624856145273 0.24994476302115054
v 0.03125 0.23826624856145273 0.24994476302115054
vt 0.15625 0.84375
vt 0.125 0.84375
vt 0.125 0.78125
vt 0.15625 0.78125
vt 0.21875 0.5625
vt 0.21875 0.625
vt 0.1875 0.625
vt 0.1875 0.5625
vt 0.25 0.6875
vt 0.25 0.71875
vt 0.21875 0.71875
vt 0.21875 0.6875
vt 0.25 0.5625
vt 0.25 0.625
vt 0.21875 0.625
vt 0.21875 0.5625
vt 0.15625 0.78125
vt 0.125 0.78125
vt 0.125 0.71875
vt 0.15625 0.71875
vt 0.25 0.65625
vt 0.21875 0.65625
vt 0.21875 0.625
vt 0.25 0.625
vt 0.28125 0.90625
vt 0.28125 0.9375
vt 0.25 0.9375
vt 0.25 0.90625
vt 0.09375 0.578125
vt 0.0859375 0.59375
vt 0.0625 0.578125
vt 0.3125 0.921875
vt 0.2890625 0.9375
vt 0.28125 0.921875
vt 0.21875 0.65625
vt 0.1875 0.65625
vt 0.1875 0.625
vt 0.21875 0.625
vt 0.28125 1
vt 0.25 1
vt 0.25 0.96875
vt 0.28125 0.96875
vt 0.25 0.65625
vt 0.25 0.6875
vt 0.21875 0.6875
vt 0.21875 0.65625
vt 0.28125 0.96875
vt 0.25 0.96875
vt 0.25 0.9375
vt 0.28125 0.9375
vn 1 0 0
vn -1 0 0
vn 0 -0.9396926207859084 -0.34202014332566866
vn 0 -0.34202014332566866 0.9396926207859084
vn 0 0.34202014332566866 -0.9396926207859084
vn 0 0.11433119954627818 0.9934426892429724
vn 0 0.9715901623277443 -0.23666972021774912
vn -1 0 0
vn 1 0 0
vn -1 0 0
vn 0 0.19314612179741353 0.9811700034319326
vn 1 0 0
vn 0 -0.19314612179741353 -0.9811700034319326
usemtl m_e528b764-ca11-99b1-9d6f-bccf51e97334
f 18/49/13 17/50/13 19/51/13 20/52/13
f 23/53/14 21/54/14 22/55/14 24/56/14
f 20/57/15 19/58/15 23/59/15 24/60/15
f 19/61/16 17/62/16 21/63/16 23/64/16
f 22/65/17 18/66/17 20/67/17 24/68/17
f 25/69/18 26/70/18 21/71/18 17/72/18
f 29/73/19 27/74/19 28/75/19 30/76/19
f 21/77/20 26/78/20 22/79/20
f 18/80/21 25/81/21 17/82/21
f 27/83/22 29/84/22 22/85/22 26/86/22
f 28/87/23 27/88/23 26/89/23 25/90/23
f 30/91/24 28/92/24 25/93/24 18/94/24
f 29/95/25 30/96/25 18/97/25 22/98/25
o cube
v 0.046875 0.1738056155954051 0.26998239405776786
v 0.046875 0.26436116181000524 0.24571810857940654
v 0.046875 0.1495413301170438 0.1794268478431677
v 0.046875 0.24009687633164395 0.15516256236480638
v -0.046875 0.1738056155954051 0.26998239405776786
v -0.046875 0.26436116181000524 0.24571810857940654
v -0.046875 0.1495413301170438 0.1794268478431677
v -0.046875 0.24009687633164395 0.15516256236480638
vt 0.875 0.875
vt 0.8125 0.875
vt 0.8125 0.8125
vt 0.875 0.8125
vt 0.9375 0.84375
vt 0.9375 0.90625
vt 0.875 0.90625
vt 0.875 0.84375
vt 0.875 0.78125
vt 0.9375 0.78125
vt 0.9375 0.84375
vt 0.875 0.84375
vt 1 0.9375
vt 1 1
vt 0.9375 1
vt 0.9375 0.9375
vt 0.875 0.875
vt 0.875 0.9375
vt 0.8125 0.9375
vt 0.8125 0.875
vt 1 0.9375
vt 0.9375 0.9375
vt 0.9375 0.875
vt 1 0.875
vn 1 0 0
vn -1 0 0
vn 0 0.25881904510252074 0.9659258262890683
vn 0 -0.25881904510252074 -0.9659258262890683
vn 0 -0.9659258262890683 0.25881904510252074
vn 0 0.9659258262890683 -0.25881904510252074
usemtl m_e528b764-ca11-99b1-9d6f-bccf51e97334
f 32/99/26 31/100/26 33/101/26 34/102/26
f 37/103/27 35/104/27 36/105/27 38/106/27
f 35/107/28 31/108/28 32/109/28 36/110/28
f 34/111/29 33/112/29 37/113/29 38/114/29
f 33/115/30 31/116/30 35/117/30 37/118/30
f 36/119/31 32/120/31 34/121/31 38/122/31