# Made in Blockbench 4.7.2
mtllib MondoMellonCrop.mtl

o cube
v 0.125 0.25 0.0625
v 0.125 0.25 -0.1875
v 0.125 0 0.0625
v 0.125 0 -0.1875
v -0.125 0.25 0.0625
v -0.125 0.25 -0.1875
v -0.125 0 0.0625
v -0.125 0 -0.1875
vt 0.9375 0.9375
vt 0.8125 0.9375
vt 0.8125 0.8125
vt 0.9375 0.8125
vt 0.9375 0.8125
vt 0.9375 0.9375
vt 0.8125 0.9375
vt 0.8125 0.8125
vt 0.8125 0.8125
vt 0.9375 0.8125
vt 0.9375 0.9375
vt 0.8125 0.9375
vt 0.9375 0.8125
vt 0.9375 0.9375
vt 0.8125 0.9375
vt 0.8125 0.8125
vt 0.9375 0.8125
vt 0.9375 0.9375
vt 0.8125 0.9375
vt 0.8125 0.8125
vt 0.9375 0.9375
vt 0.8125 0.9375
vt 0.8125 0.8125
vt 0.9375 0.8125
vn 1 0 0
vn -1 0 0
vn 0 1 0
vn 0 -1 0
vn 0 0 1
vn 0 0 -1
usemtl m_499fa809-d4ae-e8ac-830e-e451def75437
f 2/1/1 1/2/1 3/3/1 4/4/1
f 7/5/2 5/6/2 6/7/2 8/8/2
f 5/9/3 1/10/3 2/11/3 6/12/3
f 4/13/4 3/14/4 7/15/4 8/16/4
f 3/17/5 1/18/5 5/19/5 7/20/5
f 6/21/6 2/22/6 4/23/6 8/24/6
o cube
v 0.046875 0.32261746891636217 -0.14584077361972533
v 0.046875 0.30052038200428255 -0.16793786053180493
v 0.046875 0.21213203435596428 -0.03535533905932742
v 0.046875 0.19003494744388466 -0.057452425971407026
v -0.046875 0.32261746891636217 -0.14584077361972533
v -0.046875 0.30052038200428255 -0.16793786053180493
v -0.046875 0.21213203435596428 -0.03535533905932742
v -0.046875 0.19003494744388466 -0.057452425971407026
vt 0.53125 0.6875
vt 0.5 0.6875
vt 0.5 0.59375
vt 0.53125 0.59375
vt 0.53125 0.90625
vt 0.53125 1
vt 0.5 1
vt 0.5 0.90625
vt 0.53125 0.90625
vt 0.59375 0.90625
vt 0.59375 0.9375
vt 0.53125 0.9375
vt 0.53125 0.84375
vt 0.53125 0.875
vt 0.46875 0.875
vt 0.46875 0.84375
vt 0.625 0.65625
vt 0.625 0.75
vt 0.5625 0.75
vt 0.5625 0.65625
vt 0.6875 0.875
vt 0.625 0.875
vt 0.625 0.78125
vt 0.6875 0.78125
vn 1 0 0
vn -1 0 0
vn 0 0.7071067811865475 -0.7071067811865476
vn 0 -0.7071067811865475 0.7071067811865476
vn 0 0.7071067811865476 0.7071067811865475
vn 0 -0.7071067811865476 -0.7071067811865475
usemtl m_499fa809-d4ae-e8ac-830e-e451def75437
f 10/25/7 9/26/7 11/27/7 12/28/7
f 15/29/8 13/30/8 14/31/8 16/32/8
f 13/33/9 9/34/9 10/35/9 14/36/9
f 12/37/10 11/38/10 15/39/10 16/40/10
f 11/41/11 9/42/11 13/43/11 15/44/11
f 14/45/12 10/46/12 12/47/12 16/48/12
o cube
v 0.03125 0.3106145148664041 0.01261935633494543
v 0.03125 0.3441957403880806 -0.04009260902835993
v 0.03125 0.1788346014581409 -0.07133370746924568
v 0.03125 0.2124158269798174 -0.12404567283255104
v -0.03125 0.3106145148664041 0.01261935633494543
v -0.03125 0.3441957403880806 -0.04009260902835993
v -0.03125 0.1788346014581409 -0.07133370746924568
v -0.03125 0.2124158269798174 -0.12404567283255104
vt 0.53125 0.625
vt 0.5 0.625
vt 0.5 0.53125
vt 0.53125 0.53125
vt 0.59375 0.90625
vt 0.59375 1
vt 0.5625 1
vt 0.5625 0.90625
vt 0.59375 0.90625
vt 0.65625 0.90625
vt 0.65625 0.9375
vt 0.59375 0.9375
vt 0.53125 0.84375
vt 0.53125 0.875
vt 0.46875 0.875
vt 0.46875 0.84375
vt 0.5625 0.65625
vt 0.5625 0.75
vt 0.5 0.75
vt 0.5 0.65625
vt 0.6875 0.875
vt 0.625 0.875
vt 0.625 0.78125
vt 0.6875 0.78125
vn 1 0 0
vn -1 0 0
vn 0 0.8433914458128857 0.5372996083468239
vn 0 -0.8433914458128857 -0.5372996083468239
vn 0 -0.5372996083468239 0.8433914458128857
vn 0 0.5372996083468239 -0.8433914458128857
usemtl m_499fa809-d4ae-e8ac-830e-e451def75437
f 18/49/13 17/50/13 19/51/13 20/52/13
f 23/53/14 21/54/14 22/55/14 24/56/14
f 21/57/15 17/58/15 18/59/15 22/60/15
f 20/61/16 19/62/16 23/63/16 24/64/16
f 19/65/17 17/66/17 21/67/17 23/68/17
f 22/69/18 18/70/18 20/71/18 24/72/18