# Made in Blockbench 4.6.5
mtllib MondoMellonStage1.mtl

o cube
v 0.0724436891104358 0.1381951041680463 0.16124578319441207
v 0.0945407760225154 0.11778005784185294 0.15278959412962775
v 0.00615242837419701 0.07694996518946623 0.1358772160000591
v 0.028249515286276616 0.056534918863272846 0.12742102693527474
v 0.0724436891104358 0.12623624690663726 0.1901170185853898
v 0.0945407760225154 0.10582120058044386 0.18166082952060544
v 0.006152428374197003 0.06499110792805717 0.16474845139103678
v 0.02824951528627661 0.04457606160186378 0.15629226232625246
vt 0.40625 0.65625
vt 0.40625 0.71875
vt 0.375 0.71875
vt 0.375 0.65625
vt 0.40625 0.65625
vt 0.375 0.65625
vt 0.375 0.59375
vt 0.40625 0.59375
vt 0.53125 0.875
vt 0.53125 0.90625
vt 0.5 0.90625
vt 0.5 0.875
vt 0.125 0.46875
vt 0.15625 0.46875
vt 0.15625 0.5
vt 0.125 0.5
vt 0.4375 1
vt 0.40625 1
vt 0.40625 0.9375
vt 0.4375 0.9375
vt 0.4375 0.78125
vt 0.4375 0.84375
vt 0.40625 0.84375
vt 0.40625 0.78125
vn 1.1102230246251568e-16 0.3826834323650901 -0.9238795325112866
vn -1.1102230246251568e-16 -0.3826834323650901 0.9238795325112866
vn 0.7071067811865478 0.6532814824381881 0.27059805007309884
vn -0.7071067811865478 -0.6532814824381881 -0.27059805007309884
vn -0.7071067811865476 0.6532814824381884 0.2705980500730986
vn 0.7071067811865476 -0.6532814824381884 -0.2705980500730986
usemtl m_426f05e1-9010-0902-a84a-0f241072af05
f 3/1/1 1/2/1 2/3/1 4/4/1
f 6/5/2 5/6/2 7/7/2 8/8/2
f 2/9/3 1/10/3 5/11/3 6/12/3
f 7/13/4 3/14/4 4/15/4 8/16/4
f 5/17/5 1/18/5 3/19/5 7/20/5
f 4/21/6 2/22/6 6/23/6 8/24/6
o cube
v 0.03125 0.09209075091953159 0.19177384757580465
v 0.03125 0.11346700987738587 0.13304305877668537
v 0.03125 -0.025370826678706965 0.14902132966009607
v 0.03125 -0.003994567720852674 0.09029054086097679
v -0.03125 0.09209075091953159 0.19177384757580465
v -0.03125 0.11346700987738587 0.13304305877668537
v -0.03125 -0.025370826678706965 0.14902132966009607
v -0.03125 -0.003994567720852674 0.09029054086097679
v 0.03125 0.1268002100585548 0.18777927985495196
v -0.03125 0.1268002100585548 0.18777927985495196
v -0.03125 0.1875245952040388 0.17298742234134265
v 0.03125 0.1875245952040388 0.17298742234134265
v -0.03125 0.17419139502286987 0.11825120126307605
v 0.03125 0.17419139502286987 0.11825120126307605
vt 0.40625 0.84375
vt 0.375 0.84375
vt 0.375 0.78125
vt 0.40625 0.78125
vt 0.21875 0.5625
vt 0.21875 0.625
vt 0.1875 0.625
vt 0.1875 0.5625
vt 0.5 0.5625
vt 0.5 0.59375
vt 0.46875 0.59375
vt 0.46875 0.5625
vt 0.25 0.5625
vt 0.25 0.625
vt 0.21875 0.625
vt 0.21875 0.5625
vt 0.40625 0.78125
vt 0.375 0.78125
vt 0.375 0.71875
vt 0.40625 0.71875
vt 0.5 0.53125
vt 0.46875 0.53125
vt 0.46875 0.5
vt 0.5 0.5
vt 0.53125 0.90625
vt 0.53125 0.9375
vt 0.5 0.9375
vt 0.5 0.90625
vt 0.09375 0.453125
vt 0.0859375 0.46875
vt 0.0625 0.453125
vt 0.5625 0.921875
vt 0.5390625 0.9375
vt 0.53125 0.921875
vt 0.46875 0.53125
vt 0.4375 0.53125
vt 0.4375 0.5
vt 0.46875 0.5
vt 0.53125 1
vt 0.5 1
vt 0.5 0.96875
vt 0.53125 0.96875
vt 0.5 0.53125
vt 0.5 0.5625
vt 0.46875 0.5625
vt 0.46875 0.53125
vt 0.53125 0.96875
vt 0.5 0.96875
vt 0.5 0.9375
vt 0.53125 0.9375
vn 1 0 0
vn -1 0 0
vn 0 -0.9396926207859084 -0.34202014332566866
vn 0 -0.34202014332566866 0.9396926207859084
vn 0 0.34202014332566866 -0.9396926207859084
vn 0 0.11433119954627818 0.9934426892429724
vn 0 0.9715901623277443 -0.23666972021774912
vn -1 0 0
vn 1 0 0
vn -1 0 0
vn 0 0.23666972021774924 0.9715901623277443
vn 1 0 0
vn 0 -0.23666972021774924 -0.9715901623277443
usemtl m_426f05e1-9010-0902-a84a-0f241072af05
f 10/25/7 9/26/7 11/27/7 12/28/7
f 15/29/8 13/30/8 14/31/8 16/32/8
f 12/33/9 11/34/9 15/35/9 16/36/9
f 11/37/10 9/38/10 13/39/10 15/40/10
f 14/41/11 10/42/11 12/43/11 16/44/11
f 17/45/12 18/46/12 13/47/12 9/48/12
f 21/49/13 19/50/13 20/51/13 22/52/13
f 13/53/14 18/54/14 14/55/14
f 10/56/15 17/57/15 9/58/15
f 19/59/16 21/60/16 14/61/16 18/62/16
f 20/63/17 19/64/17 18/65/17 17/66/17
f 22/67/18 20/68/18 17/69/18 10/70/18
f 21/71/19 22/72/19 10/73/19 14/74/19