# Made in Blockbench 4.6.4
mtllib SnackrootStage2.mtl

o cube
v 0.015625 0.09819423710702983 -0.08523445970252663
v 0.015625 0.0814036243461916 -0.11159044238417931
v 0.015625 -0.0072296936195808785 -0.01807200865917366
v 0.015625 -0.02402030638041912 -0.04442799134082634
v -0.015625 0.09819423710702983 -0.08523445970252663
v -0.015625 0.0814036243461916 -0.11159044238417931
v -0.015625 -0.0072296936195808785 -0.01807200865917366
v -0.015625 -0.02402030638041912 -0.04442799134082634
vt 0.75 0.8125
vt 0.6875 0.8125
vt 0.6875 0.6875
vt 0.75 0.6875
vt 0.375 0.1875
vt 0.375 0.3125
vt 0.3125 0.3125
vt 0.3125 0.1875
vt 0.8125 0.25
vt 0.875 0.25
vt 0.875 0.3125
vt 0.8125 0.3125
vt 0.8125 0.125
vt 0.8125 0.1875
vt 0.75 0.1875
vt 0.75 0.125
vt 0.75 0.5625
vt 0.75 0.6875
vt 0.6875 0.6875
vt 0.6875 0.5625
vt 0.4375 0.3125
vt 0.375 0.3125
vt 0.375 0.1875
vt 0.4375 0.1875
vn 1 0 0
vn -1 0 0
vn 0 0.8433914458128857 -0.5372996083468238
vn 0 -0.8433914458128857 0.5372996083468238
vn 0 0.5372996083468238 0.8433914458128857
vn 0 -0.5372996083468238 -0.8433914458128857
usemtl m_4330d9d5-7e07-ec7d-cee1-31a2df46ede9
f 2/1/1 1/2/1 3/3/1 4/4/1
f 7/5/2 5/6/2 6/7/2 8/8/2
f 5/9/3 1/10/3 2/11/3 6/12/3
f 4/13/4 3/14/4 7/15/4 8/16/4
f 3/17/5 1/18/5 5/19/5 7/20/5
f 6/21/6 2/22/6 4/23/6 8/24/6
o cube
v 0.046875 0.15751064014869598 -0.19464667572046573
v 0.046875 0.12979155161187655 -0.20907631988406056
v 0.046875 0.09979206349431674 -0.08377032157318802
v 0.046875 0.07207297495749732 -0.09819996573678283
v -0.046875 0.15751064014869598 -0.19464667572046573
v -0.046875 0.12979155161187655 -0.20907631988406056
v -0.046875 0.09979206349431674 -0.08377032157318802
v -0.046875 0.07207297495749732 -0.09819996573678283
vt 0.75 1
vt 0.6875 1
vt 0.6875 0.875
vt 0.75 0.875
vt 0.1875 0.1875
vt 0.1875 0.3125
vt 0.125 0.3125
vt 0.125 0.1875
vt 0.6875 0.8125
vt 0.8125 0.8125
vt 0.8125 0.875
vt 0.6875 0.875
vt 0.3125 0.25
vt 0.3125 0.3125
vt 0.1875 0.3125
vt 0.1875 0.25
vt 0.125 0.875
vt 0.125 1
vt 0 1
vt 0 0.875
vt 0.125 0.875
vt 0 0.875
vt 0 0.75
vt 0.125 0.75
vn 1 0 0
vn -1 0 0
vn 0 0.4617486132350339 -0.8870108331782217
vn 0 -0.4617486132350339 0.8870108331782217
vn 0 0.8870108331782217 0.4617486132350339
vn 0 -0.8870108331782217 -0.4617486132350339
usemtl m_4330d9d5-7e07-ec7d-cee1-31a2df46ede9
f 10/25/7 9/26/7 11/27/7 12/28/7
f 15/29/8 13/30/8 14/31/8 16/32/8
f 13/33/9 9/34/9 10/35/9 14/36/9
f 12/37/10 11/38/10 15/39/10 16/40/10
f 11/41/11 9/42/11 13/43/11 15/44/11
f 14/45/12 10/46/12 12/47/12 16/48/12
o cube
v 0.14513146593611506 0.15751064014869598 0.1379182786626284
v 0.15762790434935803 0.12979155161187655 0.1451331007444258
v 0.049109726565572456 0.09979206349431674 0.08248010158898957
v 0.06160616497881542 0.07207297495749732 0.08969492367078696
v 0.19200646593611503 0.15751064014869598 0.056728397057837256
v 0.20450290434935803 0.12979155161187655 0.06394321913963466
v 0.09598472656557243 0.09979206349431674 0.0012902199841984263
v 0.1084811649788154 0.07207297495749732 0.008505042065995824
vt 0.5 0.3125
vt 0.4375 0.3125
vt 0.4375 0.1875
vt 0.5 0.1875
vt 0.75 0.4375
vt 0.75 0.5625
vt 0.6875 0.5625
vt 0.6875 0.4375
vt 0.5 0.25
vt 0.625 0.25
vt 0.625 0.3125
vt 0.5 0.3125
vt 0.8125 0.375
vt 0.8125 0.4375
vt 0.6875 0.4375
vt 0.6875 0.375
vt 0.25 0.875
vt 0.25 1
vt 0.125 1
vt 0.125 0.875
vt 0.25 0.875
vt 0.125 0.875
vt 0.125 0.75
vt 0.25 0.75
vn -0.4999999999999998 0 0.8660254037844388
vn 0.4999999999999998 0 -0.8660254037844388
vn 0.768173914964341 0.46174861323503397 0.44350541658911063
vn -0.768173914964341 -0.46174861323503397 -0.44350541658911063
vn -0.39988602922377503 0.8870108331782219 -0.2308743066175169
vn 0.39988602922377503 -0.8870108331782219 0.2308743066175169
usemtl m_4330d9d5-7e07-ec7d-cee1-31a2df46ede9
f 18/49/13 17/50/13 19/51/13 20/52/13
f 23/53/14 21/54/14 22/55/14 24/56/14
f 21/57/15 17/58/15 18/59/15 22/60/15
f 20/61/16 19/62/16 23/63/16 24/64/16
f 19/65/17 17/66/17 21/67/17 23/68/17
f 22/69/18 18/70/18 20/71/18 24/72/18
o cube
v 0.06600270738022912 0.09819423710702983 0.05614887678539515
v 0.08882765792424305 0.0814036243461916 0.06932686812622149
v 0.00783831859625675 -0.0072296936195808785 0.022567651263718683
v 0.030663269140270684 -0.02402030638041912 0.03574564260454502
v 0.08162770738022909 0.09819423710702983 0.029085582917131442
v 0.10445265792424303 0.0814036243461916 0.04226357425795778
v 0.023463318596256742 -0.0072296936195808785 -0.00449564260454503
v 0.04628826914027068 -0.02402030638041912 0.008682348736281303
vt 0.75 0.375
vt 0.6875 0.375
vt 0.6875 0.25
vt 0.75 0.25
vt 0.0625 0.125
vt 0.0625 0.25
vt 0 0.25
vt 0 0.125
vt 0.8125 0.1875
vt 0.875 0.1875
vt 0.875 0.25
vt 0.8125 0.25
vt 0.875 0.125
vt 0.875 0.1875
vt 0.8125 0.1875
vt 0.8125 0.125
vt 0.8125 0.875
vt 0.8125 1
vt 0.75 1
vt 0.75 0.875
vt 0.125 0.25
vt 0.0625 0.25
vt 0.0625 0.125
vt 0.125 0.125
vn -0.4999999999999998 0 0.8660254037844388
vn 0.4999999999999998 0 -0.8660254037844388
vn 0.4653151102717789 0.8433914458128857 0.2686498041734118
vn -0.4653151102717789 -0.8433914458128857 -0.2686498041734118
vn -0.730398417408446 0.5372996083468238 -0.4216957229064427
vn 0.730398417408446 -0.5372996083468238 0.4216957229064427
usemtl m_4330d9d5-7e07-ec7d-cee1-31a2df46ede9
f 26/73/19 25/74/19 27/75/19 28/76/19
f 31/77/20 29/78/20 30/79/20 32/80/20
f 29/81/21 25/82/21 26/83/21 30/84/21
f 28/85/22 27/86/22 31/87/22 32/88/22
f 27/89/23 25/90/23 29/91/23 31/92/23
f 30/93/24 26/94/24 28/95/24 32/96/24
o cube
v -0.19200646593611503 0.15751064014869598 0.056728397057837256
v -0.20450290434935803 0.12979155161187655 0.06394321913963466
v -0.09598472656557243 0.09979206349431674 0.0012902199841984263
v -0.1084811649788154 0.07207297495749732 0.008505042065995824
v -0.14513146593611506 0.15751064014869598 0.1379182786626284
v -0.15762790434935803 0.12979155161187655 0.1451331007444258
v -0.049109726565572456 0.09979206349431674 0.08248010158898957
v -0.06160616497881542 0.07207297495749732 0.08969492367078696
vt 0.25 0.25
vt 0.1875 0.25
vt 0.1875 0.125
vt 0.25 0.125
vt 0.8125 0.6875
vt 0.8125 0.8125
vt 0.75 0.8125
vt 0.75 0.6875
vt 0.75 0.625
vt 0.875 0.625
vt 0.875 0.6875
vt 0.75 0.6875
vt 0.875 0.5625
vt 0.875 0.625
vt 0.75 0.625
vt 0.75 0.5625
vt 0.125 0.625
vt 0.125 0.75
vt 0 0.75
vt 0 0.625
vt 0.375 1
vt 0.25 1
vt 0.25 0.875
vt 0.375 0.875
vn -0.4999999999999998 0 -0.8660254037844388
vn 0.4999999999999998 0 0.8660254037844388
vn -0.768173914964341 0.46174861323503397 0.44350541658911063
vn 0.768173914964341 -0.46174861323503397 -0.44350541658911063
vn 0.39988602922377503 0.8870108331782219 -0.2308743066175169
vn -0.39988602922377503 -0.8870108331782219 0.2308743066175169
usemtl m_4330d9d5-7e07-ec7d-cee1-31a2df46ede9
f 34/97/25 33/98/25 35/99/25 36/100/25
f 39/101/26 37/102/26 38/103/26 40/104/26
f 37/105/27 33/106/27 34/107/27 38/108/27
f 36/109/28 35/110/28 39/111/28 40/112/28
f 35/113/29 33/114/29 37/115/29 39/116/29
f 38/117/30 34/118/30 36/119/30 40/120/30
o cube
v -0.08162770738022909 0.09819423710702983 0.029085582917131442
v -0.10445265792424303 0.0814036243461916 0.04226357425795778
v -0.023463318596256742 -0.0072296936195808785 -0.00449564260454503
v -0.04628826914027068 -0.02402030638041912 0.008682348736281303
v -0.06600270738022912 0.09819423710702983 0.05614887678539515
v -0.08882765792424305 0.0814036243461916 0.06932686812622149
v -0.00783831859625675 -0.0072296936195808785 0.022567651263718683
v -0.030663269140270684 -0.02402030638041912 0.03574564260454502
vt 0.3125 0.25
vt 0.25 0.25
vt 0.25 0.125
vt 0.3125 0.125
vt 0.8125 0.4375
vt 0.8125 0.5625
vt 0.75 0.5625
vt 0.75 0.4375
vt 0 0.0625
vt 0.0625 0.0625
vt 0.0625 0.125
vt 0 0.125
vt 0.125 0.0625
vt 0.125 0.125
vt 0.0625 0.125
vt 0.0625 0.0625
vt 0.5625 0.125
vt 0.5625 0.25
vt 0.5 0.25
vt 0.5 0.125
vt 0.625 0.25
vt 0.5625 0.25
vt 0.5625 0.125
vt 0.625 0.125
vn -0.4999999999999998 0 -0.8660254037844388
vn 0.4999999999999998 0 0.8660254037844388
vn -0.4653151102717789 0.8433914458128857 0.2686498041734118
vn 0.4653151102717789 -0.8433914458128857 -0.2686498041734118
vn 0.730398417408446 0.5372996083468238 -0.4216957229064427
vn -0.730398417408446 -0.5372996083468238 0.4216957229064427
usemtl m_4330d9d5-7e07-ec7d-cee1-31a2df46ede9
f 42/121/31 41/122/31 43/123/31 44/124/31
f 47/125/32 45/126/32 46/127/32 48/128/32
f 45/129/33 41/130/33 42/131/33 46/132/33
f 44/133/34 43/134/34 47/135/34 48/136/34
f 43/137/35 41/138/35 45/139/35 47/140/35
f 46/141/36 42/142/36 44/143/36 48/144/36