# Made in Blockbench 4.6.5
mtllib NatureTree.mtl

o cube
v 0.125 3.25 0.125
v 0.125 3.25 -0.125
v 0.125 0 0.125
v 0.125 0 -0.125
v -0.125 3.25 0.125
v -0.125 3.25 -0.125
v -0.125 0 0.125
v -0.125 0 -0.125
vt 0.90625 0.6875
vt 0.875 0.6875
vt 0.875 0.28125
vt 0.90625 0.28125
vt 0.9375 0.28125
vt 0.9375 0.6875
vt 0.90625 0.6875
vt 0.90625 0.28125
vt 0.8125 0.7109375
vt 0.84375 0.7109375
vt 0.84375 0.7421875
vt 0.8125 0.7421875
vt 0.9375 0.9375
vt 0.9375 0.96875
vt 0.90625 0.96875
vt 0.90625 0.9375
vt 0.96875 0.28125
vt 0.96875 0.6875
vt 0.9375 0.6875
vt 0.9375 0.28125
vt 1 0.6875
vt 0.96875 0.6875
vt 0.96875 0.28125
vt 1 0.28125
vn 1 0 0
vn -1 0 0
vn 0 1 0
vn 0 -1 0
vn 0 0 1
vn 0 0 -1
usemtl m_e9e72fd3-732a-2546-2014-ba51bc12122e
f 2/1/1 1/2/1 3/3/1 4/4/1
f 7/5/2 5/6/2 6/7/2 8/8/2
f 5/9/3 1/10/3 2/11/3 6/12/3
f 4/13/4 3/14/4 7/15/4 8/16/4
f 3/17/5 1/18/5 5/19/5 7/20/5
f 6/21/6 2/22/6 4/23/6 8/24/6
o cube
v -0.0625 1.5625 0.0625
v -0.0625 1.5625 -0.0625
v -0.0625 1.4375 0.0625
v -0.0625 1.4375 -0.0625
v -0.75 1.5625 0.0625
v -0.75 1.5625 -0.0625
v -0.75 1.4375 0.0625
v -0.75 1.4375 -0.0625
v -0.875 1.5625 0.0625
v -0.875 1.5625 -0.0625
v -0.875 1.4375 0.0625
v -0.875 1.4375 -0.0625
v -0.875 2.125 -0.0625
v -0.875 2.125 0.0625
v -0.75 2.125 0.0625
v -0.75 2.125 -0.0625
vt 0.890625 0.7734375
vt 0.875 0.7734375
vt 0.875 0.7578125
vt 0.890625 0.7578125
vt 0.90625 0.7578125
vt 0.90625 0.7734375
vt 0.890625 0.7734375
vt 0.890625 0.7578125
vt 0.9140625 0.578125
vt 1 0.578125
vt 1 0.59375
vt 0.9140625 0.59375
vt 0.9296875 0.5
vt 0.9296875 0.515625
vt 0.84375 0.515625
vt 0.84375 0.5
vt 0.8984375 0.2890625
vt 0.8984375 0.3046875
vt 0.8125 0.3046875
vt 0.8125 0.2890625
vt 0.984375 0.3046875
vt 0.8984375 0.3046875
vt 0.8984375 0.2890625
vt 0.984375 0.2890625
vt 0.828125 0.3984375
vt 0.828125 0.3828125
vt 0.84375 0.3828125
vt 0.84375 0.3984375
vt 0.9296875 0.2734375
vt 0.9296875 0.2578125
vt 0.9453125 0.2578125
vt 0.9453125 0.2734375
vt 0.875 0.890625
vt 0.875 0.90625
vt 0.859375 0.90625
vt 0.859375 0.890625
vt 0.859375 0.890625
vt 0.859375 0.875
vt 0.875 0.875
vt 0.875 0.890625
vt 0.84375 0.2890625
vt 0.828125 0.2890625
vt 0.828125 0.21875
vt 0.84375 0.21875
vt 0.859375 0.2890625
vt 0.84375 0.2890625
vt 0.84375 0.21875
vt 0.859375 0.21875
vt 0.875 0.2890625
vt 0.859375 0.2890625
vt 0.859375 0.21875
vt 0.875 0.21875
vt 0.890625 0.2890625
vt 0.875 0.2890625
vt 0.875 0.21875
vt 0.890625 0.21875
vn 1 0 0
vn -1 0 0
vn 0 1 0
vn 0 -1 0
vn 0 0 1
vn 0 0 -1
vn 0 0 1
vn 0 1 0
vn 0 0 -1
vn 0 -1 0
vn -1 0 0
vn 0 0 1
vn 1 0 0
vn 0 0 -1
usemtl m_e9e72fd3-732a-2546-2014-ba51bc12122e
f 10/25/7 9/26/7 11/27/7 12/28/7
f 19/29/8 17/30/8 18/31/8 20/32/8
f 13/33/9 9/34/9 10/35/9 14/36/9
f 12/37/10 11/38/10 15/39/10 16/40/10
f 11/41/11 9/42/11 13/43/11 15/44/11
f 14/45/12 10/46/12 12/47/12 16/48/12
f 17/49/13 19/50/13 15/51/13 13/52/13
f 21/53/14 22/54/14 23/55/14 24/56/14
f 20/57/15 18/58/15 14/59/15 16/60/15
f 19/61/16 20/62/16 16/63/16 15/64/16
f 22/65/17 21/66/17 18/67/17 17/68/17
f 23/69/18 22/70/18 17/71/18 13/72/18
f 24/73/19 23/74/19 13/75/19 14/76/19
f 21/77/20 24/78/20 14/79/20 18/80/20
o cube
v 0.0625 2.5 0.12499999999999989
v -0.0625 2.5 0.12499999999999986
v 0.0625 2.375 0.12499999999999989
v -0.0625 2.375 0.12499999999999986
v 0.06249999999999989 2.5 0.6249999999999999
v -0.06250000000000011 2.5 0.6249999999999999
v 0.06249999999999989 2.375 0.6249999999999999
v -0.06250000000000011 2.375 0.6249999999999999
v 0.06249999999999978 2.5 0.7499999999999999
v -0.06250000000000022 2.5 0.7499999999999999
v 0.06249999999999978 2.375 0.7499999999999999
v -0.06250000000000022 2.375 0.7499999999999999
v -0.06250000000000022 3 0.7499999999999999
v 0.06249999999999978 3 0.7499999999999999
v 0.06249999999999989 3 0.6249999999999999
v -0.06250000000000011 3 0.6249999999999999
vt 0.875 0.75
vt 0.859375 0.75
vt 0.859375 0.734375
vt 0.875 0.734375
vt 0.875 0.71875
vt 0.875 0.734375
vt 0.859375 0.734375
vt 0.859375 0.71875
vt 0.8671875 0.3984375
vt 0.9296875 0.3984375
vt 0.9296875 0.4140625
vt 0.8671875 0.4140625
vt 0.96875 0.984375
vt 0.96875 1
vt 0.90625 1
vt 0.90625 0.984375
vt 1 0.90625
vt 1 0.921875
vt 0.9375 0.921875
vt 0.9375 0.90625
vt 1 0.90625
vt 0.9375 0.90625
vt 0.9375 0.890625
vt 1 0.890625
vt 0.859375 0.71875
vt 0.859375 0.703125
vt 0.875 0.703125
vt 0.875 0.71875
vt 0.953125 0.765625
vt 0.953125 0.75
vt 0.96875 0.75
vt 0.96875 0.765625
vt 0.875 0.671875
vt 0.875 0.6875
vt 0.859375 0.6875
vt 0.859375 0.671875
vt 0.859375 0.671875
vt 0.859375 0.65625
vt 0.875 0.65625
vt 0.875 0.671875
vt 0.90625 0.3515625
vt 0.890625 0.3515625
vt 0.890625 0.2890625
vt 0.90625 0.2890625
vt 0.921875 0.3515625
vt 0.90625 0.3515625
vt 0.90625 0.2890625
vt 0.921875 0.2890625
vt 0.953125 0.75
vt 0.9375 0.75
vt 0.9375 0.6875
vt 0.953125 0.6875
vt 0.859375 0.5859375
vt 0.84375 0.5859375
vt 0.84375 0.5234375
vt 0.859375 0.5234375
vn 2.220446049250313e-16 0 -1
vn -2.220446049250313e-16 0 1
vn 0 1 0
vn 0 -1 0
vn 1 0 2.220446049250313e-16
vn -1 0 -2.220446049250313e-16
vn 1 0 2.220446049250313e-16
vn 0 1 0
vn -1 0 -2.220446049250313e-16
vn 0 -1 0
vn -2.220446049250313e-16 0 1
vn 1 0 2.220446049250313e-16
vn 2.220446049250313e-16 0 -1
vn -1 0 -2.220446049250313e-16
usemtl m_e9e72fd3-732a-2546-2014-ba51bc12122e
f 26/81/21 25/82/21 27/83/21 28/84/21
f 35/85/22 33/86/22 34/87/22 36/88/22
f 29/89/23 25/90/23 26/91/23 30/92/23
f 28/93/24 27/94/24 31/95/24 32/96/24
f 27/97/25 25/98/25 29/99/25 31/100/25
f 30/101/26 26/102/26 28/103/26 32/104/26
f 33/105/27 35/106/27 31/107/27 29/108/27
f 37/109/28 38/110/28 39/111/28 40/112/28
f 36/113/29 34/114/29 30/115/29 32/116/29
f 35/117/30 36/118/30 32/119/30 31/120/30
f 38/121/31 37/122/31 34/123/31 33/124/31
f 39/125/32 38/126/32 33/127/32 29/128/32
f 40/129/33 39/130/33 29/131/33 30/132/33
f 37/133/34 40/134/34 30/135/34 34/136/34
o cube
v 0.0625 2.75 -0.125
v 0.0625 2.75 -0.8125
v 0.0625 2.625 -0.125
v 0.0625 2.625 -0.8125
v -0.0625 2.75 -0.125
v -0.0625 2.75 -0.8125
v -0.0625 2.625 -0.125
v -0.0625 2.625 -0.8125
vt 0.9765625 0.5
vt 0.890625 0.5
vt 0.890625 0.484375
vt 0.9765625 0.484375
vt 0.9765625 0.46875
vt 0.9765625 0.484375
vt 0.890625 0.484375
vt 0.890625 0.46875
vt 0.796875 0.15625
vt 0.8125 0.15625
vt 0.8125 0.2421875
vt 0.796875 0.2421875
vt 0.828125 0.15625
vt 0.828125 0.2421875
vt 0.8125 0.2421875
vt 0.8125 0.15625
vt 0.96875 0.703125
vt 0.96875 0.71875
vt 0.953125 0.71875
vt 0.953125 0.703125
vt 0.9375 0.765625
vt 0.921875 0.765625
vt 0.921875 0.75
vt 0.9375 0.75
vn 1 0 0
vn -1 0 0
vn 0 1 0
vn 0 -1 0
vn 0 0 1
vn 0 0 -1
usemtl m_e9e72fd3-732a-2546-2014-ba51bc12122e
f 42/137/35 41/138/35 43/139/35 44/140/35
f 47/141/36 45/142/36 46/143/36 48/144/36
f 45/145/37 41/146/37 42/147/37 46/148/37
f 44/149/38 43/150/38 47/151/38 48/152/38
f 43/153/39 41/154/39 45/155/39 47/156/39
f 46/157/40 42/158/40 44/159/40 48/160/40
o cube
v 0.0625 1.5625 -0.125
v 0.0625 1.5625 -0.5
v 0.0625 1.4375 -0.125
v 0.0625 1.4375 -0.5
v -0.0625 1.5625 -0.125
v -0.0625 1.5625 -0.5
v -0.0625 1.4375 -0.125
v -0.0625 1.4375 -0.5
vt 0.953125 0.953125
vt 0.90625 0.953125
vt 0.90625 0.9375
vt 0.953125 0.9375
vt 0.953125 0.921875
vt 0.953125 0.9375
vt 0.90625 0.9375
vt 0.90625 0.921875
vt 0.859375 0.4140625
vt 0.875 0.4140625
vt 0.875 0.4609375
vt 0.859375 0.4609375
vt 0.890625 0.4140625
vt 0.890625 0.4609375
vt 0.875 0.4609375
vt 0.875 0.4140625
vt 0.9375 0.4296875
vt 0.9375 0.4453125
vt 0.921875 0.4453125
vt 0.921875 0.4296875
vt 0.9453125 0.53125
vt 0.9296875 0.53125
vt 0.9296875 0.515625
vt 0.9453125 0.515625
vn 1 0 0
vn -1 0 0
vn 0 1 0
vn 0 -1 0
vn 0 0 1
vn 0 0 -1
usemtl m_e9e72fd3-732a-2546-2014-ba51bc12122e
f 50/161/41 49/162/41 51/163/41 52/164/41
f 55/165/42 53/166/42 54/167/42 56/168/42
f 53/169/43 49/170/43 50/171/43 54/172/43
f 52/173/44 51/174/44 55/175/44 56/176/44
f 51/177/45 49/178/45 53/179/45 55/180/45
f 54/181/46 50/182/46 52/183/46 56/184/46
o cube
v 0.75 1.8125 0.0625
v 0.75 1.8125 -0.0625
v 0.75 1.6875 0.0625
v 0.75 1.6875 -0.0625
v 0.125 1.8125 0.0625
v 0.125 1.8125 -0.0625
v 0.125 1.6875 0.0625
v 0.125 1.6875 -0.0625
v 0.875 1.8125 0.0625
v 0.875 1.6875 0.0625
v 0.875 1.8125 -0.0625
v 0.875 1.6875 -0.0625
v 0.875 1.6875 0.375
v 0.875 1.8125 0.375
v 0.75 1.8125 0.375
v 0.75 1.6875 0.375
v 0.875 2.5 0.0625
v 0.875 2.5 -0.0625
v 0.75 2.5 -0.0625
v 0.75 2.5 0.0625
vt 0.859375 0.3203125
vt 0.84375 0.3203125
vt 0.84375 0.3046875
vt 0.859375 0.3046875
vt 0.875 0.3046875
vt 0.875 0.3203125
vt 0.859375 0.3203125
vt 0.859375 0.3046875
vt 0.890625 0.453125
vt 0.96875 0.453125
vt 0.96875 0.46875
vt 0.890625 0.46875
vt 0.96875 0.4375
vt 0.96875 0.453125
vt 0.890625 0.453125
vt 0.890625 0.4375
vt 0.96875 0.421875
vt 0.96875 0.4375
vt 0.890625 0.4375
vt 0.890625 0.421875
vt 0.96875 0.421875
vt 0.890625 0.421875
vt 0.890625 0.40625
vt 0.96875 0.40625
vt 0.890625 0.3046875
vt 0.890625 0.3203125
vt 0.875 0.3203125
vt 0.875 0.3046875
vt 0.890625 0.890625
vt 0.890625 0.90625
vt 0.875 0.90625
vt 0.875 0.890625
vt 0.890625 0.875
vt 0.890625 0.890625
vt 0.875 0.890625
vt 0.875 0.875
vt 0.875 0.875
vt 0.875 0.859375
vt 0.890625 0.859375
vt 0.890625 0.875
vt 0.90625 0.734375
vt 0.90625 0.71875
vt 0.9453125 0.71875
vt 0.9453125 0.734375
vt 0.8125 0.6796875
vt 0.828125 0.6796875
vt 0.828125 0.71875
vt 0.8125 0.71875
vt 0.8671875 0.3203125
vt 0.8671875 0.3359375
vt 0.828125 0.3359375
vt 0.828125 0.3203125
vt 0.84375 0.71875
vt 0.828125 0.71875
vt 0.828125 0.6796875
vt 0.84375 0.6796875
vt 0.84375 0.2421875
vt 0.828125 0.2421875
vt 0.828125 0.15625
vt 0.84375 0.15625
vt 0.859375 0.2421875
vt 0.84375 0.2421875
vt 0.84375 0.15625
vt 0.859375 0.15625
vt 0.875 0.2421875
vt 0.859375 0.2421875
vt 0.859375 0.15625
vt 0.875 0.15625
vt 0.953125 0.2265625
vt 0.9375 0.2265625
vt 0.9375 0.140625
vt 0.953125 0.140625
vn 1 0 0
vn -1 0 0
vn 0 1 0
vn 0 -1 0
vn 0 0 1
vn 0 0 -1
vn 0 1 0
vn 0 0 1
vn 0 -1 0
vn 0 0 -1
vn 1 0 0
vn 0 1 0
vn -1 0 0
vn 0 -1 0
vn 1 0 0
vn 0 0 -1
vn -1 0 0
vn 0 0 1
usemtl m_e9e72fd3-732a-2546-2014-ba51bc12122e
f 67/185/47 65/186/47 66/187/47 68/188/47
f 63/189/48 61/190/48 62/191/48 64/192/48
f 61/193/49 57/194/49 58/195/49 62/196/49
f 60/197/50 59/198/50 63/199/50 64/200/50
f 59/201/51 57/202/51 61/203/51 63/204/51
f 62/205/52 58/206/52 60/207/52 64/208/52
f 73/209/53 74/210/53 75/211/53 76/212/53
f 69/213/54 70/214/54 71/215/54 72/216/54
f 68/217/55 66/218/55 59/219/55 60/220/55
f 67/221/56 68/222/56 60/223/56 58/224/56
f 70/225/57 69/226/57 66/227/57 65/228/57
f 71/229/58 70/230/58 65/231/58 57/232/58
f 72/233/59 71/234/59 57/235/59 59/236/59
f 69/237/60 72/238/60 59/239/60 66/240/60
f 74/241/61 73/242/61 65/243/61 67/244/61
f 75/245/62 74/246/62 67/247/62 58/248/62
f 76/249/63 75/250/63 58/251/63 57/252/63
f 73/253/64 76/254/64 57/255/64 65/256/64
o cube
v 0.0625 1.8125 0.5
v 0.0625 1.8125 0.125
v 0.0625 1.6875 0.5
v 0.0625 1.6875 0.125
v -0.0625 1.8125 0.5
v -0.0625 1.8125 0.125
v -0.0625 1.6875 0.5
v -0.0625 1.6875 0.125
vt 0.953125 0.921875
vt 0.90625 0.921875
vt 0.90625 0.90625
vt 0.953125 0.90625
vt 0.953125 0.734375
vt 0.953125 0.75
vt 0.90625 0.75
vt 0.90625 0.734375
vt 0.828125 0.4140625
vt 0.84375 0.4140625
vt 0.84375 0.4609375
vt 0.828125 0.4609375
vt 0.859375 0.4140625
vt 0.859375 0.4609375
vt 0.84375 0.4609375
vt 0.84375 0.4140625
vt 0.96875 0.4296875
vt 0.96875 0.4453125
vt 0.953125 0.4453125
vt 0.953125 0.4296875
vt 0.9453125 0.515625
vt 0.9296875 0.515625
vt 0.9296875 0.5
vt 0.9453125 0.5
vn 1 0 0
vn -1 0 0
vn 0 1 0
vn 0 -1 0
vn 0 0 1
vn 0 0 -1
usemtl m_e9e72fd3-732a-2546-2014-ba51bc12122e
f 78/257/65 77/258/65 79/259/65 80/260/65
f 83/261/66 81/262/66 82/263/66 84/264/66
f 81/265/67 77/266/67 78/267/67 82/268/67
f 80/269/68 79/270/68 83/271/68 84/272/68
f 79/273/69 77/274/69 81/275/69 83/276/69
f 82/277/70 78/278/70 80/279/70 84/280/70
o cube
v 0.75 4.25 0.75
v 0.75 4.25 -0.75
v 0.75 3.25 0.75
v 0.75 3.25 -0.75
v -0.75 4.25 0.75
v -0.75 4.25 -0.75
v -0.75 3.25 0.75
v -0.75 3.25 -0.75
vt 0.375 1
vt 0.1875 1
vt 0.1875 0.875
vt 0.375 0.875
vt 0.375 0.75
vt 0.375 0.875
vt 0.1875 0.875
vt 0.1875 0.75
vt 0 0.8125
vt 0.1875 0.8125
vt 0.1875 1
vt 0 1
vt 0.1875 0.625
vt 0.1875 0.8125
vt 0 0.8125
vt 0 0.625
vt 0.375 0.625
vt 0.375 0.75
vt 0.1875 0.75
vt 0.1875 0.625
vt 0.1875 0.625
vt 0 0.625
vt 0 0.5
vt 0.1875 0.5
vn 1 0 0
vn -1 0 0
vn 0 1 0
vn 0 -1 0
vn 0 0 1
vn 0 0 -1
usemtl m_e9e72fd3-732a-2546-2014-ba51bc12122e
f 86/281/71 85/282/71 87/283/71 88/284/71
f 91/285/72 89/286/72 90/287/72 92/288/72
f 89/289/73 85/290/73 86/291/73 90/292/73
f 88/293/74 87/294/74 91/295/74 92/296/74
f 87/297/75 85/298/75 89/299/75 91/300/75
f 90/301/76 86/302/76 88/303/76 92/304/76
o cube
v 0.5 3.6875 1.375
v 0.5 3.6875 0.375
v 0.5 2.9375 1.375
v 0.5 2.9375 0.375
v -0.5 3.6875 1.375
v -0.5 3.6875 0.375
v -0.5 2.9375 1.375
v -0.5 2.9375 0.375
vt 0.625 0.8671875
vt 0.5 0.8671875
vt 0.5 0.7734375
vt 0.625 0.7734375
vt 0.625 0.6796875
vt 0.625 0.7734375
vt 0.5 0.7734375
vt 0.5 0.6796875
vt 0.375 0.875
vt 0.5 0.875
vt 0.5 1
vt 0.375 1
vt 0.5 0.75
vt 0.5 0.875
vt 0.375 0.875
vt 0.375 0.75
vt 0.34375 0.3984375
vt 0.34375 0.4921875
vt 0.21875 0.4921875
vt 0.21875 0.3984375
vt 0.46875 0.4921875
vt 0.34375 0.4921875
vt 0.34375 0.3984375
vt 0.46875 0.3984375
vn 1 0 0
vn -1 0 0
vn 0 1 0
vn 0 -1 0
vn 0 0 1
vn 0 0 -1
usemtl m_e9e72fd3-732a-2546-2014-ba51bc12122e
f 94/305/77 93/306/77 95/307/77 96/308/77
f 99/309/78 97/310/78 98/311/78 100/312/78
f 97/313/79 93/314/79 94/315/79 98/316/79
f 96/317/80 95/318/80 99/319/80 100/320/80
f 95/321/81 93/322/81 97/323/81 99/324/81
f 98/325/82 94/326/82 96/327/82 100/328/82
o cube
v 0.4375 3 -0.4375
v 0.4375 3 -1.1875
v 0.4375 2.25 -0.4375
v 0.4375 2.25 -1.1875
v -0.4375 3 -0.4375
v -0.4375 3 -1.1875
v -0.4375 2.25 -0.4375
v -0.4375 2.25 -1.1875
vt 0.71875 0.8125
vt 0.625 0.8125
vt 0.625 0.71875
vt 0.71875 0.71875
vt 0.21875 0.2734375
vt 0.21875 0.3671875
vt 0.125 0.3671875
vt 0.125 0.2734375
vt 0.59375 0.3984375
vt 0.703125 0.3984375
vt 0.703125 0.4921875
vt 0.59375 0.4921875
vt 0.328125 0.3046875
vt 0.328125 0.3984375
vt 0.21875 0.3984375
vt 0.21875 0.3046875
vt 0.4375 0.3046875
vt 0.4375 0.3984375
vt 0.328125 0.3984375
vt 0.328125 0.3046875
vt 0.546875 0.3984375
vt 0.4375 0.3984375
vt 0.4375 0.3046875
vt 0.546875 0.3046875
vn 1 0 0
vn -1 0 0
vn 0 1 0
vn 0 -1 0
vn 0 0 1
vn 0 0 -1
usemtl m_e9e72fd3-732a-2546-2014-ba51bc12122e
f 102/329/83 101/330/83 103/331/83 104/332/83
f 107/333/84 105/334/84 106/335/84 108/336/84
f 105/337/85 101/338/85 102/339/85 106/340/85
f 104/341/86 103/342/86 107/343/86 108/344/86
f 103/345/87 101/346/87 105/347/87 107/348/87
f 106/349/88 102/350/88 104/351/88 108/352/88
o cube
v 1.3125 3.4375 0.375
v 1.3125 3.4375 -0.375
v 1.3125 2.375 0.375
v 1.3125 2.375 -0.375
v 0.4375 3.4375 0.375
v 0.4375 3.4375 -0.375
v 0.4375 2.375 0.375
v 0.4375 2.375 -0.375
vt 0.59375 1
vt 0.5 1
vt 0.5 0.8671875
vt 0.59375 0.8671875
vt 0.21875 0.3671875
vt 0.21875 0.5
vt 0.125 0.5
vt 0.125 0.3671875
vt 0.546875 0.3046875
vt 0.65625 0.3046875
vt 0.65625 0.3984375
vt 0.546875 0.3984375
vt 0.734375 0.8125
vt 0.734375 0.90625
vt 0.625 0.90625
vt 0.625 0.8125
vt 0.421875 0.4921875
vt 0.421875 0.625
vt 0.3125 0.625
vt 0.3125 0.4921875
vt 0.53125 0.625
vt 0.421875 0.625
vt 0.421875 0.4921875
vt 0.53125 0.4921875
vn 1 0 0
vn -1 0 0
vn 0 1 0
vn 0 -1 0
vn 0 0 1
vn 0 0 -1
usemtl m_e9e72fd3-732a-2546-2014-ba51bc12122e
f 110/353/89 109/354/89 111/355/89 112/356/89
f 115/357/90 113/358/90 114/359/90 116/360/90
f 113/361/91 109/362/91 110/363/91 114/364/91
f 112/365/92 111/366/92 115/367/92 116/368/92
f 111/369/93 109/370/93 113/371/93 115/372/93
f 114/373/94 110/374/94 112/375/94 116/376/94
o cube
v -0.3125 2.625 0.4375
v -0.3125 2.625 -0.5625
v -0.3125 1.875 0.4375
v -0.3125 1.875 -0.5625
v -1.3125 2.625 0.4375
v -1.3125 2.625 -0.5625
v -1.3125 1.875 0.4375
v -1.3125 1.875 -0.5625
vt 0.59375 0.4921875
vt 0.46875 0.4921875
vt 0.46875 0.3984375
vt 0.59375 0.3984375
vt 0.65625 0.5859375
vt 0.65625 0.6796875
vt 0.53125 0.6796875
vt 0.53125 0.5859375
vt 0.1875 0.5
vt 0.3125 0.5
vt 0.3125 0.625
vt 0.1875 0.625
vt 0.5 0.625
vt 0.5 0.75
vt 0.375 0.75
vt 0.375 0.625
vt 0.65625 0.4921875
vt 0.65625 0.5859375
vt 0.53125 0.5859375
vt 0.53125 0.4921875
vt 0.71875 1
vt 0.59375 1
vt 0.59375 0.90625
vt 0.71875 0.90625
vn 1 0 0
vn -1 0 0
vn 0 1 0
vn 0 -1 0
vn 0 0 1
vn 0 0 -1
usemtl m_e9e72fd3-732a-2546-2014-ba51bc12122e
f 118/377/95 117/378/95 119/379/95 120/380/95
f 123/381/96 121/382/96 122/383/96 124/384/96
f 121/385/97 117/386/97 118/387/97 122/388/97
f 120/389/98 119/390/98 123/391/98 124/392/98
f 119/393/99 117/394/99 121/395/99 123/396/99
f 122/397/100 118/398/100 120/399/100 124/400/100
o cube
v 1.1875 2.125 0.9375
v 1.1875 2.125 0.1875
v 1.1875 1.5 0.9375
v 1.1875 1.5 0.1875
v 0.4375 2.125 0.9375
v 0.4375 2.125 0.1875
v 0.4375 1.5 0.9375
v 0.4375 1.5 0.1875
vt 0.34375 0.1484375
vt 0.25 0.1484375
vt 0.25 0.0703125
vt 0.34375 0.0703125
vt 0.4375 0.0703125
vt 0.4375 0.1484375
vt 0.34375 0.1484375
vt 0.34375 0.0703125
vt 0.03125 0.0625
vt 0.125 0.0625
vt 0.125 0.15625
vt 0.03125 0.15625
vt 0.21875 0.0625
vt 0.21875 0.15625
vt 0.125 0.15625
vt 0.125 0.0625
vt 0.3125 0.2265625
vt 0.3125 0.3046875
vt 0.21875 0.3046875
vt 0.21875 0.2265625
vt 0.40625 0.3046875
vt 0.3125 0.3046875
vt 0.3125 0.2265625
vt 0.40625 0.2265625
vn 1 0 0
vn -1 0 0
vn 0 1 0
vn 0 -1 0
vn 0 0 1
vn 0 0 -1
usemtl m_e9e72fd3-732a-2546-2014-ba51bc12122e
f 126/401/101 125/402/101 127/403/101 128/404/101
f 131/405/102 129/406/102 130/407/102 132/408/102
f 129/409/103 125/410/103 126/411/103 130/412/103
f 128/413/104 127/414/104 131/415/104 132/416/104
f 127/417/105 125/418/105 129/419/105 131/420/105
f 130/421/106 126/422/106 128/423/106 132/424/106