# Made in Blockbench 4.4.3
mtllib BlockyRock2.mtl

o cube
v 0.25 0.875 0.16666666666666666
v 0.25 0.875 -0.16666666666666666
v 0.25 0 0.16666666666666666
v 0.25 0 -0.16666666666666666
v -0.25 0.875 0.16666666666666666
v -0.25 0.875 -0.16666666666666666
v -0.25 0 0.16666666666666666
v -0.25 0 -0.16666666666666666
v 0 0.875 0.25
v 0 0.875 -0.25
v 0 0 -0.25
v 0 0 0.25
vt 1 1
vt 0 1
vt 0 0.5
vt 1 0.5
vt 1 0.5
vt 1 1
vt 0 1
vt 0 0.5
vt 1 1
vt 0.5 1
vt 0.5 0
vt 1 0
vt 1 1
vt 0.5 1
vt 0.5 0
vt 1 0
vt 1 1
vt 0.5 1
vt 0.5 0.5
vt 1 0.5
vt 0 0.5
vt 0.5 0.5
vt 0.5 1
vt 0 1
vt 0 0
vt 0.5 0
vt 0.5 1
vt 0 1
vt 1 1
vt 0.5 1
vt 0.5 0.5
vt 1 0.5
vt 0 0
vt 0.5 0
vt 0.5 1
vt 0 1
vt 0 0.5
vt 0.5 0.5
vt 0.5 1
vt 0 1
vn 1 0 0
vn -1 0 0
vn 0 1 0
vn 0 -1 0
vn 0.316227766016838 0 0.948683298050514
vn 0.316227766016838 0 -0.948683298050514
vn 0 1 0
vn -0.316227766016838 0 -0.948683298050514
vn 0 -1 0
vn -0.316227766016838 0 0.948683298050514
usemtl none
f 2/1/1 1/2/1 3/3/1 4/4/1
f 7/5/2 5/6/2 6/7/2 8/8/2
f 2/9/3 10/10/3 9/11/3 1/12/3
f 3/13/4 12/14/4 11/15/4 4/16/4
f 1/17/5 9/18/5 12/19/5 3/20/5
f 4/21/6 11/22/6 10/23/6 2/24/6
f 5/25/7 9/26/7 10/27/7 6/28/7
f 6/29/8 10/30/8 11/31/8 8/32/8
f 8/33/9 11/34/9 12/35/9 7/36/9
f 7/37/10 12/38/10 9/39/10 5/40/10
o cube
v 0.12500000000000006 0.625 -0.37499999999999994
v -0.12499999999999993 0.625 -0.375
v 0.12500000000000006 0 -0.37499999999999994
v -0.12499999999999993 0 -0.375
v 0.125 0.625 6.938893903907228e-17
v -0.125 0.625 1.3877787807814457e-17
v 0.125 0 6.938893903907228e-17
v -0.125 0 1.3877787807814457e-17
v 0.1875 0.625 -0.18749999999999992
v -0.18749999999999997 0.625 -0.1875
v -0.18749999999999997 0 -0.1875
v 0.1875 0 -0.18749999999999992
vt 1 1
vt 0 1
vt 0 0.5
vt 1 0.5
vt 1 0.5
vt 1 1
vt 0 1
vt 0 0.5
vt 1 1
vt 0.5 1
vt 0.5 0
vt 1 0
vt 1 1
vt 0.5 1
vt 0.5 0
vt 1 0
vt 1 1
vt 0.5 1
vt 0.5 0.5
vt 1 0.5
vt 0 0.5
vt 0.5 0.5
vt 0.5 1
vt 0 1
vt 0 0
vt 0.5 0
vt 0.5 1
vt 0 1
vt 1 1
vt 0.5 1
vt 0.5 0.5
vt 1 0.5
vt 0 0
vt 0.5 0
vt 0.5 1
vt 0 1
vt 0 0.5
vt 0.5 0.5
vt 0.5 1
vt 0 1
vn 2.220446049250313e-16 0 -1
vn -2.220446049250313e-16 0 1
vn 0 1 0
vn 0 -1 0
vn 0.9486832980505139 0 -0.3162277660168377
vn -0.9486832980505139 0 -0.3162277660168382
vn 0 1 0
vn -0.9486832980505139 0 0.3162277660168377
vn 0 -1 0
vn 0.9486832980505139 0 0.3162277660168382
usemtl none
f 14/41/11 13/42/11 15/43/11 16/44/11
f 19/45/12 17/46/12 18/47/12 20/48/12
f 14/49/13 22/50/13 21/51/13 13/52/13
f 15/53/14 24/54/14 23/55/14 16/56/14
f 13/57/15 21/58/15 24/59/15 15/60/15
f 16/61/16 23/62/16 22/63/16 14/64/16
f 17/65/17 21/66/17 22/67/17 18/68/17
f 18/69/18 22/70/18 23/71/18 20/72/18
f 20/73/19 23/74/19 24/75/19 19/76/19
f 19/77/20 24/78/20 21/79/20 17/80/20
o cube
v -0.0625 0.25 -0.06249999999999997
v -0.3125 0.25 -0.06250000000000003
v -0.0625 0 -0.06249999999999997
v -0.3125 0 -0.06250000000000003
v -0.06250000000000008 0.25 0.3125
v -0.3125000000000001 0.25 0.3125
v -0.06250000000000008 0 0.3125
v -0.3125000000000001 0 0.3125
v -5.551115123125783e-17 0.25 0.12500000000000006
v -0.37500000000000006 0.25 0.12499999999999994
v -0.37500000000000006 0 0.12499999999999994
v -5.551115123125783e-17 0 0.12500000000000006
vt 1 1
vt 0 1
vt 0 0.5
vt 1 0.5
vt 1 0.5
vt 1 1
vt 0 1
vt 0 0.5
vt 1 1
vt 0.5 1
vt 0.5 0
vt 1 0
vt 1 1
vt 0.5 1
vt 0.5 0
vt 1 0
vt 1 1
vt 0.5 1
vt 0.5 0.5
vt 1 0.5
vt 0 0.5
vt 0.5 0.5
vt 0.5 1
vt 0 1
vt 0 0
vt 0.5 0
vt 0.5 1
vt 0 1
vt 1 1
vt 0.5 1
vt 0.5 0.5
vt 1 0.5
vt 0 0
vt 0.5 0
vt 0.5 1
vt 0 1
vt 0 0.5
vt 0.5 0.5
vt 0.5 1
vt 0 1
vn 2.220446049250313e-16 0 -1
vn -2.220446049250313e-16 0 1
vn 0 1 0
vn 0 -1 0
vn 0.9486832980505139 0 -0.3162277660168377
vn -0.9486832980505139 0 -0.3162277660168382
vn 0 1 0
vn -0.9486832980505139 0 0.3162277660168377
vn 0 -1 0
vn 0.9486832980505139 0 0.3162277660168382
usemtl none
f 26/81/21 25/82/21 27/83/21 28/84/21
f 31/85/22 29/86/22 30/87/22 32/88/22
f 26/89/23 34/90/23 33/91/23 25/92/23
f 27/93/24 36/94/24 35/95/24 28/96/24
f 25/97/25 33/98/25 36/99/25 27/100/25
f 28/101/26 35/102/26 34/103/26 26/104/26
f 29/105/27 33/106/27 34/107/27 30/108/27
f 30/109/28 34/110/28 35/111/28 32/112/28
f 32/113/29 35/114/29 36/115/29 31/116/29
f 31/117/30 36/118/30 33/119/30 29/120/30