# Made in Blockbench 4.4.3
mtllib BlockyTree4Trunk.mtl

o cube
v -0.0625 1.5625 0.0625
v -0.0625 1.5625 -0.0625
v -0.0625 1.4375 0.0625
v -0.0625 1.4375 -0.0625
v -0.75 1.5625 0.0625
v -0.75 1.5625 -0.0625
v -0.75 1.4375 0.0625
v -0.75 1.4375 -0.0625
v -0.875 1.5625 0.0625
v -0.875 1.5625 -0.0625
v -0.875 1.4375 0.0625
v -0.875 1.4375 -0.0625
v -0.875 2.125 -0.0625
v -0.875 2.125 0.0625
v -0.75 2.125 0.0625
v -0.75 2.125 -0.0625
vt 0.515625 0.6484375
vt 0.5 0.6484375
vt 0.5 0.6328125
vt 0.515625 0.6328125
vt 0.53125 0.6328125
vt 0.53125 0.6484375
vt 0.515625 0.6484375
vt 0.515625 0.6328125
vt 0.65625 0.515625
vt 0.7421875 0.515625
vt 0.7421875 0.53125
vt 0.65625 0.53125
vt 0.7421875 0.5
vt 0.7421875 0.515625
vt 0.65625 0.515625
vt 0.65625 0.5
vt 0.4921875 0.2890625
vt 0.4921875 0.3046875
vt 0.40625 0.3046875
vt 0.40625 0.2890625
vt 0.578125 0.3046875
vt 0.4921875 0.3046875
vt 0.4921875 0.2890625
vt 0.578125 0.2890625
vt 0.203125 0.2734375
vt 0.203125 0.2578125
vt 0.21875 0.2578125
vt 0.21875 0.2734375
vt 0.5234375 0.2734375
vt 0.5234375 0.2578125
vt 0.5390625 0.2578125
vt 0.5390625 0.2734375
vt 0.75 0.890625
vt 0.75 0.90625
vt 0.734375 0.90625
vt 0.734375 0.890625
vt 0.734375 0.890625
vt 0.734375 0.875
vt 0.75 0.875
vt 0.75 0.890625
vt 0.4375 0.2890625
vt 0.421875 0.2890625
vt 0.421875 0.21875
vt 0.4375 0.21875
vt 0.453125 0.2890625
vt 0.4375 0.2890625
vt 0.4375 0.21875
vt 0.453125 0.21875
vt 0.46875 0.2890625
vt 0.453125 0.2890625
vt 0.453125 0.21875
vt 0.46875 0.21875
vt 0.484375 0.2890625
vt 0.46875 0.2890625
vt 0.46875 0.21875
vt 0.484375 0.21875
vn 1 0 0
vn -1 0 0
vn 0 1 0
vn 0 -1 0
vn 0 0 1
vn 0 0 -1
vn 0 0 1
vn 0 1 0
vn 0 0 -1
vn 0 -1 0
vn -1 0 0
vn 0 0 1
vn 1 0 0
vn 0 0 -1
usemtl m_4c513eb9-e046-203f-d2b8-7cbe07ec73da
f 2/1/1 1/2/1 3/3/1 4/4/1
f 11/5/2 9/6/2 10/7/2 12/8/2
f 5/9/3 1/10/3 2/11/3 6/12/3
f 4/13/4 3/14/4 7/15/4 8/16/4
f 3/17/5 1/18/5 5/19/5 7/20/5
f 6/21/6 2/22/6 4/23/6 8/24/6
f 9/25/7 11/26/7 7/27/7 5/28/7
f 13/29/8 14/30/8 15/31/8 16/32/8
f 12/33/9 10/34/9 6/35/9 8/36/9
f 11/37/10 12/38/10 8/39/10 7/40/10
f 14/41/11 13/42/11 10/43/11 9/44/11
f 15/45/12 14/46/12 9/47/12 5/48/12
f 16/49/13 15/50/13 5/51/13 6/52/13
f 13/53/14 16/54/14 6/55/14 10/56/14
o cube
v 0.125 3.25 0.125
v 0.125 3.25 -0.125
v 0.125 0 0.125
v 0.125 0 -0.125
v -0.125 3.25 0.125
v -0.125 3.25 -0.125
v -0.125 0 0.125
v -0.125 0 -0.125
vt 0.03125 0.5
vt 0 0.5
vt 0 0.09375
vt 0.03125 0.09375
vt 0.0625 0.09375
vt 0.0625 0.5
vt 0.03125 0.5
vt 0.03125 0.09375
vt 0.5 0.6484375
vt 0.53125 0.6484375
vt 0.53125 0.6796875
vt 0.5 0.6796875
vt 0.625 0.875
vt 0.625 0.90625
vt 0.59375 0.90625
vt 0.59375 0.875
vt 0.09375 0.09375
vt 0.09375 0.5
vt 0.0625 0.5
vt 0.0625 0.09375
vt 0.125 0.5
vt 0.09375 0.5
vt 0.09375 0.09375
vt 0.125 0.09375
vn 1 0 0
vn -1 0 0
vn 0 1 0
vn 0 -1 0
vn 0 0 1
vn 0 0 -1
usemtl m_4c513eb9-e046-203f-d2b8-7cbe07ec73da
f 18/57/15 17/58/15 19/59/15 20/60/15
f 23/61/16 21/62/16 22/63/16 24/64/16
f 21/65/17 17/66/17 18/67/17 22/68/17
f 20/69/18 19/70/18 23/71/18 24/72/18
f 19/73/19 17/74/19 21/75/19 23/76/19
f 22/77/20 18/78/20 20/79/20 24/80/20
o cube
v 0.0625 2.5 0.12499999999999989
v -0.0625 2.5 0.12499999999999986
v 0.0625 2.375 0.12499999999999989
v -0.0625 2.375 0.12499999999999986
v 0.06249999999999989 2.5 0.6249999999999999
v -0.06250000000000011 2.5 0.6249999999999999
v 0.06249999999999989 2.375 0.6249999999999999
v -0.06250000000000011 2.375 0.6249999999999999
v 0.06249999999999978 2.5 0.7499999999999999
v -0.06250000000000022 2.5 0.7499999999999999
v 0.06249999999999978 2.375 0.7499999999999999
v -0.06250000000000022 2.375 0.7499999999999999
v -0.06250000000000022 3 0.7499999999999999
v 0.06249999999999978 3 0.7499999999999999
v 0.06249999999999989 3 0.6249999999999999
v -0.06250000000000011 3 0.6249999999999999
vt 0.75 0.875
vt 0.734375 0.875
vt 0.734375 0.859375
vt 0.75 0.859375
vt 0.75 0.84375
vt 0.75 0.859375
vt 0.734375 0.859375
vt 0.734375 0.84375
vt 0.484375 0.2734375
vt 0.546875 0.2734375
vt 0.546875 0.2890625
vt 0.484375 0.2890625
vt 0.78125 0.984375
vt 0.78125 1
vt 0.71875 1
vt 0.71875 0.984375
vt 0.78125 0.96875
vt 0.78125 0.984375
vt 0.71875 0.984375
vt 0.71875 0.96875
vt 0.78125 0.96875
vt 0.71875 0.96875
vt 0.71875 0.953125
vt 0.78125 0.953125
vt 0.734375 0.84375
vt 0.734375 0.828125
vt 0.75 0.828125
vt 0.75 0.84375
vt 0.734375 0.828125
vt 0.734375 0.8125
vt 0.75 0.8125
vt 0.75 0.828125
vt 0.75 0.796875
vt 0.75 0.8125
vt 0.734375 0.8125
vt 0.734375 0.796875
vt 0.734375 0.796875
vt 0.734375 0.78125
vt 0.75 0.78125
vt 0.75 0.796875
vt 0.5625 0.2890625
vt 0.546875 0.2890625
vt 0.546875 0.2265625
vt 0.5625 0.2265625
vt 0.578125 0.2890625
vt 0.5625 0.2890625
vt 0.5625 0.2265625
vt 0.578125 0.2265625
vt 0.734375 0.8125
vt 0.71875 0.8125
vt 0.71875 0.75
vt 0.734375 0.75
vt 0.140625 0.2734375
vt 0.125 0.2734375
vt 0.125 0.2109375
vt 0.140625 0.2109375
vn 2.220446049250313e-16 0 -1
vn -2.220446049250313e-16 0 1
vn 0 1 0
vn 0 -1 0
vn 1 0 2.220446049250313e-16
vn -1 0 -2.220446049250313e-16
vn 1 0 2.220446049250313e-16
vn 0 1 0
vn -1 0 -2.220446049250313e-16
vn 0 -1 0
vn -2.220446049250313e-16 0 1
vn 1 0 2.220446049250313e-16
vn 2.220446049250313e-16 0 -1
vn -1 0 -2.220446049250313e-16
usemtl m_4c513eb9-e046-203f-d2b8-7cbe07ec73da
f 26/81/21 25/82/21 27/83/21 28/84/21
f 35/85/22 33/86/22 34/87/22 36/88/22
f 29/89/23 25/90/23 26/91/23 30/92/23
f 28/93/24 27/94/24 31/95/24 32/96/24
f 27/97/25 25/98/25 29/99/25 31/100/25
f 30/101/26 26/102/26 28/103/26 32/104/26
f 33/105/27 35/106/27 31/107/27 29/108/27
f 37/109/28 38/110/28 39/111/28 40/112/28
f 36/113/29 34/114/29 30/115/29 32/116/29
f 35/117/30 36/118/30 32/119/30 31/120/30
f 38/121/31 37/122/31 34/123/31 33/124/31
f 39/125/32 38/126/32 33/127/32 29/128/32
f 40/129/33 39/130/33 29/131/33 30/132/33
f 37/133/34 40/134/34 30/135/34 34/136/34
o cube
v 0.0625 2.75 -0.125
v 0.0625 2.75 -0.8125
v 0.0625 2.625 -0.125
v 0.0625 2.625 -0.8125
v -0.0625 2.75 -0.125
v -0.0625 2.75 -0.8125
v -0.0625 2.625 -0.125
v -0.0625 2.625 -0.8125
vt 0.7890625 0.5
vt 0.703125 0.5
vt 0.703125 0.484375
vt 0.7890625 0.484375
vt 0.7890625 0.46875
vt 0.7890625 0.484375
vt 0.703125 0.484375
vt 0.703125 0.46875
vt 0.578125 0.21875
vt 0.59375 0.21875
vt 0.59375 0.3046875
vt 0.578125 0.3046875
vt 0.609375 0.21875
vt 0.609375 0.3046875
vt 0.59375 0.3046875
vt 0.59375 0.21875
vt 0.75 0.765625
vt 0.75 0.78125
vt 0.734375 0.78125
vt 0.734375 0.765625
vt 0.75 0.765625
vt 0.734375 0.765625
vt 0.734375 0.75
vt 0.75 0.75
vn 1 0 0
vn -1 0 0
vn 0 1 0
vn 0 -1 0
vn 0 0 1
vn 0 0 -1
usemtl m_4c513eb9-e046-203f-d2b8-7cbe07ec73da
f 42/137/35 41/138/35 43/139/35 44/140/35
f 47/141/36 45/142/36 46/143/36 48/144/36
f 45/145/37 41/146/37 42/147/37 46/148/37
f 44/149/38 43/150/38 47/151/38 48/152/38
f 43/153/39 41/154/39 45/155/39 47/156/39
f 46/157/40 42/158/40 44/159/40 48/160/40
o cube
v 0.75 1.8125 0.0625
v 0.75 1.8125 -0.0625
v 0.75 1.6875 0.0625
v 0.75 1.6875 -0.0625
v 0.125 1.8125 0.0625
v 0.125 1.8125 -0.0625
v 0.125 1.6875 0.0625
v 0.125 1.6875 -0.0625
v 0.875 1.8125 0.0625
v 0.875 1.6875 0.0625
v 0.875 1.8125 -0.0625
v 0.875 1.6875 -0.0625
v 0.875 1.6875 0.375
v 0.875 1.8125 0.375
v 0.75 1.8125 0.375
v 0.75 1.6875 0.375
v 0.875 2.5 0.0625
v 0.875 2.5 -0.0625
v 0.75 2.5 -0.0625
v 0.75 2.5 0.0625
vt 0.515625 0.2578125
vt 0.5 0.2578125
vt 0.5 0.2421875
vt 0.515625 0.2421875
vt 0.53125 0.2421875
vt 0.53125 0.2578125
vt 0.515625 0.2578125
vt 0.515625 0.2421875
vt 0.703125 0.453125
vt 0.78125 0.453125
vt 0.78125 0.46875
vt 0.703125 0.46875
vt 0.78125 0.4375
vt 0.78125 0.453125
vt 0.703125 0.453125
vt 0.703125 0.4375
vt 0.78125 0.421875
vt 0.78125 0.4375
vt 0.703125 0.4375
vt 0.703125 0.421875
vt 0.78125 0.421875
vt 0.703125 0.421875
vt 0.703125 0.40625
vt 0.78125 0.40625
vt 0.546875 0.2421875
vt 0.546875 0.2578125
vt 0.53125 0.2578125
vt 0.53125 0.2421875
vt 0.765625 0.890625
vt 0.765625 0.90625
vt 0.75 0.90625
vt 0.75 0.890625
vt 0.765625 0.875
vt 0.765625 0.890625
vt 0.75 0.890625
vt 0.75 0.875
vt 0.75 0.875
vt 0.75 0.859375
vt 0.765625 0.859375
vt 0.765625 0.875
vt 0.71875 0.734375
vt 0.71875 0.71875
vt 0.7578125 0.71875
vt 0.7578125 0.734375
vt 0.625 0.6796875
vt 0.640625 0.6796875
vt 0.640625 0.71875
vt 0.625 0.71875
vt 0.5234375 0.2578125
vt 0.5234375 0.2734375
vt 0.484375 0.2734375
vt 0.484375 0.2578125
vt 0.65625 0.71875
vt 0.640625 0.71875
vt 0.640625 0.6796875
vt 0.65625 0.6796875
vt 0.625 0.3046875
vt 0.609375 0.3046875
vt 0.609375 0.21875
vt 0.625 0.21875
vt 0.640625 0.3046875
vt 0.625 0.3046875
vt 0.625 0.21875
vt 0.640625 0.21875
vt 0.65625 0.3046875
vt 0.640625 0.3046875
vt 0.640625 0.21875
vt 0.65625 0.21875
vt 0.421875 0.2890625
vt 0.40625 0.2890625
vt 0.40625 0.203125
vt 0.421875 0.203125
vn 1 0 0
vn -1 0 0
vn 0 1 0
vn 0 -1 0
vn 0 0 1
vn 0 0 -1
vn 0 1 0
vn 0 0 1
vn 0 -1 0
vn 0 0 -1
vn 1 0 0
vn 0 1 0
vn -1 0 0
vn 0 -1 0
vn 1 0 0
vn 0 0 -1
vn -1 0 0
vn 0 0 1
usemtl m_4c513eb9-e046-203f-d2b8-7cbe07ec73da
f 59/161/41 57/162/41 58/163/41 60/164/41
f 55/165/42 53/166/42 54/167/42 56/168/42
f 53/169/43 49/170/43 50/171/43 54/172/43
f 52/173/44 51/174/44 55/175/44 56/176/44
f 51/177/45 49/178/45 53/179/45 55/180/45
f 54/181/46 50/182/46 52/183/46 56/184/46
f 65/185/47 66/186/47 67/187/47 68/188/47
f 61/189/48 62/190/48 63/191/48 64/192/48
f 60/193/49 58/194/49 51/195/49 52/196/49
f 59/197/50 60/198/50 52/199/50 50/200/50
f 62/201/51 61/202/51 58/203/51 57/204/51
f 63/205/52 62/206/52 57/207/52 49/208/52
f 64/209/53 63/210/53 49/211/53 51/212/53
f 61/213/54 64/214/54 51/215/54 58/216/54
f 66/217/55 65/218/55 57/219/55 59/220/55
f 67/221/56 66/222/56 59/223/56 50/224/56
f 68/225/57 67/226/57 50/227/57 49/228/57
f 65/229/58 68/230/58 49/231/58 57/232/58
o cube
v 0.0625 1.5625 -0.125
v 0.0625 1.5625 -0.5
v 0.0625 1.4375 -0.125
v 0.0625 1.4375 -0.5
v -0.0625 1.5625 -0.125
v -0.0625 1.5625 -0.5
v -0.0625 1.4375 -0.125
v -0.0625 1.4375 -0.5
vt 0.765625 0.953125
vt 0.71875 0.953125
vt 0.71875 0.9375
vt 0.765625 0.9375
vt 0.765625 0.921875
vt 0.765625 0.9375
vt 0.71875 0.9375
vt 0.71875 0.921875
vt 0.140625 0.2265625
vt 0.15625 0.2265625
vt 0.15625 0.2734375
vt 0.140625 0.2734375
vt 0.171875 0.2265625
vt 0.171875 0.2734375
vt 0.15625 0.2734375
vt 0.15625 0.2265625
vt 0.21875 0.2421875
vt 0.21875 0.2578125
vt 0.203125 0.2578125
vt 0.203125 0.2421875
vt 0.7578125 0.53125
vt 0.7421875 0.53125
vt 0.7421875 0.515625
vt 0.7578125 0.515625
vn 1 0 0
vn -1 0 0
vn 0 1 0
vn 0 -1 0
vn 0 0 1
vn 0 0 -1
usemtl m_4c513eb9-e046-203f-d2b8-7cbe07ec73da
f 70/233/59 69/234/59 71/235/59 72/236/59
f 75/237/60 73/238/60 74/239/60 76/240/60
f 73/241/61 69/242/61 70/243/61 74/244/61
f 72/245/62 71/246/62 75/247/62 76/248/62
f 71/249/63 69/250/63 73/251/63 75/252/63
f 74/253/64 70/254/64 72/255/64 76/256/64
o cube
v 0.0625 1.8125 0.5
v 0.0625 1.8125 0.125
v 0.0625 1.6875 0.5
v 0.0625 1.6875 0.125
v -0.0625 1.8125 0.5
v -0.0625 1.8125 0.125
v -0.0625 1.6875 0.5
v -0.0625 1.6875 0.125
vt 0.765625 0.921875
vt 0.71875 0.921875
vt 0.71875 0.90625
vt 0.765625 0.90625
vt 0.765625 0.734375
vt 0.765625 0.75
vt 0.71875 0.75
vt 0.71875 0.734375
vt 0.171875 0.2265625
vt 0.1875 0.2265625
vt 0.1875 0.2734375
vt 0.171875 0.2734375
vt 0.203125 0.2265625
vt 0.203125 0.2734375
vt 0.1875 0.2734375
vt 0.1875 0.2265625
vt 0.5 0.2421875
vt 0.5 0.2578125
vt 0.484375 0.2578125
vt 0.484375 0.2421875
vt 0.7578125 0.515625
vt 0.7421875 0.515625
vt 0.7421875 0.5
vt 0.7578125 0.5
vn 1 0 0
vn -1 0 0
vn 0 1 0
vn 0 -1 0
vn 0 0 1
vn 0 0 -1
usemtl m_4c513eb9-e046-203f-d2b8-7cbe07ec73da
f 78/257/65 77/258/65 79/259/65 80/260/65
f 83/261/66 81/262/66 82/263/66 84/264/66
f 81/265/67 77/266/67 78/267/67 82/268/67
f 80/269/68 79/270/68 83/271/68 84/272/68
f 79/273/69 77/274/69 81/275/69 83/276/69
f 82/277/70 78/278/70 80/279/70 84/280/70