# Made in Blockbench 4.4.3
mtllib BlockyTree3Trunk.mtl

o cube
v 0.1875 4 0.1875
v 0.1875 4 -0.1875
v 0.1875 0 0.1875
v 0.1875 0 -0.1875
v -0.1875 4 0.1875
v -0.1875 4 -0.1875
v -0.1875 0 0.1875
v -0.1875 0 -0.1875
vt 0.359375 1
vt 0.3359375 1
vt 0.3359375 0.75
vt 0.359375 0.75
vt 0.375 0.4375
vt 0.375 0.6875
vt 0.3515625 0.6875
vt 0.3515625 0.4375
vt 0.28125 0.4609375
vt 0.3046875 0.4609375
vt 0.3046875 0.484375
vt 0.28125 0.484375
vt 0.328125 0.4609375
vt 0.328125 0.484375
vt 0.3046875 0.484375
vt 0.3046875 0.4609375
vt 0.3828125 0.75
vt 0.3828125 1
vt 0.359375 1
vt 0.359375 0.75
vt 0.0234375 0.625
vt 0 0.625
vt 0 0.375
vt 0.0234375 0.375
vn 1 0 0
vn -1 0 0
vn 0 1 0
vn 0 -1 0
vn 0 0 1
vn 0 0 -1
usemtl m_2109f6a3-f123-e0f4-8a83-febcad8ca1f3
f 2/1/1 1/2/1 3/3/1 4/4/1
f 7/5/2 5/6/2 6/7/2 8/8/2
f 5/9/3 1/10/3 2/11/3 6/12/3
f 4/13/4 3/14/4 7/15/4 8/16/4
f 3/17/5 1/18/5 5/19/5 7/20/5
f 6/21/6 2/22/6 4/23/6 8/24/6
o cube
v 0 2.8125 0.125
v 0 2.8125 -0.125
v 0 2.5625 0.125
v 0 2.5625 -0.125
v -1 2.8125 0.125
v -1 2.8125 -0.125
v -1 2.5625 0.125
v -1 2.5625 -0.125
v -1.25 2.8125 0.125
v -1.25 2.8125 -0.125
v -1.25 2.5625 0.125
v -1.25 2.5625 -0.125
v -1.25 3.625 -0.125
v -1.25 3.625 0.125
v -1 3.625 0.125
v -1 3.625 -0.125
vt 0.2265625 0.765625
vt 0.2109375 0.765625
vt 0.2109375 0.75
vt 0.2265625 0.75
vt 0.0703125 0.4296875
vt 0.0703125 0.4453125
vt 0.0546875 0.4453125
vt 0.0546875 0.4296875
vt 0.5078125 0.6015625
vt 0.5703125 0.6015625
vt 0.5703125 0.6171875
vt 0.5078125 0.6171875
vt 0.5390625 0.6328125
vt 0.5390625 0.6484375
vt 0.4765625 0.6484375
vt 0.4765625 0.6328125
vt 0.1015625 0.55859375
vt 0.1015625 0.57421875
vt 0.0390625 0.57421875
vt 0.0390625 0.55859375
vt 0.4375 0.57421875
vt 0.375 0.57421875
vt 0.375 0.55859375
vt 0.4375 0.55859375
vt 0.0234375 0.57421875
vt 0.0234375 0.55859375
vt 0.0390625 0.55859375
vt 0.0390625 0.57421875
vt 0.2421875 0.609375
vt 0.2421875 0.59375
vt 0.2578125 0.59375
vt 0.2578125 0.609375
vt 0.453125 0.55859375
vt 0.453125 0.57421875
vt 0.4375 0.57421875
vt 0.4375 0.55859375
vt 0.4609375 0.6484375
vt 0.4609375 0.6328125
vt 0.4765625 0.6328125
vt 0.4765625 0.6484375
vt 0.0703125 0.49609375
vt 0.0546875 0.49609375
vt 0.0546875 0.4453125
vt 0.0703125 0.4453125
vt 0.0390625 0.625
vt 0.0234375 0.625
vt 0.0234375 0.57421875
vt 0.0390625 0.57421875
vt 0.3984375 0.8046875
vt 0.3828125 0.8046875
vt 0.3828125 0.75390625
vt 0.3984375 0.75390625
vt 0.453125 0.625
vt 0.4375 0.625
vt 0.4375 0.57421875
vt 0.453125 0.57421875
vn 1 0 0
vn -1 0 0
vn 0 1 0
vn 0 -1 0
vn 0 0 1
vn 0 0 -1
vn 0 0 1
vn 0 1 0
vn 0 0 -1
vn 0 -1 0
vn -1 0 0
vn 0 0 1
vn 1 0 0
vn 0 0 -1
usemtl m_2109f6a3-f123-e0f4-8a83-febcad8ca1f3
f 10/25/7 9/26/7 11/27/7 12/28/7
f 19/29/8 17/30/8 18/31/8 20/32/8
f 13/33/9 9/34/9 10/35/9 14/36/9
f 12/37/10 11/38/10 15/39/10 16/40/10
f 11/41/11 9/42/11 13/43/11 15/44/11
f 14/45/12 10/46/12 12/47/12 16/48/12
f 17/49/13 19/50/13 15/51/13 13/52/13
f 21/53/14 22/54/14 23/55/14 24/56/14
f 20/57/15 18/58/15 14/59/15 16/60/15
f 19/61/16 20/62/16 16/63/16 15/64/16
f 22/65/17 21/66/17 18/67/17 17/68/17
f 23/69/18 22/70/18 17/71/18 13/72/18
f 24/73/19 23/74/19 13/75/19 14/76/19
f 21/77/20 24/78/20 14/79/20 18/80/20
o cube
v 0.062499999999999986 1.875 -0.125
v 0.06250000000000001 1.875 0.12499999999999999
v 0.062499999999999986 1.625 -0.125
v 0.06250000000000001 1.625 0.12499999999999999
v 1.0625 1.875 -0.12500000000000014
v 1.0625 1.875 0.12499999999999988
v 1.0625 1.625 -0.12500000000000014
v 1.0625 1.625 0.12499999999999988
v 1.3125 1.875 -0.12500000000000017
v 1.3125 1.875 0.12499999999999983
v 1.3125 1.625 -0.12500000000000017
v 1.3125 1.625 0.12499999999999983
v 1.3125 2.6875 0.12499999999999983
v 1.3125 2.6875 -0.12500000000000017
v 1.0625 2.6875 -0.12500000000000014
v 1.0625 2.6875 0.12499999999999988
vt 0.2578125 0.59375
vt 0.2421875 0.59375
vt 0.2421875 0.578125
vt 0.2578125 0.578125
vt 0.0859375 0.4296875
vt 0.0859375 0.4453125
vt 0.0703125 0.4453125
vt 0.0703125 0.4296875
vt 0.5078125 0.5859375
vt 0.5703125 0.5859375
vt 0.5703125 0.6015625
vt 0.5078125 0.6015625
vt 0.5625 0.703125
vt 0.5625 0.71875
vt 0.5 0.71875
vt 0.5 0.703125
vt 0.4609375 0.93359375
vt 0.4609375 0.94921875
vt 0.3984375 0.94921875
vt 0.3984375 0.93359375
vt 0.4453125 0.8828125
vt 0.3828125 0.8828125
vt 0.3828125 0.8671875
vt 0.4453125 0.8671875
vt 0.3828125 0.94921875
vt 0.3828125 0.93359375
vt 0.3984375 0.93359375
vt 0.3984375 0.94921875
vt 0.2421875 0.578125
vt 0.2421875 0.5625
vt 0.2578125 0.5625
vt 0.2578125 0.578125
vt 0.4609375 0.8671875
vt 0.4609375 0.8828125
vt 0.4453125 0.8828125
vt 0.4453125 0.8671875
vt 0.484375 0.71875
vt 0.484375 0.703125
vt 0.5 0.703125
vt 0.5 0.71875
vt 0.0859375 0.49609375
vt 0.0703125 0.49609375
vt 0.0703125 0.4453125
vt 0.0859375 0.4453125
vt 0.3984375 1
vt 0.3828125 1
vt 0.3828125 0.94921875
vt 0.3984375 0.94921875
vt 0.2109375 0.4921875
vt 0.1953125 0.4921875
vt 0.1953125 0.44140625
vt 0.2109375 0.44140625
vt 0.4609375 0.93359375
vt 0.4453125 0.93359375
vt 0.4453125 0.8828125
vt 0.4609375 0.8828125
vn -1 0 1.2246467991473532e-16
vn 1 0 -1.2246467991473532e-16
vn 0 1 0
vn 0 -1 0
vn -1.2246467991473532e-16 0 -1
vn 1.2246467991473532e-16 0 1
vn -1.2246467991473532e-16 0 -1
vn 0 1 0
vn 1.2246467991473532e-16 0 1
vn 0 -1 0
vn 1 0 -1.2246467991473532e-16
vn -1.2246467991473532e-16 0 -1
vn -1 0 1.2246467991473532e-16
vn 1.2246467991473532e-16 0 1
usemtl m_2109f6a3-f123-e0f4-8a83-febcad8ca1f3
f 26/81/21 25/82/21 27/83/21 28/84/21
f 35/85/22 33/86/22 34/87/22 36/88/22
f 29/89/23 25/90/23 26/91/23 30/92/23
f 28/93/24 27/94/24 31/95/24 32/96/24
f 27/97/25 25/98/25 29/99/25 31/100/25
f 30/101/26 26/102/26 28/103/26 32/104/26
f 33/105/27 35/106/27 31/107/27 29/108/27
f 37/109/28 38/110/28 39/111/28 40/112/28
f 36/113/29 34/114/29 30/115/29 32/116/29
f 35/117/30 36/118/30 32/119/30 31/120/30
f 38/121/31 37/122/31 34/123/31 33/124/31
f 39/125/32 38/126/32 33/127/32 29/128/32
f 40/129/33 39/130/33 29/131/33 30/132/33
f 37/133/34 40/134/34 30/135/34 34/136/34
o cube
v 0.125 2.375 -0.0625
v 0.125 2.375 -1.0625
v 0.125 2.125 -0.0625
v 0.125 2.125 -1.0625
v -0.125 2.375 -0.0625
v -0.125 2.375 -1.0625
v -0.125 2.125 -0.0625
v -0.125 2.125 -1.0625
vt 0.5703125 0.5859375
vt 0.5078125 0.5859375
vt 0.5078125 0.5703125
vt 0.5703125 0.5703125
vt 0.5703125 0.5078125
vt 0.5703125 0.5234375
vt 0.5078125 0.5234375
vt 0.5078125 0.5078125
vt 0.1640625 0.4296875
vt 0.1796875 0.4296875
vt 0.1796875 0.4921875
vt 0.1640625 0.4921875
vt 0.1953125 0.4296875
vt 0.1953125 0.4921875
vt 0.1796875 0.4921875
vt 0.1796875 0.4296875
vt 0.484375 0.75
vt 0.484375 0.765625
vt 0.46875 0.765625
vt 0.46875 0.75
vt 0.34375 0.484375
vt 0.328125 0.484375
vt 0.328125 0.46875
vt 0.34375 0.46875
vn 1 0 0
vn -1 0 0
vn 0 1 0
vn 0 -1 0
vn 0 0 1
vn 0 0 -1
usemtl m_2109f6a3-f123-e0f4-8a83-febcad8ca1f3
f 42/137/35 41/138/35 43/139/35 44/140/35
f 47/141/36 45/142/36 46/143/36 48/144/36
f 45/145/37 41/146/37 42/147/37 46/148/37
f 44/149/38 43/150/38 47/151/38 48/152/38
f 43/153/39 41/154/39 45/155/39 47/156/39
f 46/157/40 42/158/40 44/159/40 48/160/40
o cube
v 0.125 3.0625 1.375
v 0.125 3.0625 0.1875
v 0.125 2.8125 1.375
v 0.125 2.8125 0.1875
v -0.125 3.0625 1.375
v -0.125 3.0625 0.1875
v -0.125 2.8125 1.375
v -0.125 2.8125 0.1875
vt 0.29296875 0.5
vt 0.21875 0.5
vt 0.21875 0.484375
vt 0.29296875 0.484375
vt 0.58203125 0.6171875
vt 0.58203125 0.6328125
vt 0.5078125 0.6328125
vt 0.5078125 0.6171875
vt 0.0234375 0.421875
vt 0.0390625 0.421875
vt 0.0390625 0.49609375
vt 0.0234375 0.49609375
vt 0.0546875 0.421875
vt 0.0546875 0.49609375
vt 0.0390625 0.49609375
vt 0.0390625 0.421875
vt 0.53125 0.5546875
vt 0.53125 0.5703125
vt 0.515625 0.5703125
vt 0.515625 0.5546875
vt 0.53125 0.5546875
vt 0.515625 0.5546875
vt 0.515625 0.5390625
vt 0.53125 0.5390625
vn 1 0 0
vn -1 0 0
vn 0 1 0
vn 0 -1 0
vn 0 0 1
vn 0 0 -1
usemtl m_2109f6a3-f123-e0f4-8a83-febcad8ca1f3
f 50/161/41 49/162/41 51/163/41 52/164/41
f 55/165/42 53/166/42 54/167/42 56/168/42
f 53/169/43 49/170/43 50/171/43 54/172/43
f 52/173/44 51/174/44 55/175/44 56/176/44
f 51/177/45 49/178/45 53/179/45 55/180/45
f 54/181/46 50/182/46 52/183/46 56/184/46
o cube
v 0.8125 1.8125 -0.125
v 0.8125 1.8125 -0.625
v 0.8125 1.6875 -0.125
v 0.8125 1.6875 -0.625
v 0.6875 1.8125 -0.125
v 0.6875 1.8125 -0.625
v 0.6875 1.6875 -0.125
v 0.6875 1.6875 -0.625
vt 0.515625 0.703125
vt 0.484375 0.703125
vt 0.484375 0.6953125
vt 0.515625 0.6953125
vt 0.546875 0.6953125
vt 0.546875 0.703125
vt 0.515625 0.703125
vt 0.515625 0.6953125
vt 0.34375 0.59375
vt 0.3515625 0.59375
vt 0.3515625 0.625
vt 0.34375 0.625
vt 0.40625 0.7734375
vt 0.40625 0.8046875
vt 0.3984375 0.8046875
vt 0.3984375 0.7734375
vt 0.3359375 0.7578125
vt 0.3359375 0.765625
vt 0.328125 0.765625
vt 0.328125 0.7578125
vt 0.3359375 0.7578125
vt 0.328125 0.7578125
vt 0.328125 0.75
vt 0.3359375 0.75
vn 1 0 0
vn -1 0 0
vn 0 1 0
vn 0 -1 0
vn 0 0 1
vn 0 0 -1
usemtl m_2109f6a3-f123-e0f4-8a83-febcad8ca1f3
f 58/185/47 57/186/47 59/187/47 60/188/47
f 63/189/48 61/190/48 62/191/48 64/192/48
f 61/193/49 57/194/49 58/195/49 62/196/49
f 60/197/50 59/198/50 63/199/50 64/200/50
f 59/201/51 57/202/51 61/203/51 63/204/51
f 62/205/52 58/206/52 60/207/52 64/208/52
o cube
v -0.625 2.75 0.625
v -0.625 2.75 0.125
v -0.625 2.625 0.625
v -0.625 2.625 0.125
v -0.75 2.75 0.625
v -0.75 2.75 0.125
v -0.75 2.625 0.625
v -0.75 2.625 0.125
vt 0.4375 0.6953125
vt 0.40625 0.6953125
vt 0.40625 0.6875
vt 0.4375 0.6875
vt 0.4921875 0.625
vt 0.4921875 0.6328125
vt 0.4609375 0.6328125
vt 0.4609375 0.625
vt 0.328125 0.796875
vt 0.3359375 0.796875
vt 0.3359375 0.828125
vt 0.328125 0.828125
vt 0.3359375 0.765625
vt 0.3359375 0.796875
vt 0.328125 0.796875
vt 0.328125 0.765625
vt 0.234375 0.7578125
vt 0.234375 0.765625
vt 0.2265625 0.765625
vt 0.2265625 0.7578125
vt 0.234375 0.7578125
vt 0.2265625 0.7578125
vt 0.2265625 0.75
vt 0.234375 0.75
vn 1 0 0
vn -1 0 0
vn 0 1 0
vn 0 -1 0
vn 0 0 1
vn 0 0 -1
usemtl m_2109f6a3-f123-e0f4-8a83-febcad8ca1f3
f 66/209/53 65/210/53 67/211/53 68/212/53
f 71/213/54 69/214/54 70/215/54 72/216/54
f 69/217/55 65/218/55 66/219/55 70/220/55
f 68/221/56 67/222/56 71/223/56 72/224/56
f 67/225/57 65/226/57 69/227/57 71/228/57
f 70/229/58 66/230/58 68/231/58 72/232/58
o cube
v -0.125 2 -0.06249999999999967
v -0.6250000000000001 2 -0.06249999999999978
v -0.125 1.875 -0.06249999999999967
v -0.6250000000000001 1.875 -0.06249999999999978
v -0.125 2 0.06250000000000033
v -0.6250000000000001 2 0.06250000000000022
v -0.125 1.875 0.06250000000000033
v -0.6250000000000001 1.875 0.06250000000000022
vt 0.546875 0.5390625
vt 0.515625 0.5390625
vt 0.515625 0.53125
vt 0.546875 0.53125
vt 0.546875 0.5234375
vt 0.546875 0.53125
vt 0.515625 0.53125
vt 0.515625 0.5234375
vt 0.34375 0.5625
vt 0.3515625 0.5625
vt 0.3515625 0.59375
vt 0.34375 0.59375
vt 0.3515625 0.53125
vt 0.3515625 0.5625
vt 0.34375 0.5625
vt 0.34375 0.53125
vt 0.40625 0.765625
vt 0.40625 0.7734375
vt 0.3984375 0.7734375
vt 0.3984375 0.765625
vt 0.40625 0.765625
vt 0.3984375 0.765625
vt 0.3984375 0.7578125
vt 0.40625 0.7578125
vn 2.220446049250313e-16 0 -1
vn -2.220446049250313e-16 0 1
vn 0 1 0
vn 0 -1 0
vn 1 0 2.220446049250313e-16
vn -1 0 -2.220446049250313e-16
usemtl m_2109f6a3-f123-e0f4-8a83-febcad8ca1f3
f 74/233/59 73/234/59 75/235/59 76/236/59
f 79/237/60 77/238/60 78/239/60 80/240/60
f 77/241/61 73/242/61 74/243/61 78/244/61
f 76/245/62 75/246/62 79/247/62 80/248/62
f 75/249/63 73/250/63 77/251/63 79/252/63
f 78/253/64 74/254/64 76/255/64 80/256/64