# Made in Blockbench 4.7.2
mtllib FlowerTowerSeedling.mtl

o cube
v -0.02726492640534421 0.0388244675498947 0.22916869042320195
v 0.010252148420002286 0.0388244675498947 0.15709906022747144
v -0.020090698379132382 0.00863928547836132 0.23290335714679272
v 0.017426376446214115 0.00863928547836132 0.1608337269510622
v -0.08081409340315851 0.022648277230987154 0.20129275849964684
v -0.043297018577812006 0.022648277230987154 0.12922312830391636
v -0.07363986537694668 -0.007536904840546227 0.20502742522323764
v -0.03612279055160017 -0.007536904840546227 0.13295779502750713
vt 0.0625 0.53125
vt 0.046875 0.53125
vt 0.046875 0.515625
vt 0.0625 0.515625
vt 0.171875 0.984375
vt 0.171875 1
vt 0.15625 1
vt 0.15625 0.984375
vt 0.1875 0.59375
vt 0.21875 0.59375
vt 0.21875 0.609375
vt 0.1875 0.609375
vt 0.265625 0.59375
vt 0.265625 0.609375
vt 0.234375 0.609375
vt 0.234375 0.59375
vt 0.109375 0.765625
vt 0.109375 0.78125
vt 0.078125 0.78125
vt 0.078125 0.765625
vt 0.109375 0.75
vt 0.078125 0.75
vt 0.078125 0.734375
vt 0.109375 0.734375
vn 0.8567866719650288 0.25881904510252074 0.44601491077688155
vn -0.8567866719650288 -0.25881904510252074 -0.44601491077688155
vn -0.22957529683877867 0.9659258262890683 -0.11950933515490465
vn 0.22957529683877867 -0.9659258262890683 0.11950933515490465
vn -0.4617486132350339 1.3877787807814457e-17 0.8870108331782218
vn 0.4617486132350339 -1.3877787807814457e-17 -0.8870108331782218
usemtl m_09308da3-1f86-d829-a793-6ba9224cdda6
f 2/1/1 1/2/1 3/3/1 4/4/1
f 7/5/2 5/6/2 6/7/2 8/8/2
f 5/9/3 1/10/3 2/11/3 6/12/3
f 4/13/4 3/14/4 7/15/4 8/16/4
f 3/17/5 1/18/5 5/19/5 7/20/5
f 6/21/6 2/22/6 4/23/6 8/24/6
o cube
v -0.13604689652101692 0.0388244675498947 0.0809405979039877
v -0.17356397134636342 0.0388244675498947 0.15301022809971823
v -0.14322112454722877 0.00863928547836132 0.07720593118039693
v -0.18073819937257526 0.00863928547836132 0.14927556137612746
v -0.08249772952320264 0.022648277230987154 0.10881652982754278
v -0.12001480434854914 0.022648277230987154 0.18088616002327332
v -0.08967195754941447 -0.007536904840546227 0.10508186310395201
v -0.12718903237476098 -0.007536904840546227 0.17715149329968255
vt 0.21875 0.65625
vt 0.203125 0.65625
vt 0.203125 0.640625
vt 0.21875 0.640625
vt 0.171875 0.890625
vt 0.171875 0.90625
vt 0.15625 0.90625
vt 0.15625 0.890625
vt 0.078125 0.640625
vt 0.109375 0.640625
vt 0.109375 0.65625
vt 0.078125 0.65625
vt 0.109375 0.609375
vt 0.109375 0.625
vt 0.078125 0.625
vt 0.078125 0.609375
vt 0.109375 0.578125
vt 0.109375 0.59375
vt 0.078125 0.59375
vt 0.078125 0.578125
vt 0.109375 0.5625
vt 0.078125 0.5625
vt 0.078125 0.546875
vt 0.109375 0.546875
vn -0.8567866719650289 0.2588190451025208 -0.44601491077688143
vn 0.8567866719650289 -0.2588190451025208 0.44601491077688143
vn 0.22957529683877875 0.9659258262890684 0.11950933515490464
vn -0.22957529683877875 -0.9659258262890684 -0.11950933515490464
vn 0.4617486132350339 0 -0.8870108331782219
vn -0.4617486132350339 0 0.8870108331782219
usemtl m_09308da3-1f86-d829-a793-6ba9224cdda6
f 10/25/7 9/26/7 11/27/7 12/28/7
f 15/29/8 13/30/8 14/31/8 16/32/8
f 13/33/9 9/34/9 10/35/9 14/36/9
f 12/37/10 11/38/10 15/39/10 16/40/10
f 11/41/11 9/42/11 13/43/11 15/44/11
f 14/45/12 10/46/12 12/47/12 16/48/12
o cube
v -0.007541865203573445 0.0388244675498947 0.1006636591057585
v -0.07961149539930393 0.0388244675498947 0.06314658428041198
v -0.0038071984799826764 0.00863928547836132 0.09348943107954667
v -0.07587682867571316 0.00863928547836132 0.05597235625420015
v -0.035417797127128545 0.022648277230987154 0.1542128261035728
v -0.10748742732285904 0.022648277230987154 0.11669575127822626
v -0.031683130403537776 -0.007536904840546227 0.14703859807736094
v -0.10375276059926827 -0.007536904840546227 0.10952152325201442
vt 0.125 0.59375
vt 0.109375 0.59375
vt 0.109375 0.578125
vt 0.125 0.578125
vt 0.234375 0.796875
vt 0.234375 0.8125
vt 0.21875 0.8125
vt 0.21875 0.796875
vt 0 0.640625
vt 0.03125 0.640625
vt 0.03125 0.65625
vt 0 0.65625
vt 0.078125 0.640625
vt 0.078125 0.65625
vt 0.046875 0.65625
vt 0.046875 0.640625
vt 0.3125 0.640625
vt 0.3125 0.65625
vt 0.28125 0.65625
vt 0.28125 0.640625
vt 0.359375 0.65625
vt 0.328125 0.65625
vt 0.328125 0.640625
vt 0.359375 0.640625
vn 0.4460149107768817 0.25881904510252063 -0.8567866719650286
vn -0.4460149107768817 -0.25881904510252063 0.8567866719650286
vn -0.11950933515490475 0.9659258262890684 0.22957529683877873
vn 0.11950933515490475 -0.9659258262890684 -0.22957529683877873
vn 0.8870108331782217 -2.775557561562892e-17 0.46174861323503413
vn -0.8870108331782217 2.775557561562892e-17 -0.46174861323503413
usemtl m_09308da3-1f86-d829-a793-6ba9224cdda6
f 18/49/13 17/50/13 19/51/13 20/52/13
f 23/53/14 21/54/14 22/55/14 24/56/14
f 21/57/15 17/58/15 18/59/15 22/60/15
f 20/61/16 19/62/16 23/63/16 24/64/16
f 19/65/17 17/66/17 21/67/17 23/68/17
f 22/69/18 18/70/18 20/71/18 24/72/18
o cube
v -0.15576995772278768 0.0388244675498947 0.2094456292214312
v -0.08370032752705717 0.0388244675498947 0.24696270404677767
v -0.15950462444637845 0.00863928547836132 0.21661985724764302
v -0.08743499425064793 0.00863928547836132 0.2541369320729895
v -0.1278940257992326 0.022648277230987154 0.1558964622236169
v -0.05582439560350209 0.022648277230987154 0.19341353704896339
v -0.13162869252282336 -0.007536904840546227 0.16307069024982873
v -0.059559062327092856 -0.007536904840546227 0.20058776507517523
vt 0.15625 0.59375
vt 0.140625 0.59375
vt 0.140625 0.578125
vt 0.15625 0.578125
vt 0.234375 0.953125
vt 0.234375 0.96875
vt 0.21875 0.96875
vt 0.21875 0.953125
vt 0.0625 0.640625
vt 0.09375 0.640625
vt 0.09375 0.65625
vt 0.0625 0.65625
vt 0.140625 0.640625
vt 0.140625 0.65625
vt 0.109375 0.65625
vt 0.109375 0.640625
vt 0.1875 0.640625
vt 0.1875 0.65625
vt 0.15625 0.65625
vt 0.15625 0.640625
vt 0.203125 0.8125
vt 0.171875 0.8125
vt 0.171875 0.796875
vt 0.203125 0.796875
vn -0.4460149107768814 0.2588190451025207 0.856786671965029
vn 0.4460149107768814 -0.2588190451025207 -0.856786671965029
vn 0.11950933515490463 0.9659258262890684 -0.22957529683877878
vn -0.11950933515490463 -0.9659258262890684 0.22957529683877878
vn -0.8870108331782219 5.551115123125784e-17 -0.4617486132350337
vn 0.8870108331782219 -5.551115123125784e-17 0.4617486132350337
usemtl m_09308da3-1f86-d829-a793-6ba9224cdda6
f 26/73/19 25/74/19 27/75/19 28/76/19
f 31/77/20 29/78/20 30/79/20 32/80/20
f 29/81/21 25/82/21 26/83/21 30/84/21
f 28/85/22 27/86/22 31/87/22 32/88/22
f 27/89/23 25/90/23 29/91/23 31/92/23
f 30/93/24 26/94/24 28/95/24 32/96/24
o cube
v -0.06836646708995596 0.1875 0.19720337686400907
v -0.03950717876276634 0.1875 0.1417651997903702
v -0.06836646708995596 0 0.19720337686400907
v -0.03950717876276634 0 0.1417651997903702
v -0.12380464416359481 0.1875 0.16834408853681945
v -0.09494535583640519 0.1875 0.11290591146318059
v -0.12380464416359481 0 0.16834408853681945
v -0.09494535583640519 0 0.11290591146318059
vt 0.25 1
vt 0.234375 1
vt 0.234375 0.875
vt 0.25 0.875
vt 0.0625 0.640625
vt 0.0625 0.765625
vt 0.046875 0.765625
vt 0.046875 0.640625
vt 0 0.59375
vt 0.015625 0.59375
vt 0.015625 0.609375
vt 0 0.609375
vt 0.109375 0.5625
vt 0.109375 0.578125
vt 0.09375 0.578125
vt 0.09375 0.5625
vt 0.09375 0.640625
vt 0.09375 0.765625
vt 0.078125 0.765625
vt 0.078125 0.640625
vt 0.125 0.765625
vt 0.109375 0.765625
vt 0.109375 0.640625
vt 0.125 0.640625
vn 0.8870108331782217 0 0.4617486132350339
vn -0.8870108331782217 0 -0.4617486132350339
vn 0 1 0
vn 0 -1 0
vn -0.4617486132350339 0 0.8870108331782217
vn 0.4617486132350339 0 -0.8870108331782217
usemtl m_09308da3-1f86-d829-a793-6ba9224cdda6
f 34/97/25 33/98/25 35/99/25 36/100/25
f 39/101/26 37/102/26 38/103/26 40/104/26
f 37/105/27 33/106/27 34/107/27 38/108/27
f 36/109/28 35/110/28 39/111/28 40/112/28
f 35/113/29 33/114/29 37/115/29 39/116/29
f 38/117/30 34/118/30 36/119/30 40/120/30
o cube
v -0.07382776882255163 0.125 -0.14510199011535457
v -0.13537825338581463 0.125 -0.13424897901117144
v -0.07382776882255163 0 -0.14510199011535457
v -0.13537825338581463 0 -0.13424897901117144
v -0.0629747577183685 0.125 -0.08355150555209157
v -0.1245252422816315 0.125 -0.07269849444790843
v -0.0629747577183685 0 -0.08355150555209157
v -0.1245252422816315 0 -0.07269849444790843
vt 0.203125 0.71875
vt 0.1875 0.71875
vt 0.1875 0.609375
vt 0.203125 0.609375
vt 0.234375 0.609375
vt 0.234375 0.71875
vt 0.21875 0.71875
vt 0.21875 0.609375
vt 0.28125 0.796875
vt 0.296875 0.796875
vt 0.296875 0.8125
vt 0.28125 0.8125
vt 0.296875 0.765625
vt 0.296875 0.78125
vt 0.28125 0.78125
vt 0.28125 0.765625
vt 0.265625 0.609375
vt 0.265625 0.71875
vt 0.25 0.71875
vt 0.25 0.609375
vt 0.296875 0.71875
vt 0.28125 0.71875
vt 0.28125 0.609375
vt 0.296875 0.609375
vn -0.1736481776669303 0 -0.9848077530122081
vn 0.1736481776669303 0 0.9848077530122081
vn 0 1 0
vn 0 -1 0
vn 0.9848077530122081 0 -0.1736481776669303
vn -0.9848077530122081 0 0.1736481776669303
usemtl m_09308da3-1f86-d829-a793-6ba9224cdda6
f 42/121/31 41/122/31 43/123/31 44/124/31
f 47/125/32 45/126/32 46/127/32 48/128/32
f 45/129/33 41/130/33 42/131/33 46/132/33
f 44/133/34 43/134/34 47/135/34 48/136/34
f 43/137/35 41/138/35 45/139/35 47/140/35
f 46/141/36 42/142/36 44/143/36 48/144/36
o cube
v -0.07348901317853354 0.0388244675498947 -0.1971692846696135
v -0.15350464311077547 0.0388244675498947 -0.18306037023417543
v -0.07489349616376942 0.00863928547836132 -0.2051345034897441
v -0.15490912609601132 0.00863928547836132 -0.191025589054306
v -0.063005809460001 0.022648277230987154 -0.13771608200935115
v -0.14302143939224293 0.022648277230987154 -0.12360716757391305
v -0.06441029244523688 -0.007536904840546227 -0.14568130082948172
v -0.14442592237747878 -0.007536904840546227 -0.13157238639404364
vt 0.171875 0.75
vt 0.15625 0.75
vt 0.15625 0.734375
vt 0.171875 0.734375
vt 0.296875 0.578125
vt 0.296875 0.59375
vt 0.28125 0.59375
vt 0.28125 0.578125
vt 0.109375 0.953125
vt 0.140625 0.953125
vt 0.140625 0.96875
vt 0.109375 0.96875
vt 0.140625 0.921875
vt 0.140625 0.9375
vt 0.109375 0.9375
vt 0.109375 0.921875
vt 0.140625 0.890625
vt 0.140625 0.90625
vt 0.109375 0.90625
vt 0.109375 0.890625
vt 0.140625 0.875
vt 0.109375 0.875
vt 0.109375 0.859375
vt 0.140625 0.859375
vn -0.1677312594965206 0.2588190451025208 -0.9512512425641978
vn 0.1677312594965206 -0.2588190451025208 0.9512512425641978
vn 0.04494345552754777 0.9659258262890684 0.2548870022441788
vn -0.04494345552754777 -0.9659258262890684 -0.2548870022441788
vn 0.9848077530122081 0 -0.17364817766693033
vn -0.9848077530122081 0 0.17364817766693033
usemtl m_09308da3-1f86-d829-a793-6ba9224cdda6
f 50/145/37 49/146/37 51/147/37 52/148/37
f 55/149/38 53/150/38 54/151/38 56/152/38
f 53/153/39 49/154/39 50/155/39 54/156/39
f 52/157/40 51/158/40 55/159/40 56/160/40
f 51/161/41 49/162/41 53/163/41 55/164/41
f 54/165/42 50/166/42 52/167/42 56/168/42
o cube
v -0.12486399792564958 0.0388244675498947 -0.020631199893649504
v -0.04484836799340766 0.0388244675498947 -0.03474011432908761
v -0.12345951494041371 0.00863928547836132 -0.01266598107351892
v -0.0434438850081718 0.00863928547836132 -0.026774895508957022
v -0.13534720164418212 0.022648277230987154 -0.08008440255391186
v -0.055331571711940204 0.022648277230987154 -0.09419331698934996
v -0.13394271865894625 -0.007536904840546227 -0.07211918373378128
v -0.053927088726704334 -0.007536904840546227 -0.08622809816921938
vt 0.140625 0.53125
vt 0.125 0.53125
vt 0.125 0.515625
vt 0.140625 0.515625
vt 0.171875 0.515625
vt 0.171875 0.53125
vt 0.15625 0.53125
vt 0.15625 0.515625
vt 0.296875 0.890625
vt 0.328125 0.890625
vt 0.328125 0.90625
vt 0.296875 0.90625
vt 0.03125 0.5625
vt 0.03125 0.578125
vt 0 0.578125
vt 0 0.5625
vt 0.328125 0.859375
vt 0.328125 0.875
vt 0.296875 0.875
vt 0.296875 0.859375
vt 0.328125 0.84375
vt 0.296875 0.84375
vt 0.296875 0.828125
vt 0.328125 0.828125
vn 0.1677312594965207 0.2588190451025208 0.9512512425641978
vn -0.1677312594965207 -0.2588190451025208 -0.9512512425641978
vn -0.0449434555275478 0.9659258262890683 -0.2548870022441788
vn 0.0449434555275478 -0.9659258262890683 0.2548870022441788
vn -0.9848077530122081 0 0.17364817766693041
vn 0.9848077530122081 0 -0.17364817766693041
usemtl m_09308da3-1f86-d829-a793-6ba9224cdda6
f 58/169/43 57/170/43 59/171/43 60/172/43
f 63/173/44 61/174/44 62/175/44 64/176/44
f 61/177/45 57/178/45 58/179/45 62/180/45
f 60/181/46 59/182/46 63/183/46 64/184/46
f 59/185/47 57/186/47 61/187/47 63/188/47
f 62/189/48 58/190/48 60/191/48 64/192/48
o cube
v -0.18744554794007354 0.0388244675498947 -0.13458773465518953
v -0.17333663350463546 0.0388244675498947 -0.05457210472294764
v -0.19541076676020414 0.00863928547836132 -0.13318325166995368
v -0.18130185232476603 0.00863928547836132 -0.05316762173771178
v -0.12799234527981118 0.022648277230987154 -0.14507093837372206
v -0.11388343084437312 0.022648277230987154 -0.06505530844148016
v -0.13595756409994178 -0.007536904840546227 -0.1436664553884862
v -0.1218486496645037 -0.007536904840546227 -0.06365082545624429
vt 0.203125 0.59375
vt 0.1875 0.59375
vt 0.1875 0.578125
vt 0.203125 0.578125
vt 0.234375 0.578125
vt 0.234375 0.59375
vt 0.21875 0.59375
vt 0.21875 0.578125
vt 0.234375 0.625
vt 0.265625 0.625
vt 0.265625 0.640625
vt 0.234375 0.640625
vt 0.328125 0.859375
vt 0.328125 0.875
vt 0.296875 0.875
vt 0.296875 0.859375
vt 0.03125 0.609375
vt 0.03125 0.625
vt 0 0.625
vt 0 0.609375
vt 0.078125 0.625
vt 0.046875 0.625
vt 0.046875 0.609375
vt 0.078125 0.609375
vn -0.9512512425641979 0.25881904510252074 0.1677312594965204
vn 0.9512512425641979 -0.25881904510252074 -0.1677312594965204
vn 0.2548870022441789 0.9659258262890684 -0.04494345552754773
vn -0.2548870022441789 -0.9659258262890684 0.04494345552754773
vn -0.17364817766693008 -2.0816681711721688e-17 -0.9848077530122081
vn 0.17364817766693008 2.0816681711721688e-17 0.9848077530122081
usemtl m_09308da3-1f86-d829-a793-6ba9224cdda6
f 66/193/49 65/194/49 67/195/49 68/196/49
f 71/197/50 69/198/50 70/199/50 72/200/50
f 69/201/51 65/202/51 66/203/51 70/204/51
f 68/205/52 67/206/52 71/207/52 72/208/52
f 67/209/53 65/210/53 69/211/53 71/212/53
f 70/213/54 66/214/54 68/215/54 72/216/54
o cube
v -0.01090746316410958 0.0388244675498947 -0.08321274990807351
v -0.02501637759954768 0.0388244675498947 -0.1632283798403154
v -0.0029422443439789947 0.00863928547836132 -0.08461723289330937
v -0.017051158779417097 0.00863928547836132 -0.16463286282555128
v -0.07036066582437192 0.022648277230987154 -0.07272954618954096
v -0.08446958025981002 0.022648277230987154 -0.15274517612178284
v -0.062395447004241336 -0.007536904840546227 -0.07413402917477682
v -0.07650436143967944 -0.007536904840546227 -0.15414965910701872
vt 0.234375 0.65625
vt 0.21875 0.65625
vt 0.21875 0.640625
vt 0.234375 0.640625
vt 0.265625 0.640625
vt 0.265625 0.65625
vt 0.25 0.65625
vt 0.25 0.640625
vt 0 0.609375
vt 0.03125 0.609375
vt 0.03125 0.625
vt 0 0.625
vt 0.078125 0.609375
vt 0.078125 0.625
vt 0.046875 0.625
vt 0.046875 0.609375
vt 0.09375 0.671875
vt 0.09375 0.6875
vt 0.0625 0.6875
vt 0.0625 0.671875
vt 0.3125 0.90625
vt 0.28125 0.90625
vt 0.28125 0.890625
vt 0.3125 0.890625
vn 0.9512512425641977 0.2588190451025207 -0.1677312594965208
vn -0.9512512425641977 -0.2588190451025207 0.1677312594965208
vn -0.25488700224417876 0.9659258262890682 0.04494345552754782
vn 0.25488700224417876 -0.9659258262890682 -0.04494345552754782
vn 0.17364817766693053 3.469446951953615e-17 0.9848077530122081
vn -0.17364817766693053 -3.469446951953615e-17 -0.9848077530122081
usemtl m_09308da3-1f86-d829-a793-6ba9224cdda6
f 74/217/55 73/218/55 75/219/55 76/220/55
f 79/221/56 77/222/56 78/223/56 80/224/56
f 77/225/57 73/226/57 74/227/57 78/228/57
f 76/229/58 75/230/58 79/231/58 80/232/58
f 75/233/59 73/234/59 77/235/59 79/236/59
f 78/237/60 74/238/60 76/239/60 80/240/60
o cube
v 0.11913353291004404 0.1875 0.07220337686400904
v 0.14799282123723367 0.1875 0.01676519979037019
v 0.11913353291004404 0 0.07220337686400904
v 0.14799282123723367 0 0.01676519979037019
v 0.06369535583640519 0.1875 0.043344088536819425
v 0.09255464416359481 0.1875 -0.012094088536819425
v 0.06369535583640519 0 0.043344088536819425
v 0.09255464416359481 0 -0.012094088536819425
vt 0.25 0.859375
vt 0.234375 0.859375
vt 0.234375 0.734375
vt 0.25 0.734375
vt 0.015625 0.625
vt 0.015625 0.75
vt 0 0.75
vt 0 0.625
vt 0.1875 0.640625
vt 0.203125 0.640625
vt 0.203125 0.65625
vt 0.1875 0.65625
vt 0.234375 0.640625
vt 0.234375 0.65625
vt 0.21875 0.65625
vt 0.21875 0.640625
vt 0.28125 0.875
vt 0.28125 1
vt 0.265625 1
vt 0.265625 0.875
vt 0.28125 0.859375
vt 0.265625 0.859375
vt 0.265625 0.734375
vt 0.28125 0.734375
vn 0.8870108331782217 0 0.4617486132350339
vn -0.8870108331782217 0 -0.4617486132350339
vn 0 1 0
vn 0 -1 0
vn -0.4617486132350339 0 0.8870108331782217
vn 0.4617486132350339 0 -0.8870108331782217
usemtl m_09308da3-1f86-d829-a793-6ba9224cdda6
f 82/241/61 81/242/61 83/243/61 84/244/61
f 87/245/62 85/246/62 86/247/62 88/248/62
f 85/249/63 81/250/63 82/251/63 86/252/63
f 84/253/64 83/254/64 87/255/64 88/256/64
f 83/257/65 81/258/65 85/259/65 87/260/65
f 86/261/66 82/262/66 84/263/66 88/264/66
o cube
v 0.16023507359465577 0.0388244675498947 0.10416869042320194
v 0.19775214842000227 0.0388244675498947 0.03209906022747143
v 0.16740930162086762 0.00863928547836132 0.10790335714679271
v 0.20492637644621411 0.00863928547836132 0.0358337269510622
v 0.10668590659684149 0.022648277230987154 0.07629275849964684
v 0.144202981422188 0.022648277230987154 0.004223128303916333
v 0.11386013462305332 -0.007536904840546227 0.08002742522323761
v 0.15137720944839983 -0.007536904840546227 0.007957795027507104
vt 0.0625 0.640625
vt 0.046875 0.640625
vt 0.046875 0.625
vt 0.0625 0.625
vt 0.09375 0.625
vt 0.09375 0.640625
vt 0.078125 0.640625
vt 0.078125 0.625
vt 0.125 0.734375
vt 0.15625 0.734375
vt 0.15625 0.75
vt 0.125 0.75
vt 0.234375 0.671875
vt 0.234375 0.6875
vt 0.203125 0.6875
vt 0.203125 0.671875
vt 0.15625 0.703125
vt 0.15625 0.71875
vt 0.125 0.71875
vt 0.125 0.703125
vt 0.28125 0.6875
vt 0.25 0.6875
vt 0.25 0.671875
vt 0.28125 0.671875
vn 0.8567866719650288 0.25881904510252074 0.44601491077688155
vn -0.8567866719650288 -0.25881904510252074 -0.44601491077688155
vn -0.22957529683877867 0.9659258262890683 -0.11950933515490465
vn 0.22957529683877867 -0.9659258262890683 0.11950933515490465
vn -0.4617486132350339 1.3877787807814457e-17 0.8870108331782218
vn 0.4617486132350339 -1.3877787807814457e-17 -0.8870108331782218
usemtl m_09308da3-1f86-d829-a793-6ba9224cdda6
f 90/265/67 89/266/67 91/267/67 92/268/67
f 95/269/68 93/270/68 94/271/68 96/272/68
f 93/273/69 89/274/69 90/275/69 94/276/69
f 92/277/70 91/278/70 95/279/70 96/280/70
f 91/281/71 89/282/71 93/283/71 95/284/71
f 94/285/72 90/286/72 92/287/72 96/288/72
o cube
v 0.05145310347898306 0.0388244675498947 -0.04405940209601232
v 0.013936028653636565 0.0388244675498947 0.02801022809971821
v 0.04427887545277123 0.00863928547836132 -0.04779406881960309
v 0.0067618006274247355 0.00863928547836132 0.024275561376127443
v 0.10500227047679736 0.022648277230987154 -0.016183470172457227
v 0.06748519565145086 0.022648277230987154 0.0558861600232733
v 0.09782804245058553 -0.007536904840546227 -0.019918136896047996
v 0.060310967625239034 -0.007536904840546227 0.05215149329968253
vt 0.3125 0.640625
vt 0.296875 0.640625
vt 0.296875 0.625
vt 0.3125 0.625
vt 0.3125 0.828125
vt 0.3125 0.84375
vt 0.296875 0.84375
vt 0.296875 0.828125
vt 0.25 0.734375
vt 0.28125 0.734375
vt 0.28125 0.75
vt 0.25 0.75
vt 0.28125 0.703125
vt 0.28125 0.71875
vt 0.25 0.71875
vt 0.25 0.703125
vt 0.203125 0.609375
vt 0.203125 0.625
vt 0.171875 0.625
vt 0.171875 0.609375
vt 0.28125 0.6875
vt 0.25 0.6875
vt 0.25 0.671875
vt 0.28125 0.671875
vn -0.8567866719650289 0.2588190451025208 -0.44601491077688143
vn 0.8567866719650289 -0.2588190451025208 0.44601491077688143
vn 0.22957529683877875 0.9659258262890684 0.11950933515490464
vn -0.22957529683877875 -0.9659258262890684 -0.11950933515490464
vn 0.4617486132350339 0 -0.8870108331782219
vn -0.4617486132350339 0 0.8870108331782219
usemtl m_09308da3-1f86-d829-a793-6ba9224cdda6
f 98/289/73 97/290/73 99/291/73 100/292/73
f 103/293/74 101/294/74 102/295/74 104/296/74
f 101/297/75 97/298/75 98/299/75 102/300/75
f 100/301/76 99/302/76 103/303/76 104/304/76
f 99/305/77 97/306/77 101/307/77 103/308/77
f 102/309/78 98/310/78 100/311/78 104/312/78
o cube
v 0.17995813479642656 0.0388244675498947 -0.024336340894241512
v 0.10788850460069607 0.0388244675498947 -0.06185341571958804
v 0.18369280152001732 0.00863928547836132 -0.03151056892045334
v 0.11162317132428684 0.00863928547836132 -0.06902764374579987
v 0.15208220287287144 0.022648277230987154 0.029212826103572762
v 0.08001257267714096 0.022648277230987154 -0.008304248721773752
v 0.15581686959646224 -0.007536904840546227 0.02203859807736093
v 0.08374723940073173 -0.007536904840546227 -0.015478476747985588
vt 0.3125 0.75
vt 0.296875 0.75
vt 0.296875 0.734375
vt 0.3125 0.734375
vt 0.3125 0.703125
vt 0.3125 0.71875
vt 0.296875 0.71875
vt 0.296875 0.703125
vt 0.21875 0.546875
vt 0.25 0.546875
vt 0.25 0.5625
vt 0.21875 0.5625
vt 0.21875 0.65625
vt 0.21875 0.671875
vt 0.1875 0.671875
vt 0.1875 0.65625
vt 0.265625 0.65625
vt 0.265625 0.671875
vt 0.234375 0.671875
vt 0.234375 0.65625
vt 0.296875 0.59375
vt 0.265625 0.59375
vt 0.265625 0.578125
vt 0.296875 0.578125
vn 0.4460149107768817 0.25881904510252063 -0.8567866719650286
vn -0.4460149107768817 -0.25881904510252063 0.8567866719650286
vn -0.11950933515490475 0.9659258262890684 0.22957529683877873
vn 0.11950933515490475 -0.9659258262890684 -0.22957529683877873
vn 0.8870108331782217 -2.775557561562892e-17 0.46174861323503413
vn -0.8870108331782217 2.775557561562892e-17 -0.46174861323503413
usemtl m_09308da3-1f86-d829-a793-6ba9224cdda6
f 106/313/79 105/314/79 107/315/79 108/316/79
f 111/317/80 109/318/80 110/319/80 112/320/80
f 109/321/81 105/322/81 106/323/81 110/324/81
f 108/325/82 107/326/82 111/327/82 112/328/82
f 107/329/83 105/330/83 109/331/83 111/332/83
f 110/333/84 106/334/84 108/335/84 112/336/84
o cube
v 0.03173004227721232 0.0388244675498947 0.08444562922143117
v 0.10379967247294283 0.0388244675498947 0.12196270404677766
v 0.027995375553621554 0.00863928547836132 0.09161985724764302
v 0.10006500574935207 0.00863928547836132 0.12913693207298949
v 0.0596059742007674 0.022648277230987154 0.03089646222361688
v 0.13167560439649792 0.022648277230987154 0.06841353704896336
v 0.055871307477176634 -0.007536904840546227 0.03807069024982872
v 0.12794093767290715 -0.007536904840546227 0.0755877650751752
vt 0.25 0.75
vt 0.234375 0.75
vt 0.234375 0.734375
vt 0.25 0.734375
vt 0.25 0.703125
vt 0.25 0.71875
vt 0.234375 0.71875
vt 0.234375 0.703125
vt 0.203125 0.609375
vt 0.234375 0.609375
vt 0.234375 0.625
vt 0.203125 0.625
vt 0.15625 0.640625
vt 0.15625 0.65625
vt 0.125 0.65625
vt 0.125 0.640625
vt 0.1875 0.734375
vt 0.1875 0.75
vt 0.15625 0.75
vt 0.15625 0.734375
vt 0.1875 0.71875
vt 0.15625 0.71875
vt 0.15625 0.703125
vt 0.1875 0.703125
vn -0.4460149107768814 0.2588190451025207 0.856786671965029
vn 0.4460149107768814 -0.2588190451025207 -0.856786671965029
vn 0.11950933515490463 0.9659258262890684 -0.22957529683877878
vn -0.11950933515490463 -0.9659258262890684 0.22957529683877878
vn -0.8870108331782219 5.551115123125784e-17 -0.4617486132350337
vn 0.8870108331782219 -5.551115123125784e-17 0.4617486132350337
usemtl m_09308da3-1f86-d829-a793-6ba9224cdda6
f 114/337/85 113/338/85 115/339/85 116/340/85
f 119/341/86 117/342/86 118/343/86 120/344/86
f 117/345/87 113/346/87 114/347/87 118/348/87
f 116/349/88 115/350/88 119/351/88 120/352/88
f 115/353/89 113/354/89 117/355/89 119/356/89
f 118/357/90 114/358/90 116/359/90 120/360/90