# Made in Blockbench 4.7.2
mtllib FlowerLittleSeedling.mtl

o Stem
v 0.015625 0.078125 0.015625
v 0.015625 0.078125 -0.015625
v 0.015625 0 0.015625
v 0.015625 0 -0.015625
v -0.015625 0.078125 0.015625
v -0.015625 0.078125 -0.015625
v -0.015625 0 0.015625
v -0.015625 0 -0.015625
vt 0.0625 0.875
vt 0 0.875
vt 0 0.8125
vt 0.0625 0.8125
vt 0.1875 0.8125
vt 0.1875 0.875
vt 0.125 0.875
vt 0.125 0.8125
vt 0.125 0.9375
vt 0.1875 0.9375
vt 0.1875 1
vt 0.125 1
vt 0.0625 0.6875
vt 0.0625 0.75
vt 0 0.75
vt 0 0.6875
vt 0.0625 0.9375
vt 0.0625 1
vt 0 1
vt 0 0.9375
vt 0.1875 0.75
vt 0.125 0.75
vt 0.125 0.6875
vt 0.1875 0.6875
vn 1 0 0
vn -1 0 0
vn 0 1 0
vn 0 -1 0
vn 0 0 1
vn 0 0 -1
usemtl m_735fac97-d5b6-5404-22ac-6174c8c88069
f 2/1/1 1/2/1 3/3/1 4/4/1
f 7/5/2 5/6/2 6/7/2 8/8/2
f 5/9/3 1/10/3 2/11/3 6/12/3
f 4/13/4 3/14/4 7/15/4 8/16/4
f 3/17/5 1/18/5 5/19/5 7/20/5
f 6/21/6 2/22/6 4/23/6 8/24/6
o Stem
v -0.13216881093521568 0.0625 0.020415046326193384
v -0.12020995367380662 0.0625 -0.008456189064784328
v -0.13216881093521568 0 0.020415046326193384
v -0.12020995367380662 0 -0.008456189064784328
v -0.1610400463261934 0.0625 0.008456189064784328
v -0.14908118906478432 0.0625 -0.020415046326193384
v -0.1610400463261934 0 0.008456189064784328
v -0.14908118906478432 0 -0.020415046326193384
vt 0.0625 0.875
vt 0 0.875
vt 0 0.8125
vt 0.0625 0.8125
vt 0.1875 0.8125
vt 0.1875 0.875
vt 0.125 0.875
vt 0.125 0.8125
vt 0.125 0.9375
vt 0.1875 0.9375
vt 0.1875 1
vt 0.125 1
vt 0.0625 0.6875
vt 0.0625 0.75
vt 0 0.75
vt 0 0.6875
vt 0.0625 0.9375
vt 0.0625 1
vt 0 1
vt 0 0.9375
vt 0.1875 0.75
vt 0.125 0.75
vt 0.125 0.6875
vt 0.1875 0.6875
vn 0.9238795325112867 0 0.3826834323650897
vn -0.9238795325112867 0 -0.3826834323650897
vn 0 1 0
vn 0 -1 0
vn -0.3826834323650897 0 0.9238795325112867
vn 0.3826834323650897 0 -0.9238795325112867
usemtl m_735fac97-d5b6-5404-22ac-6174c8c88069
f 10/25/7 9/26/7 11/27/7 12/28/7
f 15/29/8 13/30/8 14/31/8 16/32/8
f 13/33/9 9/34/9 10/35/9 14/36/9
f 12/37/10 11/38/10 15/39/10 16/40/10
f 11/41/11 9/42/11 13/43/11 15/44/11
f 14/45/12 10/46/12 12/47/12 16/48/12
o Stem
v 0.12642126632274864 0.046875 0.032552350638115686
v 0.15755235063811568 0.046875 0.02982873367725136
v 0.12642126632274864 0 0.032552350638115686
v 0.15755235063811568 0 0.02982873367725136
v 0.12369764936188432 0.046875 0.0014212663227486412
v 0.15482873367725136 0.046875 -0.001302350638115686
v 0.12369764936188432 0 0.0014212663227486412
v 0.15482873367725136 0 -0.001302350638115686
vt 0.0625 0.875
vt 0 0.875
vt 0 0.8125
vt 0.0625 0.8125
vt 0.1875 0.8125
vt 0.1875 0.875
vt 0.125 0.875
vt 0.125 0.8125
vt 0.125 0.9375
vt 0.1875 0.9375
vt 0.1875 1
vt 0.125 1
vt 0.0625 0.6875
vt 0.0625 0.75
vt 0 0.75
vt 0 0.6875
vt 0.0625 0.9375
vt 0.0625 1
vt 0 1
vt 0 0.9375
vt 0.1875 0.75
vt 0.125 0.75
vt 0.125 0.6875
vt 0.1875 0.6875
vn 0.08715574274765849 0 0.9961946980917457
vn -0.08715574274765849 0 -0.9961946980917457
vn 0 1 0
vn 0 -1 0
vn -0.9961946980917457 0 0.08715574274765849
vn 0.9961946980917457 0 -0.08715574274765849
usemtl m_735fac97-d5b6-5404-22ac-6174c8c88069
f 18/49/13 17/50/13 19/51/13 20/52/13
f 23/53/14 21/54/14 22/55/14 24/56/14
f 21/57/15 17/58/15 18/59/15 22/60/15
f 20/61/16 19/62/16 23/63/16 24/64/16
f 19/65/17 17/66/17 21/67/17 23/68/17
f 22/69/18 18/70/18 20/71/18 24/72/18
o Stem
v 0.020407684960407214 0.0625 -0.10342670227875453
v 0.037198297721245464 0.0625 -0.1297826849604072
v 0.020407684960407214 -0.015625 -0.10342670227875453
v 0.037198297721245464 -0.015625 -0.1297826849604072
v -0.005948297721245464 0.0625 -0.12021731503959278
v 0.010842315039592784 0.0625 -0.14657329772124547
v -0.005948297721245464 -0.015625 -0.12021731503959278
v 0.010842315039592784 -0.015625 -0.14657329772124547
vt 0.0625 0.875
vt 0 0.875
vt 0 0.8125
vt 0.0625 0.8125
vt 0.1875 0.8125
vt 0.1875 0.875
vt 0.125 0.875
vt 0.125 0.8125
vt 0.125 0.9375
vt 0.1875 0.9375
vt 0.1875 1
vt 0.125 1
vt 0.0625 0.6875
vt 0.0625 0.75
vt 0 0.75
vt 0 0.6875
vt 0.0625 0.9375
vt 0.0625 1
vt 0 1
vt 0 0.9375
vt 0.1875 0.75
vt 0.125 0.75
vt 0.125 0.6875
vt 0.1875 0.6875
vn 0.8433914458128857 0 0.5372996083468239
vn -0.8433914458128857 0 -0.5372996083468239
vn 0 1 0
vn 0 -1 0
vn -0.5372996083468239 0 0.8433914458128857
vn 0.5372996083468239 0 -0.8433914458128857
usemtl m_735fac97-d5b6-5404-22ac-6174c8c88069
f 26/73/19 25/74/19 27/75/19 28/76/19
f 31/77/20 29/78/20 30/79/20 32/80/20
f 29/81/21 25/82/21 26/83/21 30/84/21
f 28/85/22 27/86/22 31/87/22 32/88/22
f 27/89/23 25/90/23 29/91/23 31/92/23
f 30/93/24 26/94/24 28/95/24 32/96/24
o Stem
v -0.02134414693413185 0.046875 0.16196914693413186
v 0.0057191469341318565 0.046875 0.14634414693413186
v -0.02134414693413185 0 0.16196914693413186
v 0.0057191469341318565 0 0.14634414693413186
v -0.03696914693413186 0.046875 0.13490585306586814
v -0.009905853065868149 0.046875 0.11928085306586814
v -0.03696914693413186 0 0.13490585306586814
v -0.009905853065868149 0 0.11928085306586814
vt 0.0625 0.875
vt 0 0.875
vt 0 0.8125
vt 0.0625 0.8125
vt 0.1875 0.8125
vt 0.1875 0.875
vt 0.125 0.875
vt 0.125 0.8125
vt 0.125 0.9375
vt 0.1875 0.9375
vt 0.1875 1
vt 0.125 1
vt 0.0625 0.6875
vt 0.0625 0.75
vt 0 0.75
vt 0 0.6875
vt 0.0625 0.9375
vt 0.0625 1
vt 0 1
vt 0 0.9375
vt 0.1875 0.75
vt 0.125 0.75
vt 0.125 0.6875
vt 0.1875 0.6875
vn 0.5000000000000001 0 0.8660254037844386
vn -0.5000000000000001 0 -0.8660254037844386
vn 0 1 0
vn 0 -1 0
vn -0.8660254037844386 0 0.5000000000000001
vn 0.8660254037844386 0 -0.5000000000000001
usemtl m_735fac97-d5b6-5404-22ac-6174c8c88069
f 34/97/25 33/98/25 35/99/25 36/100/25
f 39/101/26 37/102/26 38/103/26 40/104/26
f 37/105/27 33/106/27 34/107/27 38/108/27
f 36/109/28 35/110/28 39/111/28 40/112/28
f 35/113/29 33/114/29 37/115/29 39/116/29
f 38/117/30 34/118/30 36/119/30 40/120/30