# Made in Blockbench 4.4.1
mtllib SplicerButton.mtl

o cube
v 0.3125 0.125 0.375
v 0.3125 0.125 -0.375
v 0.3125 0 0.375
v 0.3125 0 -0.375
v -0.3125 0.125 0.375
v -0.3125 0.125 -0.375
v -0.3125 0 0.375
v -0.3125 0 -0.375
v -0.125 0.125 0.5
v -0.125 0.125 -0.5
v -0.125 0 -0.5
v -0.125 0 0.5
v 0.125 0.125 -0.5
v 0.125 0.125 0.5
v 0.125 0 0.5
v 0.125 0 -0.5
vt 0.375 0.5
vt 0 0.5
vt 0 0.4375
vt 0.375 0.4375
vt 0.75 0.4375
vt 0.75 0.5
vt 0.375 0.5
vt 0.375 0.4375
vt 0.09375 0.5
vt 0.21875 0.5
vt 0.21875 1
vt 0.09375 1
vt 0.40625 0.5
vt 0.53125 0.5
vt 0.53125 1
vt 0.40625 1
vt 0 0.375
vt 0.125 0.375
vt 0.125 0.4375
vt 0 0.4375
vt 0.25 0.4375
vt 0.125 0.4375
vt 0.125 0.375
vt 0.25 0.375
vt 0 0.5625
vt 0.09375 0.5
vt 0.09375 1
vt 0 0.9375
vt 0.375 0.4375
vt 0.25 0.4375
vt 0.25 0.375
vt 0.375 0.375
vt 0.3125 0.5625
vt 0.40625 0.5
vt 0.40625 1
vt 0.3125 0.9375
vt 0.375 0.375
vt 0.5 0.375
vt 0.5 0.4375
vt 0.375 0.4375
vt 0.3125 0.9375
vt 0.21875 1
vt 0.21875 0.5
vt 0.3125 0.5625
vt 0.625 0.4375
vt 0.5 0.4375
vt 0.5 0.375
vt 0.625 0.375
vt 0.625 0.9375
vt 0.53125 1
vt 0.53125 0.5
vt 0.625 0.5625
vt 0 0.3125
vt 0.125 0.3125
vt 0.125 0.375
vt 0 0.375
vn 1 0 0
vn -1 0 0
vn 0 1 0
vn 0 -1 0
vn 0 0 1
vn 0 0 -1
vn 0 1 0
vn -0.5547001962252291 0 -0.8320502943378437
vn 0 -1 0
vn -0.5547001962252291 0 0.8320502943378437
vn 0 1 0
vn 0.5547001962252291 0 0.8320502943378437
vn 0 -1 0
vn 0.5547001962252291 0 -0.8320502943378437
usemtl m_1
f 2/1/1 1/2/1 3/3/1 4/4/1
f 7/5/2 5/6/2 6/7/2 8/8/2
f 9/9/3 14/10/3 13/11/3 10/12/3
f 11/13/4 16/14/4 15/15/4 12/16/4
f 12/17/5 15/18/5 14/19/5 9/20/5
f 10/21/6 13/22/6 16/23/6 11/24/6
f 5/25/7 9/26/7 10/27/7 6/28/7
f 6/29/8 10/30/8 11/31/8 8/32/8
f 8/33/9 11/34/9 12/35/9 7/36/9
f 7/37/10 12/38/10 9/39/10 5/40/10
f 2/41/11 13/42/11 14/43/11 1/44/11
f 1/45/12 14/46/12 15/47/12 3/48/12
f 3/49/13 15/50/13 16/51/13 4/52/13
f 4/53/14 16/54/14 13/55/14 2/56/14