# Made in Blockbench 4.7.2
mtllib ArrowIndicator.mtl

o pyramid
v 0 0 0
v 0.25 0.31250000000000006 -0.24999999999999997
v 0.25 0.31249999999999994 0.25000000000000006
v -0.25 0.31250000000000006 -0.24999999999999997
v -0.25 0.31249999999999994 0.25000000000000006
v 0.25 0.37500000000000006 -0.24999999999999994
v -0.25 0.37500000000000006 -0.24999999999999994
v 0.25 0.37499999999999994 0.25000000000000006
v -0.25 0.37499999999999994 0.25000000000000006
vt 1 0
vt 1 1
vt 0 1
vt 0 0
vt 0 0.29288749999999997
vt 1 0.29288749999999997
vt 0.5 1
vt 0 0.29288749999999997
vt 1 0.29288749999999997
vt 0.5 1
vt 0 0.29288749999999997
vt 1 0.29288749999999997
vt 0.5 1
vt 0 0.29288749999999997
vt 1 0.29288749999999997
vt 0.5 1
vt 0.25 0.6875
vt 0.75 0.6875
vt 0.75 0.75
vt 0.25 0.75
vt 0 0.9375
vt 0.5 0.9375
vt 0.5 1
vt 0 1
vt 0 0.6875
vt 0.5 0.6875
vt 0.5 0.75
vt 0 0.75
vt 0 0.4375
vt 0.5 0.4375
vt 0.5 0.5
vt 0 0.5
vn 0 1 1.2246467991473532e-16
vn 0.7808688094430304 -0.6246950475544243 -7.650307904307293e-17
vn 0 -0.6246950475544242 -0.7808688094430305
vn 0 -0.6246950475544244 0.7808688094430303
vn -0.7808688094430304 -0.6246950475544243 -7.650307904307293e-17
vn 1 0 0
vn 0 1.2246467991473532e-16 -1
vn -1 0 0
vn 0 -1.2246467991473532e-16 1
usemtl none
f 8/1/1 6/2/1 7/3/1 9/4/1
f 2/5/2 3/6/2 1/7/2
f 4/8/3 2/9/3 1/10/3
f 3/11/4 5/12/4 1/13/4
f 5/14/5 4/15/5 1/16/5
f 6/17/6 8/18/6 3/19/6 2/20/6
f 7/21/7 6/22/7 2/23/7 4/24/7
f 9/25/8 7/26/8 4/27/8 5/28/8
f 8/29/9 9/30/9 5/31/9 3/32/9
o cube
v 0.140625 1 0.140625
v 0.140625 1 -0.140625
v 0.140625 0.375 0.140625
v 0.140625 0.375 -0.140625
v -0.140625 1 0.140625
v -0.140625 1 -0.140625
v -0.140625 0.375 0.140625
v -0.140625 0.375 -0.140625
vt 1 1
vt 0 1
vt 0 0.5
vt 1 0.5
vt 1 0.5
vt 1 1
vt 0 1
vt 0 0.5
vt 0 0
vt 1 0
vt 1 1
vt 0 1
vt 1 0
vt 1 1
vt 0 1
vt 0 0
vt 1 0.5
vt 1 1
vt 0 1
vt 0 0.5
vt 1 1
vt 0 1
vt 0 0.5
vt 1 0.5
vn 1 0 0
vn -1 0 0
vn 0 1 0
vn 0 -1 0
vn 0 0 1
vn 0 0 -1
usemtl none
f 11/33/10 10/34/10 12/35/10 13/36/10
f 16/37/11 14/38/11 15/39/11 17/40/11
f 14/41/12 10/42/12 11/43/12 15/44/12
f 13/45/13 12/46/13 16/47/13 17/48/13
f 12/49/14 10/50/14 14/51/14 16/52/14
f 15/53/15 11/54/15 13/55/15 17/56/15