# Made in Blockbench 4.4.1
mtllib Pine Tree.mtl

o plane
v 0.78125 0.5625 0.29296875
v -0.78125 0.5625 0.29296875
v -0.78125 0.5625 -0.29296875
v 0.78125 0.5625 -0.29296875
v 0.11837121212121211 0.875 -0.11837121212121211
v 0.11837121212121211 0.875 0.11837121212121211
v 0.29296875 0.5625 0.78125
v 0.29296875 0.5625 -0.78125
v -0.11837121212121211 0.875 0.11837121212121211
v -0.11837121212121211 0.875 -0.11837121212121211
v -0.29296875 0.5625 -0.78125
v -0.29296875 0.5625 0.78125
vt 0.34860147373348216 0.6896441311126724
vt 0.4140625 0.7459070042889013
vt 0.3267765645327899 0.78125
vt 0.011006347855414766 0.9275895150087312
vt 0.07646737412193262 0.8713266418325023
vt 0.09829228332262488 0.9629325107198299
vt 0.12788447082262488 0.9629325107198299
vt 0.14970938002331713 0.8713266418325023
vt 0.215170406289835 0.9275895150087312
vt 0.20989835076627208 0.745906623176229
vt 0.2753593770327899 0.68964375
vt 0.29718428623348225 0.7812496188873275
vt 0.226177117285478 0.9999998529606922
vt 0.13233138755934382 0.9921886637918221
vt 0.12788447082262488 0.9629325107198299
vt 0.21517076943006325 0.9275893679694234
vt 0.2753593770327899 0.68964375
vt 0.3486015645327899 0.68964375
vt 0.3267765645327899 0.78125
vt 0.2971843770327899 0.78125
vt 0.01100634785541478 0.9275895150087312
vt 0.09829264646285314 0.9629326577591376
vt 0.0938457297261342 0.9921888108311299
vt 0 1
vt 0.12788447082262488 0.9629325107198299
vt 0.09829228332262488 0.9629325107198299
vt 0.07646728332262488 0.8713262607198298
vt 0.14970947082262487 0.8713262607198298
vn -0.33001334260603654 0.8844107571733745 -0.33001334260603654
vn -0.33001334260603654 0.8844107571733745 0.33001334260603654
vn 0.3300133426060366 0.8844107571733745 0.3300133426060366
vn 0.33001334260603654 0.8844107571733745 -0.33001334260603654
vn 0.4264192316982557 0.9045256429962999 0
vn 0 0.9045256429962997 -0.42641923169825563
vn -0.4264192316982557 0.9045256429962999 0
vn 0 0.9045256429962999 0.4264192316982557
usemtl m_0
f 11/1/1 3/2/1 10/3/1
f 2/4/2 12/5/2 9/6/2
f 6/7/3 7/8/3 1/9/3
f 4/10/4 8/11/4 5/12/4
f 4/13/5 5/14/5 6/15/5 1/16/5
f 8/17/6 11/18/6 10/19/6 5/20/6
f 2/21/7 9/22/7 10/23/7 3/24/7
f 6/25/8 9/26/8 12/27/8 7/28/8
o plane
v 0.6875 0.96875 0.2578125
v -0.6875 0.96875 0.2578125
v -0.6875 0.96875 -0.2578125
v 0.6875 0.96875 -0.2578125
v 0.11363636363636362 1.4375 -0.11363636363636362
v 0.11363636363636362 1.4375 0.11363636363636362
v 0.2578125 0.96875 0.6875
v 0.2578125 0.96875 -0.6875
v -0.11363636363636362 1.4375 0.11363636363636362
v -0.11363636363636362 1.4375 -0.11363636363636362
v -0.2578125 0.96875 -0.6875
v -0.2578125 0.96875 0.6875
vt 0.296875 0.5174026240700071
vt 0.296875 0.6117615118709517
vt 0.269755235872151 0.6171875
vt 0.234375 0.5297127115369107
vt 0.2871940693143035 0.8683154302916047
vt 0.3516471943143035 0.8683154302916047
vt 0.3336253193143035 0.9609373052916047
vt 0.30521594431430354 0.9609373052916047
vt 0.171875 0.5017776240700071
vt 0.171875 0.5961365118709517
vt 0.14475523587215097 0.6015625
vt 0.109375 0.5140877115369107
vt 0.21822155568569648 0.703125
vt 0.18981218068569647 0.703125
vt 0.17179030568569648 0.610503125
vt 0.23624343068569648 0.610503125
vt 0.35164723219963423 0.8683152355832094
vt 0.4140625 0.9116068167023975
vt 0.3336253193143035 0.9609373052916047
vt 0.109375 0.6537945114107928
vt 0.17179026780036583 0.6105029302916047
vt 0.18981218068569647 0.703125
vt 0.21822155568569648 0.703125
vt 0.23624346857102713 0.6105029302916047
vt 0.29865873637139295 0.6537945114107928
vt 0.22477880151393773 0.9116070114107928
vt 0.2871940693143035 0.8683154302916047
vt 0.3052159821996342 0.9609375
vn 0.6326112351354205 0.7744695121051814 0
vn 0 0.7744695121051816 -0.6326112351354205
vn -0.6326112351354205 0.7744695121051814 0
vn 0 0.7744695121051814 0.6326112351354205
vn -0.4796581295497335 0.7347490439011828 -0.4796581295497335
vn -0.4796581295497335 0.7347490439011828 0.4796581295497335
vn 0.47965812954973347 0.7347490439011828 0.47965812954973347
vn 0.4796581295497335 0.7347490439011828 -0.4796581295497335
usemtl m_0
f 16/29/9 17/30/9 18/31/9 13/32/9
f 20/33/10 23/34/10 22/35/10 17/36/10
f 14/37/11 21/38/11 22/39/11 15/40/11
f 18/41/12 21/42/12 24/43/12 19/44/12
f 23/45/13 15/46/13 22/47/13
f 14/48/14 24/49/14 21/50/14
f 18/51/15 19/52/15 13/53/15
f 16/54/16 20/55/16 17/56/16
o plane
v 0.640625 1.34375 0.240234375
v -0.640625 1.34375 0.240234375
v -0.640625 1.34375 -0.240234375
v 0.640625 1.34375 -0.240234375
v 0.11363636363636362 2 -0.11363636363636362
v 0.11363636363636362 2 0.11363636363636362
v 0.240234375 1.34375 0.640625
v 0.240234375 1.34375 -0.640625
v -0.11363636363636362 2 0.11363636363636362
v -0.11363636363636362 2 -0.11363636363636362
v -0.240234375 1.34375 -0.640625
v -0.240234375 1.34375 0.640625
vt 0.3984375 0.5690715302198924
vt 0.3984375 0.6754619683404601
vt 0.36723467674718013 0.6796875
vt 0.3359375 0.5780044789144017
vt 0.1821243994669767 0.77760546875
vt 0.2421829932169767 0.77760546875
vt 0.2263587744669767 0.8828125
vt 0.1979493994669767 0.8828125
vt 0.4375 0.7721965302198924
vt 0.4375 0.8785869683404601
vt 0.40629717674718013 0.8828125
vt 0.375 0.7811294789144017
vt 0.10673862333263523 0.796875
vt 0.07832924833263522 0.796875
vt 0.06250424833263522 0.69166796875
vt 0.12256284208263522 0.69166796875
vt 0.24218290614991425 0.7776060476137848
vt 0.3046875 0.8108165867577595
vt 0.2263587744669767 0.8828125
vt 0 0.7248796555473461
vt 0.06250435268856111 0.6916686625242278
vt 0.07832924833263522 0.796875
vt 0.10673862333263523 0.796875
vt 0.12256275501557276 0.6916685476137848
vt 0.1850673488656585 0.7248790867577595
vt 0.11962004677841559 0.8108164617731184
vt 0.1821243994669767 0.77760546875
vt 0.19794929511105083 0.8828118062257723
vn 0.7797149084446202 0.6261346992055283 0
vn 0 0.6261346992055283 -0.7797149084446202
vn -0.7797149084446202 0.6261346992055283 0
vn 0 0.6261346992055284 0.7797149084446203
vn -0.5781313137661412 0.5757850016161163 -0.5781313137661412
vn -0.5781313137661412 0.5757850016161163 0.5781313137661412
vn 0.5781313137661414 0.5757850016161162 0.5781313137661414
vn 0.5781313137661412 0.5757850016161163 -0.5781313137661412
usemtl m_0
f 28/57/17 29/58/17 30/59/17 25/60/17
f 32/61/18 35/62/18 34/63/18 29/64/18
f 26/65/19 33/66/19 34/67/19 27/68/19
f 30/69/20 33/70/20 36/71/20 31/72/20
f 35/73/21 27/74/21 34/75/21
f 26/76/22 36/77/22 33/78/22
f 30/79/23 31/80/23 25/81/23
f 28/82/24 32/83/24 29/84/24
o plane
v 0.484375 1.78125 0.181640625
v -0.484375 1.78125 0.181640625
v -0.484375 1.78125 -0.181640625
v 0.484375 1.78125 -0.181640625
v 0.08238636363636362 2.5625 -0.08238636363636362
v 0.08238636363636362 2.5625 0.08238636363636362
v 0.181640625 1.78125 0.484375
v 0.181640625 1.78125 -0.484375
v -0.08238636363636362 2.5625 0.08238636363636362
v -0.08238636363636362 2.5625 -0.08238636363636362
v -0.181640625 1.78125 -0.484375
v -0.181640625 1.78125 0.484375
vt 0.4921875 0.4574767645863763
vt 0.4921875 0.5680003595760367
vt 0.46996971834615897 0.5703125
vt 0.4453125 0.46257445364279004
vt 0.453125 0.5875742804543111
vt 0.5 0.5824769960414161
vt 0.5 0.6930005033331343
vt 0.4777814615986037 0.6953125
vt 0.390625 0.4027894960414161
vt 0.390625 0.5133130033331343
vt 0.3684064615986037 0.515625
vt 0.34375 0.40788678045431115
vt 0.515625 0.9117505033331343
vt 0.4934064615986037 0.9140625
vt 0.46875 0.8063242804543111
vt 0.515625 0.8012269960414161
vt 0.3933888930251584 0.5274322498977697
vt 0.4453125 0.5144761255597278
vt 0.4453125 0.625
vt 0.40625 0.6836822498977697
vt 0.4581736069748416 0.6707261255597278
vt 0.4581736069748416 0.78125
vt 0.4765625 1
vt 0.4246388930251584 0.9024322498977697
vt 0.4765625 0.8894761255597278
vt 0.171875 0.4727447498977697
vt 0.2237986069748416 0.45978862555972777
vt 0.2237986069748416 0.5703125
vn 0.8891938491206193 0.45753065327479137 0
vn 0 0.45753065327479137 -0.8891938491206194
vn -0.8891938491206193 0.45753065327479137 0
vn 0 0.4575306532747914 0.8891938491206194
vn -0.6439377121479137 0.4131445821349001 -0.6439377121479137
vn -0.6439377121479137 0.4131445821349001 0.6439377121479137
vn 0.6439377121479137 0.41314458213490013 0.6439377121479137
vn 0.6439377121479137 0.4131445821349001 -0.6439377121479137
usemtl m_0
f 40/85/25 41/86/25 42/87/25 37/88/25
f 44/89/26 47/90/26 46/91/26 41/92/26
f 38/93/27 45/94/27 46/95/27 39/96/27
f 42/97/28 45/98/28 48/99/28 43/100/28
f 47/101/29 39/102/29 46/103/29
f 38/104/30 48/105/30 45/106/30
f 42/107/31 43/108/31 37/109/31
f 40/110/32 44/111/32 41/112/32
o plane
v 0.328125 2.28125 0.12304687499999999
v -0.328125 2.28125 0.12304687499999999
v -0.328125 2.28125 -0.12304687499999999
v 0.328125 2.28125 -0.12304687499999999
v 0.004261363636363619 2.875 -0.004261363636363619
v 0.004261363636363619 2.875 0.004261363636363619
v 0.12304687499999999 2.28125 0.328125
v 0.12304687499999999 2.28125 -0.328125
v -0.004261363636363619 2.875 0.004261363636363619
v -0.004261363636363619 2.875 -0.004261363636363619
v -0.12304687499999999 2.28125 -0.328125
v -0.12304687499999999 2.28125 0.328125
vt 0.5546875 0.8124178492693893
vt 0.5546875 0.8982531698946756
vt 0.5526851740285355 0.8984375
vt 0.5234375 0.8177388269578351
vt 0.5078125 0.6693014620972084
vt 0.5390625 0.6639803492693893
vt 0.5390625 0.7498156698946756
vt 0.5370609435016749 0.75
vt 0.5625 0.3827303492693893
vt 0.5625 0.46856566989467563
vt 0.5604984435016749 0.46875
vt 0.53125 0.3880514620972084
vt 0.5546875 0.9998156698946756
vt 0.5526859435016749 1
vt 0.5234375 0.9193014620972084
vt 0.5546875 0.9139803492693893
vt 0.4958144630687047 0.42963254738772716
vt 0.53125 0.4219767133602399
vt 0.53125 0.5078125
vt 0.5 0.5468200473877272
vt 0.5354355369312953 0.5391642133602399
vt 0.5354355369312953 0.625
vt 0.5078125 0.7890625
vt 0.4723769630687047 0.7108825473877272
vt 0.5078125 0.7032267133602399
vt 0.1171875 0.41400754738772716
vt 0.1526230369312953 0.4063517133602399
vt 0.15262303693129528 0.4921875
vt 0.140625 0.859375
vt 0.1328125 0.859375
vt 0.1328125 0.8515625
vt 0.140625 0.8515625
vn 0.8778955729143847 0.47885213068057264 0
vn 0 0.47885213068057336 -0.8778955729143846
vn -0.8778955729143847 0.47885213068057264 0
vn 0 0.4788521306805733 0.8778955729143844
vn -0.6255143485755491 0.46632992553793184 -0.6255143485755491
vn -0.6255143485755491 0.46632992553793184 0.6255143485755491
vn 0.6255143485755491 0.46632992553793173 0.6255143485755491
vn 0.6255143485755491 0.46632992553793184 -0.6255143485755491
vn 0 1 0
usemtl m_0
f 52/113/33 53/114/33 54/115/33 49/116/33
f 56/117/34 59/118/34 58/119/34 53/120/34
f 50/121/35 57/122/35 58/123/35 51/124/35
f 54/125/36 57/126/36 60/127/36 55/128/36
f 59/129/37 51/130/37 58/131/37
f 50/132/38 60/133/38 57/134/38
f 54/135/39 55/136/39 49/137/39
f 52/138/40 56/139/40 53/140/40
f 53/141/41 58/142/41 57/143/41 54/144/41
o cube
v 0.03348214285714285 2.6875 0.0669642857142857
v 0.125 0 0.25
v 0.03348214285714285 2.6875 0.03348214285714285
v 0.0669642857142857 2.6875 0.03348214285714285
v 0.25 0 0.125
v 0.08035714285714285 0 0.08035714285714285
v -0.25 0 0.125
v -0.0669642857142857 2.6875 0.03348214285714285
v -0.0669642857142857 2.6875 -0.03348214285714285
v 0.03348214285714285 2.6875 -0.03348214285714285
v 0.0669642857142857 2.6875 -0.03348214285714285
v 0.25 0 -0.125
v 0.08035714285714285 0 -0.08035714285714285
v -0.25 0 -0.125
v -0.03348214285714285 2.6875 -0.03348214285714285
v -0.03348214285714285 2.6875 0.03348214285714285
v -0.03348214285714285 2.6875 0.0669642857142857
v -0.125 0 0.25
v -0.08035714285714285 0 0.08035714285714285
v -0.08035714285714285 0 -0.08035714285714285
v -0.125 0 -0.25
v -0.03348214285714285 2.6875 -0.0669642857142857
v 0.03348214285714285 2.6875 -0.0669642857142857
v 0.125 0 -0.25
v -0.08035714285714285 0.125 -0.1607142857142857
v 0.08035714285714285 0.125 -0.1607142857142857
v 0.1607142857142857 0.125 -0.08035714285714285
v 0.1607142857142857 0.125 0.08035714285714285
v 0.08035714285714285 0.125 0.1607142857142857
v -0.08035714285714285 0.125 0.1607142857142857
v -0.1607142857142857 0.125 0.08035714285714285
v -0.1607142857142857 0.125 -0.08035714285714285
vt 0.0078125 0.90625
vt 0.0078125 0.9140625
vt 0 0.9140625
vt 0 0.90625
vt 0.08956484375 0.6796875
vt 0.08370546875 0.35916015625
vt 0.10379453125 0.35916015625
vt 0.09793515625 0.6796875
vt 0.04129453125 0.8537945312499999
vt 0.04129453125 0.8337054687500001
vt 0.0625 0.828125
vt 0.0625 0.859375
vt 0 0.828125
vt 0.021205468749999998 0.8337054687500001
vt 0.021205468749999998 0.8537945312499999
vt 0 0.859375
vt 0.31612734375 0.6796875
vt 0.31026796875 0.35916015625
vt 0.33035703125 0.35916015625
vt 0.32449765625 0.6796875
vt 0 0.890625
vt 0.0078125 0.890625
vt 0.0078125 0.8984375
vt 0 0.8984375
vt 0.0234375 0.8984375
vt 0.015625 0.8984375
vt 0.015625 0.890625
vt 0.0234375 0.890625
vt 0.1171875 1
vt 0.109375 1
vt 0.109375 0.9921875
vt 0.1171875 0.9921875
vt 0.011439843750000001 0.6953125
vt 0.0055804687499999995 0.37478515625
vt 0.025669531250000002 0.37478515625
vt 0.01981015625 0.6953125
vt 0.046875 0.875
vt 0.015625 0.875
vt 0.021205468749999998 0.8537945312499999
vt 0.04129453125 0.8537945312499999
vt 0.04129453125 0.8537945312499999
vt 0.021205468749999998 0.8537945312499999
vt 0.021205468749999998 0.8337054687500001
vt 0.04129453125 0.8337054687500001
vt 0.04129453125 0.8337054687500001
vt 0.021205468749999998 0.8337054687500001
vt 0.015625 0.8125
vt 0.046875 0.8125
vt 0.1171875 0.984375
vt 0.109375 0.984375
vt 0.109375 0.9765625
vt 0.1171875 0.9765625
vt 0.05050234375 0.6796875
vt 0.04464296875 0.35916015625
vt 0.06473203125 0.35916015625
vt 0.05887265625 0.6796875
vt 0.021205468749999998 0.8537945312499999
vt 0.015625 0.875
vt 0 0.859375
vt 0.23851796875 0.515625
vt 0.234375 0.1953125
vt 0.2485796875 0.1953125
vt 0.24443671875 0.515625
vt 0.1015625 0.828125
vt 0.10574765625 0.8239398437500001
vt 0.10574765625 0.828125
vt 0.0625 0.859375
vt 0.046875 0.875
vt 0.04129453125 0.8537945312499999
vt 0.26337578125 0.5078125
vt 0.2592328125 0.1875
vt 0.2734375 0.1875
vt 0.26929453125 0.5078125
vt 0.1015625 0.8125
vt 0.1015625 0.8083148437500001
vt 0.10574765625 0.8125
vt 0.04129453125 0.8337054687500001
vt 0.046875 0.8125
vt 0.0625 0.828125
vt 0.28539296875 0.5078125
vt 0.28125 0.1875
vt 0.2954546875 0.1875
vt 0.29131171875 0.5078125
vt 0.03543515625 0.8005023437500001
vt 0.03125 0.8046875
vt 0.03125 0.8005023437500001
vt 0.021205468749999998 0.8337054687500001
vt 0 0.828125
vt 0.015625 0.8125
vt 0.40400078125 0.5078125
vt 0.3998578125 0.1875
vt 0.4140625 0.1875
vt 0.40991953125 0.5078125
vt 0.05106015625 0.8046875
vt 0.046875 0.8005023437500001
vt 0.05106015625 0.8005023437500001
vt 0.0703125 0.3399578125
vt 0.06473203125 0.35916015625
vt 0.04464296875 0.35916015625
vt 0.0390625 0.3399578125
vt 0.092409375 0.8359375
vt 0.08846328125 0.859375
vt 0.07425859375 0.859375
vt 0.0703125 0.8359375
vt 0.109375 0.3399578125
vt 0.10379453125 0.35916015625
vt 0.08370546875 0.35916015625
vt 0.078125 0.3399578125
vt 0.125 0.8359375
vt 0.12105390625 0.859375
vt 0.10684921875 0.859375
vt 0.102903125 0.8359375
vt 0.03125 0.3555828125
vt 0.025669531250000002 0.37478515625
vt 0.0055804687499999995 0.37478515625
vt 0 0.3555828125
vt 0.092409375 0.8046875
vt 0.08846328125 0.828125
vt 0.07425859375 0.828125
vt 0.0703125 0.8046875
vt 0.3359375 0.3399578125
vt 0.33035703125 0.35916015625
vt 0.31026796875 0.35916015625
vt 0.3046875 0.3399578125
vt 0.0234375 0.78125
vt 0.01949140625 0.8046875
vt 0.005286718750000001 0.8046875
vt 0.0013406250000000015 0.78125
vn 0 1 0
vn 0.9993314265864828 0.03656090585072498 0
vn 0 -1 0
vn 0 -1 0
vn -0.9993314265864828 0.03656090585072498 0
vn 0 1 0
vn 0 1 0
vn 0 1 0
vn 0 0.03656090585072498 0.9993314265864828
vn 0 -1 0
vn 0 -1 0
vn 0 -1 0
vn 0 1 0
vn 0 0.03656090585072498 -0.9993314265864828
vn 0 -1 0
vn -0.7065750009396924 0.03877545736864166 0.7065750009396924
vn 0 1 0
vn 0 -1 0
vn 0.7065750009396924 0.03877545736864166 0.7065750009396924
vn 0 1 0
vn 0 -1 0
vn 0.7065750009396924 0.03877545736864166 -0.7065750009396924
vn 0 1 0
vn 0 -1 0
vn -0.7065750009396924 0.03877545736864166 -0.7065750009396924
vn 0 1 0
vn 0 0.5812381937190965 -0.8137334712067351
vn 0.5636187775599323 0.6038772616713561 -0.5636187775599323
vn 0.8137334712067351 0.5812381937190965 0
vn 0.5636187775599323 0.6038772616713561 0.5636187775599323
vn 0 0.5812381937190965 0.8137334712067351
vn -0.5636187775599323 0.6038772616713561 0.5636187775599323
vn -0.8137334712067351 0.5812381937190965 0
vn -0.5636187775599323 0.6038772616713561 -0.5636187775599323
usemtl m_0
f 64/145/42 71/146/42 70/147/42 63/148/42
f 64/149/43 88/150/43 87/151/43 71/152/43
f 66/153/44 73/154/44 72/155/44 65/156/44
f 74/157/45 80/158/45 79/159/45 67/160/45
f 69/161/46 92/162/46 91/163/46 68/164/46
f 68/165/47 76/166/47 75/167/47 69/168/47
f 70/169/48 75/170/48 76/171/48 63/172/48
f 63/173/49 76/174/49 77/175/49 61/176/49
f 77/177/50 90/178/50 89/179/50 61/180/50
f 62/181/51 78/182/51 79/183/51 66/184/51
f 66/185/52 79/186/52 80/187/52 73/188/52
f 73/189/53 80/190/53 81/191/53 84/192/53
f 83/193/54 82/194/54 75/195/54 70/196/54
f 83/197/55 86/198/55 85/199/55 82/200/55
f 79/201/56 78/202/56 67/203/56
f 68/204/57 91/205/57 90/206/57 77/207/57
f 68/208/58 77/209/58 76/210/58
f 65/211/59 62/212/59 66/213/59
f 61/214/60 89/215/60 88/216/60 64/217/60
f 63/218/61 61/219/61 64/220/61
f 73/221/62 84/222/62 72/223/62
f 71/224/63 87/225/63 86/226/63 83/227/63
f 71/228/64 83/229/64 70/230/64
f 80/231/65 74/232/65 81/233/65
f 82/234/66 85/235/66 92/236/66 69/237/66
f 82/238/67 69/239/67 75/240/67
f 81/241/68 85/242/68 86/243/68 84/244/68
f 84/245/69 86/246/69 87/247/69 72/248/69
f 72/249/70 87/250/70 88/251/70 65/252/70
f 65/253/71 88/254/71 89/255/71 62/256/71
f 62/257/72 89/258/72 90/259/72 78/260/72
f 78/261/73 90/262/73 91/263/73 67/264/73
f 67/265/74 91/266/74 92/267/74 74/268/74
f 74/269/75 92/270/75 85/271/75 81/272/75