# Made in Blockbench 4.4.1
mtllib SplicerInput.mtl

o cube
v 0.5 0.25 0.3125
v 0.5 0.25 -0.3125
v 0.5 0 0.3125
v 0.5 0 -0.3125
v -0.5 0.25 0.3125
v -0.5 0.25 -0.3125
v -0.5 0 0.3125
v -0.5 0 -0.3125
v 0.25 0.25 0.5
v 0.25 0.25 -0.5
v 0.25 0 -0.5
v 0.25 0 0.5
v -0.25 0.25 0.5
v -0.25 0.25 -0.5
v -0.25 0 -0.5
v -0.25 0 0.5
vt 0.5 0.90625
vt 0.375 1
vt 0.375 0.5
vt 0.5 0.59375
vt 0.90625 0.46875
vt 0.78125 0.5625
vt 0.78125 0.0625
vt 0.90625 0.15625
vt 0.15625 0.375
vt 0 0.375
vt 0 0.25
vt 0.15625 0.25
vt 0.375 1
vt 0.125 1
vt 0.125 0.5
vt 0.375 0.5
vt 0.5 0.75
vt 0.75 0.75
vt 0.75 0.875
vt 0.5 0.875
vt 0.78125 0.5625
vt 0.53125 0.5625
vt 0.53125 0.0625
vt 0.78125 0.0625
vt 0.75 0.75
vt 0.5 0.75
vt 0.5 0.625
vt 0.75 0.625
vt 0 0.59375
vt 0.125 0.5
vt 0.125 1
vt 0 0.90625
vt 0.40625 0.15625
vt 0.53125 0.0625
vt 0.53125 0.5625
vt 0.40625 0.46875
vt 0.15625 0.25
vt 0.3125 0.25
vt 0.3125 0.375
vt 0.15625 0.375
vt 0.3125 0.5
vt 0 0.5
vt 0 0.375
vt 0.3125 0.375
vt 0 0.125
vt 0.15625 0.125
vt 0.15625 0.25
vt 0 0.25
vt 0.8125 0.875
vt 0.8125 1
vt 0.5 1
vt 0.5 0.875
vt 0.90625 0.875
vt 0.75 0.875
vt 0.75 0.75
vt 0.90625 0.75
vn 0 1 0
vn 0 -1 0
vn 0.6 0 0.8
vn 0 1 0
vn 0 0 -1
vn 0 -1 0
vn 0 0 1
vn 0 1 0
vn 0 -1 0
vn -0.6 0 0.8
vn 1 0 0
vn 0.6 0 -0.8
vn -1 0 0
vn -0.6 0 -0.8
usemtl m_0
f 2/1/1 10/2/1 9/3/1 1/4/1
f 3/5/2 12/6/2 11/7/2 4/8/2
f 1/9/3 9/10/3 12/11/3 3/12/3
f 10/13/4 14/14/4 13/15/4 9/16/4
f 11/17/5 15/18/5 14/19/5 10/20/5
f 12/21/6 16/22/6 15/23/6 11/24/6
f 9/25/7 13/26/7 16/27/7 12/28/7
f 5/29/8 13/30/8 14/31/8 6/32/8
f 8/33/9 15/34/9 16/35/9 7/36/9
f 7/37/10 16/38/10 13/39/10 5/40/10
f 2/41/11 1/42/11 3/43/11 4/44/11
f 4/45/12 11/46/12 10/47/12 2/48/12
f 7/49/13 5/50/13 6/51/13 8/52/13
f 6/53/14 14/54/14 15/55/14 8/56/14